{
.appVersion = "1145";
DisplayStrings = (
"U/Germandbls ÆÆN",
M,
N,
K,
"/Germandbls/Uhorn",
"/a.ss01",
"/aacute.ss01",
"/abreve.ss01",
"/a.ss01",
"/abreveacute.ss01",
"/abrevedotbelow.ss01",
"/abrevegrave.ss01",
"/abrevehookabove.ss01",
"/abrevetilde.ss01",
"/acaron.ss01",
"/acircumflex.ss01",
"O/Omega",
"/zero.lt.zero"
);
classes = (
{
automatic = 1;

glyphs = (
{
color = 9;
glyphname = A;
lastChange = "2018-05-28 04:46:31 +0000";
layers = (
{
anchors = (
{
name = btm;
position = "{298, 0}";
},
{
name = top;
position = "{291, 830}";
}
);
layerId = "B61D43DE-5272-4FF4-A680-608B6BF5ED9E";
paths = (
{
closed = 1;
nodes = (
"135 0 LINE",
"275 388 LINE",
"308 503 LINE",
"273 503 LINE",
"308 388 LINE",
"454 0 LINE",
"593 0 LINE",
"297 716 LINE",
"287 716 LINE",
"-8 0 LINE"
);
},
{
closed = 1;
nodes = (
"448 101 LINE",
"443 198 LINE",
"144 198 LINE",
"140 101 LINE"
);
}
);
width = 585;
}
);
leftKerningGroup = A;
rightKerningGroup = A;
unicode = 0041;
},
{
glyphname = Aogonek;
lastChange = "2018-05-28 03:16:46 +0000";
layers = (
{
components = (
{
name = A;
}
);
layerId = "B61D43DE-5272-4FF4-A680-608B6BF5ED9E";
paths = (
{
closed = 1;
nodes = (
"585 -68 LINE",
"631 -99 LINE",
"595 -140 OFFCURVE",
"550 -149 OFFCURVE",
"517 -149 CURVE SMOOTH",
"478 -149 OFFCURVE",
"455 -135 OFFCURVE",
"455 -101 CURVE SMOOTH",
"455 -58 OFFCURVE",
"515 -17 OFFCURVE",
"585 0 CURVE",
"532 33 LINE",
"475 6 LINE",
"380 -18 OFFCURVE",
"353 -77 OFFCURVE",
"352 -126 CURVE",
"351 -198 OFFCURVE",
"396 -240 OFFCURVE",
"501 -240 CURVE SMOOTH",
"557 -240 OFFCURVE",
"599 -224 OFFCURVE",
"611 -203 CURVE",
"585 -278 LINE"
);
}
);
width = 586;
}
);
leftKerningGroup = A;
rightKerningGroup = A;
unicode = 0104;
},
{
glyphname = Aring;
lastChange = "2018-05-24 19:23:14 +0000";
layers = (
{
components = (
{
name = A;
}
);
layerId = "B61D43DE-5272-4FF4-A680-608B6BF5ED9E";
paths = (
{
closed = 1;
nodes = (
"371 671 OFFCURVE",
"434 725 OFFCURVE",
"434 802 CURVE SMOOTH",
"434 878 OFFCURVE",
"371 933 OFFCURVE",
"297 933 CURVE SMOOTH",
"223 933 OFFCURVE",
"160 880 OFFCURVE",
"160 802 CURVE SMOOTH",
"160 725 OFFCURVE",
"223 671 OFFCURVE",
"297 671 CURVE SMOOTH"
);
},
{
closed = 1;
nodes = (
"263 735 OFFCURVE",
"233 757 OFFCURVE",
"233 803 CURVE SMOOTH",
"233 852 OFFCURVE",
"263 870 OFFCURVE",
"297 870 CURVE SMOOTH",
"331 870 OFFCURVE",
"361 851 OFFCURVE",
"361 803 CURVE SMOOTH",
"361 757 OFFCURVE",
"331 735 OFFCURVE",
"297 735 CURVE SMOOTH"
);
}
);
width = 586;
}
);
leftKerningGroup = A;
rightKerningGroup = A;
unicode = 00C5;
},
{
color = 9;
glyphname = Aringacute;
lastChange = "2018-05-28 04:49:52 +0000";
layers = (
{
anchors = (
{
name = _top;
position = "{297, 850}";
},
{
name = top;
position = "{317, 1023}";
}
);
components = (
{
name = A;
}
);
layerId = "B61D43DE-5272-4FF4-A680-608B6BF5ED9E";
paths = (
{
closed = 1;
nodes = (
"371 674 OFFCURVE",
"435 728 OFFCURVE",
"435 805 CURVE SMOOTH",
"435 880 OFFCURVE",
"371 935 OFFCURVE",
"297 935 CURVE SMOOTH",
"223 935 OFFCURVE",
"160 882 OFFCURVE",
"160 805 CURVE SMOOTH",
"160 728 OFFCURVE",
"223 674 OFFCURVE",
"297 674 CURVE SMOOTH"
);
},
{
closed = 1;
nodes = (
"264 737 OFFCURVE",
"233 759 OFFCURVE",
"233 805 CURVE SMOOTH",
"233 854 OFFCURVE",
"264 873 OFFCURVE",
"297 873 CURVE SMOOTH",
"331 873 OFFCURVE",
"362 854 OFFCURVE",
"362 805 CURVE SMOOTH",
"362 759 OFFCURVE",
"331 737 OFFCURVE",
"297 737 CURVE SMOOTH"
);
},
{
closed = 1;
nodes = (
"346 894 LINE",
"437 1032 LINE",
"336 1032 LINE",
"268 894 LINE"
);
}
);
width = 586;
}
);
leftKerningGroup = A;
rightKerningGroup = A;
unicode = 01FA;
},
{
glyphname = AE;
lastChange = "2018-05-28 05:12:49 +0000";
layers = (
{
anchors = (
{
name = btm;
position = "{263, 0}";
},
{
name = top;
position = "{538, 830}";
}
);
layerId = "B61D43DE-5272-4FF4-A680-608B6BF5ED9E";
paths = (
{
closed = 1;
nodes = (
"147 0 LINE",
"360 414 LINE",
"417 540 LINE",
"431 697 LINE",
"394 697 LINE",
"5 0 LINE"
);
},
{
closed = 1;
nodes = (
"484 157 LINE",
"484 250 LINE",
"188 250 LINE",
"146 157 LINE"
);
},
{
closed = 1;
nodes = (
"798 0 LINE",
"798 110 LINE",
"520 110 LINE",
"536 91 LINE",
"536 336 LINE",
"518 319 LINE",
"729 319 LINE",
"729 425 LINE",
"518 425 LINE",
"536 408 LINE",
"536 605 LINE",
"520 591 LINE",
"778 591 LINE",
"778 697 LINE",
"414 697 LINE",
"414 0 LINE"
);
}
);
width = 839;
}
);
leftKerningGroup = AE;
rightKerningGroup = E;
rightMetricsKey = E;
unicode = 00C6;
},
{
glyphname = B;
lastChange = "2018-05-28 03:16:46 +0000";
layers = (
{
anchors = (
{
name = top;
position = "{308, 830}";
}
);
layerId = "B61D43DE-5272-4FF4-A680-608B6BF5ED9E";
paths = (
{
closed = 1;
nodes = (
"273 0 LINE",
"461 0 OFFCURVE",
"540 78 OFFCURVE",
"540 201 CURVE SMOOTH",
"540 309 OFFCURVE",
"485 375 OFFCURVE",
"365 375 CURVE",
"353 354 LINE",
"463 354 OFFCURVE",
"505 441 OFFCURVE",
"505 511 CURVE SMOOTH",
"505 629 OFFCURVE",
"434 697 OFFCURVE",
"270 697 CURVE",
"84 697 LINE",
"84 0 LINE"
);
},
{
closed = 1;
nodes = (
"210 324 LINE",
"191 312 LINE",
"281 312 LINE SMOOTH",
"343 312 OFFCURVE",
"408 299 OFFCURVE",
"408 208 CURVE SMOOTH",
"408 118 OFFCURVE",
"347 101 OFFCURVE",
"287 101 CURVE",
"192 101 LINE",
"210 83 LINE"
);
},
{
closed = 1;
nodes = (
"210 614 LINE",
"192 598 LINE",
"270 598 LINE SMOOTH",
"327 598 OFFCURVE",
"381 579 OFFCURVE",
"381 507 CURVE SMOOTH",
"381 463 OFFCURVE",
"359 405 OFFCURVE",
"291 405 CURVE",
"191 405 LINE",
"210 387 LINE"
);
}
);
width = 568;
}
);
leftKerningGroup = H;
leftMetricsKey = H;
rightKerningGroup = B;
unicode = 0042;
},
{
glyphname = C;
lastChange = "2018-05-28 03:16:46 +0000";
layers = (
{
anchors = (
{
name = btm;
position = "{299, 0}";
},
{
name = top;
position = "{319, 830}";
},
{
name = vslash;
position = "{317, 345}";
}
);
layerId = "B61D43DE-5272-4FF4-A680-608B6BF5ED9E";
paths = (
{
closed = 1;
nodes = (
"453 -12 OFFCURVE",
"500 43 OFFCURVE",
"522 60 CURVE",
"535 -4 LINE",
"420 204 LINE",
"467 160 LINE",
"468 157 OFFCURVE",
"412 102 OFFCURVE",
"323 102 CURVE SMOOTH",
"241 102 OFFCURVE",
"176 191 OFFCURVE",
"176 365 CURVE SMOOTH",
"176 498 OFFCURVE",
"228 596 OFFCURVE",
"330 596 CURVE SMOOTH",
"395 596 OFFCURVE",
"421 573 OFFCURVE",
"450 542 CURVE",
"506 647 LINE",
"479 671 OFFCURVE",
"437 710 OFFCURVE",
"329 710 CURVE SMOOTH",
"167 710 OFFCURVE",
"37 586 OFFCURVE",
"37 358 CURVE SMOOTH",
"37 104 OFFCURVE",
"173 -12 OFFCURVE",
"318 -12 CURVE SMOOTH"
);
}
);
width = 523;
}
);
leftKerningGroup = O;
rightKerningGroup = C;
unicode = 0043;
userData = {
com.typemytype.robofont.mark = (
0.6,
1,
0.628,
1
);
};
},
{
glyphname = D;
lastChange = "2018-05-28 03:16:46 +0000";
layers = (
{
anchors = (
{
name = btm;
position = "{291, 0}";
},
{
name = top;
position = "{323, 830}";
}
);
layerId = "B61D43DE-5272-4FF4-A680-608B6BF5ED9E";
paths = (
{
closed = 1;
nodes = (
"260 0 LINE",
"465 0 OFFCURVE",
"577 139 OFFCURVE",
"577 357 CURVE SMOOTH",
"577 584 OFFCURVE",
"463 697 OFFCURVE",
"261 697 CURVE",
"81 697 LINE",
"81 0 LINE"
);
},
{
closed = 1;
nodes = (
"210 618 LINE",
"191 597 LINE",
"257 597 LINE",
"401 597 OFFCURVE",
"447 480 OFFCURVE",
"447 354 CURVE SMOOTH",
"447 232 OFFCURVE",
"403 110 OFFCURVE",
"257 110 CURVE",
"193 110 LINE",
"210 88 LINE"
);
}
);
width = 601;
}
);
leftKerningGroup = H;
rightKerningGroup = O;
unicode = 0044;
},
{
glyphname = Eth;
lastChange = "2018-05-24 19:23:14 +0000";
layers = (
{
components = (
{
name = D;
transform = "{1, 0, 0, 1, -5, 0}";
}
);
layerId = "B61D43DE-5272-4FF4-A680-608B6BF5ED9E";
paths = (
{
closed = 1;
nodes = (
"333 316 LINE",
"333 401 LINE",
"16 401 LINE",
"16 316 LINE"
);
}
);
width = 593;
}
);
leftKerningGroup = H;
rightKerningGroup = O;
unicode = 00D0;
},
{
glyphname = Dcroat;
lastChange = "2018-05-24 19:23:14 +0000";
layers = (
{
components = (
{
name = D;
transform = "{1, 0, 0, 1, -5, 0}";
}
);
layerId = "B61D43DE-5272-4FF4-A680-608B6BF5ED9E";
paths = (
{
closed = 1;
nodes = (
"333 316 LINE",
"333 401 LINE",
"16 401 LINE",
"16 316 LINE"
);
}
);
width = 593;
}
);
leftKerningGroup = H;
rightKerningGroup = O;
unicode = 0110;
},
{
color = 9;
glyphname = E;
lastChange = "2018-05-28 04:46:34 +0000";
layers = (
{
anchors = (
{
name = btm;
position = "{263, 0}";
},
{
name = top;
position = "{271, 830}";
},
{
name = vslash;
position = "{256, 345}";
}
);
layerId = "B61D43DE-5272-4FF4-A680-608B6BF5ED9E";
paths = (
{
closed = 1;
nodes = (
"465 0 LINE",
"465 113 LINE",
"190 113 LINE",
"206 94 LINE",
"206 336 LINE",
"188 319 LINE",
"396 319 LINE",
"396 425 LINE",
"188 425 LINE",
"206 408 LINE",
"206 602 LINE",
"190 588 LINE",
"445 588 LINE",
"445 697 LINE",
"81 697 LINE",
"81 0 LINE"
);
}
);
width = 506;
}
);
leftKerningGroup = H;
rightKerningGroup = E;
unicode = 0045;
},
{
glyphname = Eogonek;
lastChange = "2018-05-28 03:16:46 +0000";
layers = (
{
components = (
{
name = E;
transform = "{1, 0, 0, 1, -5, 0}";
}
);
layerId = "B61D43DE-5272-4FF4-A680-608B6BF5ED9E";
paths = (
{
closed = 1;
nodes = (
"460 -68 LINE",
"506 -99 LINE",
"470 -140 OFFCURVE",
"425 -149 OFFCURVE",
"392 -149 CURVE SMOOTH",
"353 -149 OFFCURVE",
"330 -135 OFFCURVE",
"330 -101 CURVE SMOOTH",
"330 -59 OFFCURVE",
"389 -18 OFFCURVE",
"460 0 CURVE",
"407 33 LINE",
"350 6 LINE",
"255 -18 OFFCURVE",
"228 -77 OFFCURVE",
"227 -126 CURVE",
"226 -198 OFFCURVE",
"271 -240 OFFCURVE",
"376 -240 CURVE SMOOTH",
"432 -240 OFFCURVE",
"474 -224 OFFCURVE",
"486 -203 CURVE",
"460 -278 LINE"
);
}
);
width = 500;
}
);
leftKerningGroup = H;
rightKerningGroup = E;
unicode = 0118;
},
{
color = 9;
glyphname = F;
lastChange = "2018-05-28 04:46:38 +0000";
layers = (
{
anchors = (
{
name = top;
position = "{264, 830}";
}
);
layerId = "B61D43DE-5272-4FF4-A680-608B6BF5ED9E";
paths = (
{
closed = 1;
nodes = (
"212 0 LINE",
"212 307 LINE",
"194 292 LINE",
"418 292 LINE",
"418 404 LINE",
"194 404 LINE",
"212 386 LINE",
"212 605 LINE",
"196 587 LINE",
"448 587 LINE",
"448 697 LINE",
"84 697 LINE",
"84 0 LINE"
);
}
);
width = 464;
}
);
leftKerningGroup = H;
leftMetricsKey = H;
rightKerningGroup = F;
unicode = 0046;
},
{
glyphname = G;
lastChange = "2018-05-28 04:39:04 +0000";
layers = (
{
anchors = (
{
name = btm;
position = "{336, 0}";
},
{
name = top;
position = "{342, 830}";
}
);
layerId = "B61D43DE-5272-4FF4-A680-608B6BF5ED9E";
paths = (
{
closed = 1;
nodes = (
"554 -18 OFFCURVE",
"593 127 OFFCURVE",
"593 275 CURVE",
"593 374 LINE",
"329 374 LINE",
"329 264 LINE",
"518 264 LINE",
"466 297 LINE",
"467 264 LINE",
"467 153 OFFCURVE",
"427 94 OFFCURVE",
"327 94 CURVE SMOOTH",
"241 94 OFFCURVE",
"173 188 OFFCURVE",
"173 360 CURVE SMOOTH",
"173 498 OFFCURVE",
"245 596 OFFCURVE",
"346 596 CURVE SMOOTH",
"448 596 OFFCURVE",
"479 551 OFFCURVE",
"494 531 CURVE",
"549 647 LINE",
"523 672 OFFCURVE",
"478 714 OFFCURVE",
"346 714 CURVE SMOOTH",
"165 714 OFFCURVE",
"37 558 OFFCURVE",
"37 351 CURVE SMOOTH",
"37 120 OFFCURVE",
"168 -18 OFFCURVE",
"325 -18 CURVE SMOOTH"
);
}
);
width = 629;
}
);
leftKerningGroup = O;
rightKerningGroup = G;
unicode = 0047;
userData = {
com.typemytype.robofont.mark = (
0.6,
1,
0.628,
1
);
};
},
{
glyphname = H;
lastChange = "2018-05-28 04:43:14 +0000";
layers = (
{
anchors = (
{
name = btm;
position = "{326, 0}";
},
{
name = top;
position = "{328, 830}";
}
);
layerId = "B61D43DE-5272-4FF4-A680-608B6BF5ED9E";
paths = (
{
closed = 1;
nodes = (
"213 0 LINE",
"213 310 LINE",
"196 296 LINE",
"459 296 LINE",
"443 310 LINE",
"443 0 LINE",
"573 0 LINE",
"573 697 LINE",
"443 697 LINE",
"443 388 LINE",
"458 406 LINE",
"196 406 LINE",
"213 389 LINE",
"213 697 LINE",
"84 697 LINE",
"84 0 LINE"
);
}
);
width = 657;
}
);
leftKerningGroup = H;
rightKerningGroup = H;
unicode = 0048;
},
{
glyphname = Hbar;
lastChange = "2018-05-24 19:23:14 +0000";
layers = (
{
layerId = "B61D43DE-5272-4FF4-A680-608B6BF5ED9E";
paths = (
{
closed = 1;
nodes = (
"215 0 LINE",
"215 280 LINE",
"198 266 LINE",
"447 266 LINE",
"431 280 LINE",
"431 0 LINE",
"570 0 LINE",
"570 697 LINE",
"431 697 LINE",
"431 343 LINE",
"446 360 LINE",
"198 360 LINE",
"215 344 LINE",
"215 697 LINE",
"76 697 LINE",
"76 0 LINE"
);
},
{
closed = 1;
nodes = (
"631 499 LINE",
"631 583 LINE",
"14 583 LINE",
"14 499 LINE"
);
}
);
width = 646;
}
);
leftKerningGroup = H;
rightKerningGroup = H;
unicode = 0126;
},
{
color = 9;
glyphname = I;
lastChange = "2018-05-28 04:42:41 +0000";
layers = (
{
anchors = (
{
name = btm;
position = "{145, 0}";
},
{
name = top;
position = "{146, 830}";
}
);
layerId = "B61D43DE-5272-4FF4-A680-608B6BF5ED9E";
paths = (
{
closed = 1;
nodes = (
"209 0 LINE",
"209 697 LINE",
"81 697 LINE",
"81 0 LINE"
);
}
);
width = 290;
}
);
leftKerningGroup = I;
rightKerningGroup = I;
unicode = 0049;
},
{
glyphname = Iogonek;
lastChange = "2018-05-28 03:16:46 +0000";
layers = (
{
components = (
{
name = I;
}
);
layerId = "B61D43DE-5272-4FF4-A680-608B6BF5ED9E";
paths = (
{
closed = 1;
nodes = (
"241 -68 LINE",
"287 -99 LINE",
"251 -140 OFFCURVE",
"206 -149 OFFCURVE",
"173 -149 CURVE SMOOTH",
"134 -149 OFFCURVE",
"111 -135 OFFCURVE",
"111 -101 CURVE SMOOTH",
"111 -59 OFFCURVE",
"132 -18 OFFCURVE",
"203 0 CURVE",
"150 33 LINE",
"93 6 LINE",
"34 -31 OFFCURVE",
"9 -77 OFFCURVE",
"8 -126 CURVE",
"7 -198 OFFCURVE",
"70 -240 OFFCURVE",
"157 -240 CURVE SMOOTH",
"213 -240 OFFCURVE",
"255 -224 OFFCURVE",
"267 -203 CURVE",
"241 -278 LINE"
);
}
);
width = 286;
}
);
leftKerningGroup = I;
rightKerningGroup = I;
unicode = 012E;
},
{
glyphname = J;
lastChange = "2018-05-28 03:16:46 +0000";
layers = (
{
anchors = (
{
name = top;
position = "{262, 830}";
}
);
layerId = "B61D43DE-5272-4FF4-A680-608B6BF5ED9E";
paths = (
{
closed = 1;
nodes = (
"277 -15 OFFCURVE",
"327 85 OFFCURVE",
"327 209 CURVE SMOOTH",
"327 697 LINE",
"197 697 LINE",
"197 197 LINE SMOOTH",
"197 102 OFFCURVE",
"152 96 OFFCURVE",
"113 96 CURVE SMOOTH",
"87 96 OFFCURVE",
"58 111 OFFCURVE",
"41 136 CURVE",
"-7 17 LINE",
"17 0 OFFCURVE",
"83 -15 OFFCURVE",
"119 -15 CURVE SMOOTH"
);
}
);
width = 400;
}
);
leftKerningGroup = J;
rightKerningGroup = U;
unicode = 004A;
},
{
glyphname = K;
lastChange = "2018-05-28 03:16:46 +0000";
layers = (
{
anchors = (
{
name = btm;
position = "{311, 0}";
},
{
name = top;
position = "{305, 830}";
}
);
layerId = "B61D43DE-5272-4FF4-A680-608B6BF5ED9E";
paths = (
{
closed = 1;
nodes = (
"596 0 LINE",
"325 375 LINE",
"328 330 LINE",
"580 697 LINE",
"433 697 LINE",
"202 342 LINE",
"436 0 LINE"
);
},
{
closed = 1;
nodes = (
"211 0 LINE",
"211 697 LINE",
"84 697 LINE",
"84 0 LINE"
);
}
);
width = 596;
}
);
leftKerningGroup = H;
leftMetricsKey = H;
rightKerningGroup = K;
unicode = 004B;
},
{
glyphname = L;
lastChange = "2018-05-25 05:41:50 +0000";
layers = (
{
anchors = (
{
name = btm;
position = "{241, 0}";
},
{
name = car;
position = "{332, 830}";
},
{
name = top;
position = "{153, 830}";
}
);
layerId = "B61D43DE-5272-4FF4-A680-608B6BF5ED9E";
paths = (
{
closed = 1;
nodes = (
"419 0 LINE",
"419 110 LINE",
"196 110 LINE",
"211 87 LINE",
"211 697 LINE",
"84 697 LINE",
"84 0 LINE"
);
}
);
width = 445;
}
);
leftKerningGroup = H;
leftMetricsKey = H;
rightKerningGroup = L;
unicode = 004C;
},
{
glyphname = Lslash;
lastChange = "2018-05-25 05:42:26 +0000";
layers = (
{
components = (
{
name = L;
transform = "{1, 0, 0, 1, 15, 0}";
}
);
layerId = "B61D43DE-5272-4FF4-A680-608B6BF5ED9E";
paths = (
{
closed = 1;
nodes = (
"370 397 LINE",
"370 509 LINE",
"20 324 LINE",
"20 212 LINE"
);
}
);
width = 460;
}
);
leftKerningGroup = H;
rightKerningGroup = L;
rightMetricsKey = L;
unicode = 0141;
},
{
glyphname = M;
lastChange = "2018-05-28 05:10:33 +0000";
layers = (
{
anchors = (
{
name = btm;
position = "{375, 0}";
},
{
name = top;
position = "{375, 830}";
}
);
layerId = "B61D43DE-5272-4FF4-A680-608B6BF5ED9E";
paths = (
{
closed = 1;
nodes = (
"208 0 LINE",
"208 299 LINE",
"199 500 LINE",
"184 446 LINE",
"238 363 LINE",
"375 202 LINE",
"512 363 LINE",
"566 445 LINE",
"551 500 LINE",
"543 299 LINE",
"543 0 LINE",
"667 0 LINE",
"667 709 LINE",
"656 709 LINE",
"361 359 LINE",
"391 359 LINE",
"94 709 LINE",
"84 709 LINE",
"84 0 LINE"
);
}
);
width = 751;
}
);
leftKerningGroup = H;
leftMetricsKey = H;
rightKerningGroup = H;
rightMetricsKey = H;
unicode = 004D;
userData = {
com.typemytype.robofont.guides = (
{
angle = 0;
isGlobal = 0;
magnetic = 5;
x = 0;
y = 729;
},
{
angle = 90;
isGlobal = 0;
magnetic = 5;
x = 764;
y = 0;
}
);
com.typemytype.robofont.mark = (
0.6,
1,
0.628,
1
);
};
},
{
glyphname = N;
lastChange = "2018-05-25 05:40:00 +0000";
layers = (
{
anchors = (
{
name = btm;
position = "{348, 0}";
},
{
name = top;
position = "{319, 830}";
}
);
layerId = "B61D43DE-5272-4FF4-A680-608B6BF5ED9E";
paths = (
{
closed = 1;
nodes = (
"577 -14 LINE",
"577 697 LINE",
"454 697 LINE",
"454 356 LINE",
"464 189 LINE",
"524 200 LINE",
"424 325 LINE",
"95 709 LINE",
"84 709 LINE",
"84 0 LINE",
"207 0 LINE",
"207 321 LINE",
"197 504 LINE",
"131 491 LINE",
"233 365 LINE",
"567 -14 LINE"
);
}
);
width = 661;
}
);
leftKerningGroup = H;
leftMetricsKey = H;
rightKerningGroup = H;
rightMetricsKey = H;
unicode = 004E;
userData = {
com.typemytype.robofont.mark = (
0.6,
1,
0.628,
1
);
};
},
{
glyphname = Eng;
lastChange = "2018-05-28 03:16:46 +0000";
layers = (
{
anchors = (
{
name = btm;
position = "{348, 0}";
},
{
name = top;
position = "{319, 830}";
}
);
layerId = "B61D43DE-5272-4FF4-A680-608B6BF5ED9E";
paths = (
{
closed = 1;
nodes = (
"577 -14 LINE",
"577 697 LINE",
"454 697 LINE",
"454 356 LINE",
"464 189 LINE",
"524 200 LINE",
"424 325 LINE",
"95 709 LINE",
"84 709 LINE",
"84 0 LINE",
"207 0 LINE",
"207 321 LINE",
"197 504 LINE",
"131 491 LINE",
"233 365 LINE",
"567 -14 LINE"
);
},
{
closed = 1;
nodes = (
"488 -255 OFFCURVE",
"577 -184 OFFCURVE",
"577 -14 CURVE",
"461 139 LINE",
"454 70 LINE",
"454 -39 LINE SMOOTH",
"454 -130 OFFCURVE",
"412 -145 OFFCURVE",
"367 -145 CURVE SMOOTH",
"339 -145 OFFCURVE",
"297 -131 OFFCURVE",
"269 -114 CURVE",
"231 -223 LINE",
"262 -241 OFFCURVE",
"315 -255 OFFCURVE",
"389 -255 CURVE SMOOTH"
);
}
);
width = 661;
}
);
leftKerningGroup = Eng;
leftMetricsKey = N;
rightKerningGroup = Eng;
rightMetricsKey = N;
unicode = 014A;
},
{
glyphname = O;
lastChange = "2018-05-28 03:16:46 +0000";
layers = (
{
anchors = (
{
name = btm;
position = "{330, 0}";
},
{
name = top;
position = "{329, 830}";
}
);
layerId = "B61D43DE-5272-4FF4-A680-608B6BF5ED9E";
paths = (
{
closed = 1;
nodes = (
"516 -13 OFFCURVE",
"619 129 OFFCURVE",
"619 348 CURVE SMOOTH",
"619 562 OFFCURVE",
"522 709 OFFCURVE",
"327 709 CURVE SMOOTH",
"140 709 OFFCURVE",
"39 565 OFFCURVE",
"39 348 CURVE SMOOTH",
"39 129 OFFCURVE",
"141 -13 OFFCURVE",
"330 -13 CURVE SMOOTH"
);
},
{
closed = 1;
nodes = (
"236 94 OFFCURVE",
"173 176 OFFCURVE",
"173 350 CURVE SMOOTH",
"173 518 OFFCURVE",
"230 605 OFFCURVE",
"327 605 CURVE SMOOTH",
"426 605 OFFCURVE",
"486 518 OFFCURVE",
"486 351 CURVE SMOOTH",
"486 177 OFFCURVE",
"417 94 OFFCURVE",
"330 94 CURVE SMOOTH"
);
}
);
width = 658;
}
);
leftKerningGroup = O;
rightKerningGroup = O;
unicode = 004F;
userData = {
com.typemytype.robofont.mark = (
0.6,
1,
0.628,
1
);
};
},
{
glyphname = Ohorn;
lastChange = "2018-05-28 03:16:46 +0000";
layers = (
{
anchors = (
{
name = btm;
position = "{330, 0}";
},
{
name = top;
position = "{329, 830}";
}
);
components = (
{
name = O;
}
);
layerId = "B61D43DE-5272-4FF4-A680-608B6BF5ED9E";
paths = (
{
closed = 1;
nodes = (
"573 618 OFFCURVE",
"642 681 OFFCURVE",
"642 763 CURVE SMOOTH",
"642 804 OFFCURVE",
"640 819 OFFCURVE",
"635 835 CURVE",
"531 835 LINE",
"537 819 OFFCURVE",
"539 805 OFFCURVE",
"539 778 CURVE SMOOTH",
"539 721 OFFCURVE",
"505 683 OFFCURVE",
"452 683 CURVE",
"516 618 LINE"
);
}
);
width = 658;
}
);
leftKerningGroup = O;
leftMetricsKey = O;
rightKerningGroup = O;
unicode = 01A0;
},
{
glyphname = Ohornacute;
lastChange = "2018-05-24 19:23:14 +0000";
layers = (
{
components = (
{
name = acutecomb;
transform = "{1, 0, 0, 1, 329, 202}";
},
{
name = O;
}
);
layerId = "B61D43DE-5272-4FF4-A680-608B6BF5ED9E";
paths = (
{
closed = 1;
nodes = (
"573 618 OFFCURVE",
"642 681 OFFCURVE",
"642 763 CURVE SMOOTH",
"642 804 OFFCURVE",
"640 819 OFFCURVE",
"635 835 CURVE",
"531 835 LINE",
"537 819 OFFCURVE",
"539 805 OFFCURVE",
"539 778 CURVE SMOOTH",
"539 721 OFFCURVE",
"505 683 OFFCURVE",
"452 683 CURVE",
"516 618 LINE"
);
}
);
width = 658;
}
);
leftKerningGroup = O;
rightKerningGroup = O;
unicode = 1EDA;
},
{
glyphname = Ohorndotbelow;
lastChange = "2018-05-24 19:23:14 +0000";
layers = (
{
components = (
{
name = dotbelowcomb;
transform = "{1, 0, 0, 1, 330, 0}";
},
{
name = O;
}
);
layerId = "B61D43DE-5272-4FF4-A680-608B6BF5ED9E";
paths = (
{
closed = 1;
nodes = (
"573 618 OFFCURVE",
"642 681 OFFCURVE",
"642 763 CURVE SMOOTH",
"642 804 OFFCURVE",
"640 819 OFFCURVE",
"635 835 CURVE",
"531 835 LINE",
"537 819 OFFCURVE",
"539 805 OFFCURVE",
"539 778 CURVE SMOOTH",
"539 721 OFFCURVE",
"505 683 OFFCURVE",
"452 683 CURVE",
"516 618 LINE"
);
}
);
width = 658;
}
);
leftKerningGroup = O;
rightKerningGroup = O;
unicode = 1EE2;
},
{
glyphname = Ohorngrave;
lastChange = "2018-05-24 19:23:14 +0000";
layers = (
{
components = (
{
name = O;
},
{
name = gravecomb.case;
transform = "{1, 0, 0, 1, 329, 0}";
}
);
layerId = "B61D43DE-5272-4FF4-A680-608B6BF5ED9E";
paths = (
{
closed = 1;
nodes = (
"573 618 OFFCURVE",
"642 681 OFFCURVE",
"642 763 CURVE SMOOTH",
"642 804 OFFCURVE",
"640 819 OFFCURVE",
"635 835 CURVE",
"531 835 LINE",
"537 819 OFFCURVE",
"539 805 OFFCURVE",
"539 778 CURVE SMOOTH",
"539 721 OFFCURVE",
"505 683 OFFCURVE",
"452 683 CURVE",
"516 618 LINE"
);
}
);
width = 658;
}
);
leftKerningGroup = O;
rightKerningGroup = O;
unicode = 1EDC;
},
{
glyphname = Ohornhookabove;
lastChange = "2018-05-24 19:23:14 +0000";
layers = (
{
components = (
{
name = O;
},
{
name = hookabovecomb.case;
transform = "{1, 0, 0, 1, 329, 0}";
}
);
layerId = "B61D43DE-5272-4FF4-A680-608B6BF5ED9E";
paths = (
{
closed = 1;
nodes = (
"573 618 OFFCURVE",
"642 681 OFFCURVE",
"642 763 CURVE SMOOTH",
"642 804 OFFCURVE",
"640 819 OFFCURVE",
"635 835 CURVE",
"531 835 LINE",
"537 819 OFFCURVE",
"539 805 OFFCURVE",
"539 778 CURVE SMOOTH",
"539 721 OFFCURVE",
"505 683 OFFCURVE",
"452 683 CURVE",
"516 618 LINE"
);
}
);
width = 658;
}
);
leftKerningGroup = O;
rightKerningGroup = O;
unicode = 1EDE;
},
{
glyphname = Ohorntilde;
lastChange = "2018-05-24 19:23:14 +0000";
layers = (
{
components = (
{
name = O;
},
{
name = tildecomb.case;
transform = "{1, 0, 0, 1, 329, 0}";
}
);
layerId = "B61D43DE-5272-4FF4-A680-608B6BF5ED9E";
paths = (
{
closed = 1;
nodes = (
"573 618 OFFCURVE",
"642 681 OFFCURVE",
"642 763 CURVE SMOOTH",
"642 804 OFFCURVE",
"640 819 OFFCURVE",
"635 835 CURVE",
"531 835 LINE",
"537 819 OFFCURVE",
"539 805 OFFCURVE",
"539 778 CURVE SMOOTH",
"539 721 OFFCURVE",
"505 683 OFFCURVE",
"452 683 CURVE",
"516 618 LINE"
);
}
);
width = 658;
}
);
leftKerningGroup = O;
rightKerningGroup = O;
unicode = 1EE0;
},
{
glyphname = Oogonek;
lastChange = "2018-05-28 03:16:46 +0000";
layers = (
{
components = (
{
name = O;
}
);
layerId = "B61D43DE-5272-4FF4-A680-608B6BF5ED9E";
paths = (
{
closed = 1;
nodes = (
"441 -68 LINE",
"487 -99 LINE",
"451 -140 OFFCURVE",
"406 -149 OFFCURVE",
"373 -149 CURVE SMOOTH",
"334 -149 OFFCURVE",
"311 -135 OFFCURVE",
"311 -101 CURVE SMOOTH",
"311 -58 OFFCURVE",
"351 -17 OFFCURVE",
"421 0 CURVE",
"368 33 LINE",
"311 6 LINE",
"236 -18 OFFCURVE",
"209 -77 OFFCURVE",
"208 -126 CURVE",
"207 -198 OFFCURVE",
"252 -240 OFFCURVE",
"357 -240 CURVE SMOOTH",
"413 -240 OFFCURVE",
"455 -224 OFFCURVE",
"467 -203 CURVE",
"441 -278 LINE"
);
}
);
width = 658;
}
);
leftKerningGroup = Oogonek;
rightKerningGroup = Oogonek;
unicode = 01EA;
},
{
glyphname = Oslash;
lastChange = "2018-05-28 03:16:46 +0000";
layers = (
{
anchors = (
{
name = btm;
position = "{325, 0}";
},
{
name = top;
position = "{324, 830}";
}
);
layerId = "B61D43DE-5272-4FF4-A680-608B6BF5ED9E";
paths = (
{
closed = 1;
nodes = (
"199 62 LINE",
"212 98 LINE",
"480 600 LINE",
"508 618 LINE",
"570 729 LINE",
"500 765 LINE",
"440 661 LINE",
"428 619 LINE",
"173 133 LINE",
"142 119 LINE",
"58 -22 LINE",
"127 -60 LINE"
);
},
{
closed = 1;
nodes = (
"511 -13 OFFCURVE",
"614 129 OFFCURVE",
"614 348 CURVE SMOOTH",
"614 562 OFFCURVE",
"517 709 OFFCURVE",
"322 709 CURVE SMOOTH",
"135 709 OFFCURVE",
"34 565 OFFCURVE",
"34 348 CURVE SMOOTH",
"34 129 OFFCURVE",
"136 -13 OFFCURVE",
"325 -13 CURVE SMOOTH"
);
},
{
closed = 1;
nodes = (
"231 92 OFFCURVE",
"168 176 OFFCURVE",
"168 350 CURVE SMOOTH",
"168 518 OFFCURVE",
"225 607 OFFCURVE",
"322 607 CURVE SMOOTH",
"421 607 OFFCURVE",
"481 518 OFFCURVE",
"481 351 CURVE SMOOTH",
"481 177 OFFCURVE",
"412 92 OFFCURVE",
"325 92 CURVE SMOOTH"
);
}
);
width = 648;
}
);
leftKerningGroup = O;
rightKerningGroup = O;
unicode = 00D8;
},
{
glyphname = OE;
lastChange = "2018-05-28 03:16:46 +0000";
layers = (
{
anchors = (
{
name = btm;
position = "{1289, 0}";
},
{
name = top;
position = "{1288, 830}";
}
);
layerId = "B61D43DE-5272-4FF4-A680-608B6BF5ED9E";
paths = (
{
closed = 1;
nodes = (
"519 -13 OFFCURVE",
"569 99 OFFCURVE",
"569 348 CURVE SMOOTH",
"569 592 OFFCURVE",
"522 709 OFFCURVE",
"327 709 CURVE SMOOTH",
"140 709 OFFCURVE",
"39 565 OFFCURVE",
"39 348 CURVE SMOOTH",
"39 129 OFFCURVE",
"141 -13 OFFCURVE",
"330 -13 CURVE SMOOTH"
);
},
{
closed = 1;
nodes = (
"236 92 OFFCURVE",
"173 176 OFFCURVE",
"173 350 CURVE SMOOTH",
"173 518 OFFCURVE",
"230 607 OFFCURVE",
"327 607 CURVE SMOOTH",
"426 607 OFFCURVE",
"486 518 OFFCURVE",
"486 351 CURVE SMOOTH",
"486 177 OFFCURVE",
"417 92 OFFCURVE",
"330 92 CURVE SMOOTH"
);
},
{
closed = 1;
nodes = (
"871 0 LINE",
"871 110 LINE",
"586 110 LINE",
"602 91 LINE",
"602 336 LINE",
"584 319 LINE",
"802 319 LINE",
"802 425 LINE",
"584 425 LINE",
"602 408 LINE",
"602 605 LINE",
"586 591 LINE",
"851 591 LINE",
"851 697 LINE",
"490 697 LINE",
"490 0 LINE"
);
}
);
width = 912;
}
);
leftKerningGroup = O;
leftMetricsKey = O;
rightKerningGroup = E;
rightMetricsKey = E;
unicode = 0152;
userData = {
com.typemytype.robofont.mark = (
0.6,
1,
0.628,
1
);
};
},
{
glyphname = P;
lastChange = "2018-05-28 03:16:46 +0000";
layers = (
{
anchors = (
{
name = top;
position = "{302, 830}";
}
);
layerId = "B61D43DE-5272-4FF4-A680-608B6BF5ED9E";
paths = (
{
closed = 1;
nodes = (
"213 0 LINE",
"213 238 LINE",
"178 187 LINE",
"275 187 LINE",
"452 187 OFFCURVE",
"527 316 OFFCURVE",
"527 453 CURVE SMOOTH",
"527 642 OFFCURVE",
"413 697 OFFCURVE",
"271 697 CURVE SMOOTH",
"84 697 LINE",
"84 0 LINE"
);
},
{
closed = 1;
nodes = (
"213 614 LINE",
"198 596 LINE",
"263 596 LINE SMOOTH",
"363 596 OFFCURVE",
"398 548 OFFCURVE",
"398 446 CURVE SMOOTH",
"398 346 OFFCURVE",
"354 292 OFFCURVE",
"266 292 CURVE SMOOTH",
"195 292 LINE",
"213 280 LINE"
);
}
);
width = 547;
}
);
leftKerningGroup = H;
leftMetricsKey = H;
rightKerningGroup = P;
unicode = 0050;
},
{
glyphname = Thorn;
lastChange = "2018-05-25 05:37:14 +0000";
layers = (
{
layerId = "B61D43DE-5272-4FF4-A680-608B6BF5ED9E";
paths = (
{
closed = 1;
nodes = (
"213 0 LINE",
"213 167 LINE",
"152 106 LINE",
"260 106 LINE SMOOTH",
"464 106 OFFCURVE",
"540 220 OFFCURVE",
"540 348 CURVE SMOOTH",
"540 528 OFFCURVE",
"427 588 OFFCURVE",
"270 588 CURVE SMOOTH",
"152 588 LINE",
"213 527 LINE",
"213 697 LINE",
"84 697 LINE",
"84 0 LINE"
);
},
{
closed = 1;
nodes = (
"213 548 LINE",
"152 487 LINE",
"268 487 LINE SMOOTH",
"380 487 OFFCURVE",
"411 430 OFFCURVE",
"411 341 CURVE SMOOTH",
"411 254 OFFCURVE",
"375 208 OFFCURVE",
"263 208 CURVE SMOOTH",
"152 208 LINE",
"213 147 LINE"
);
}
);
width = 560;
}
);
leftKerningGroup = H;
leftMetricsKey = H;
rightKerningGroup = Thorn;
rightMetricsKey = P;
unicode = 00DE;
},
{
glyphname = Q;
lastChange = "2018-05-28 05:11:26 +0000";
layers = (
{
anchors = (
{
name = top;
position = "{347, 830}";
}
);
components = (
{
name = O;
}
);
layerId = "B61D43DE-5272-4FF4-A680-608B6BF5ED9E";
paths = (
{
closed = 1;
nodes = (
"531 -111 LINE",
"439 40 LINE",
"337 -6 LINE",
"416 -173 LINE"
);
}
);
width = 658;
}
);
leftKerningGroup = O;
rightKerningGroup = O;
unicode = 0051;
},
{
glyphname = R;
lastChange = "2018-05-28 05:07:21 +0000";
layers = (
{
anchors = (
{
name = btm;
position = "{294, 0}";
},
{
name = top;
position = "{310, 830}";
}
);
layerId = "B61D43DE-5272-4FF4-A680-608B6BF5ED9E";
paths = (
{
closed = 1;
nodes = (
"211 0 LINE",
"211 264 LINE",
"209 255 LINE",
"390 0 LINE",
"545 0 LINE",
"352 259 LINE",
"275 235 LINE",
"283 235 OFFCURVE",
"290 234 OFFCURVE",
"297 234 CURVE SMOOTH",
"470 234 OFFCURVE",
"526 369 OFFCURVE",
"526 475 CURVE SMOOTH",
"526 642 OFFCURVE",
"420 697 OFFCURVE",
"278 697 CURVE SMOOTH",
"84 697 LINE",
"84 0 LINE"
);
},
{
closed = 1;
nodes = (
"211 613 LINE",
"193 597 LINE",
"261 597 LINE SMOOTH",
"361 597 OFFCURVE",
"398 553 OFFCURVE",
"398 463 CURVE",
"398 385 OFFCURVE",
"352 315 OFFCURVE",
"264 315 CURVE",
"191 315 LINE",
"211 304 LINE"
);
}
);
width = 577;
}
);
leftKerningGroup = H;
leftMetricsKey = H;
rightKerningGroup = R;
unicode = 0052;
},
{
glyphname = S;
lastChange = "2018-05-28 03:43:16 +0000";
layers = (
{
anchors = (
{
name = btm;
position = "{259, 0}";
},
{
name = top;
position = "{269, 830}";
}
);
layerId = "B61D43DE-5272-4FF4-A680-608B6BF5ED9E";
paths = (
{
closed = 1;
nodes = (
"387 -11 OFFCURVE",
"469 58 OFFCURVE",
"469 191 CURVE SMOOTH",
"469 303 OFFCURVE",
"387 351 OFFCURVE",
"293 408 CURVE",
"237 444 OFFCURVE",
"191 470 OFFCURVE",
"191 529 CURVE SMOOTH",
"191 566 OFFCURVE",
"220 603 OFFCURVE",
"269 603 CURVE SMOOTH",
"333 603 OFFCURVE",
"374 562 OFFCURVE",
"389 542 CURVE",
"445 644 LINE",
"418 668 OFFCURVE",
"369 709 OFFCURVE",
"261 709 CURVE SMOOTH",
"133 709 OFFCURVE",
"63 624 OFFCURVE",
"61 527 CURVE",
"57 399 OFFCURVE",
"140 352 OFFCURVE",
"230 299 CURVE",
"297 258 OFFCURVE",
"338 233 OFFCURVE",
"338 180 CURVE SMOOTH",
"338 125 OFFCURVE",
"295 97 OFFCURVE",
"248 97 CURVE SMOOTH",
"180 97 OFFCURVE",
"119 141 OFFCURVE",
"96 170 CURVE",
"45 65 LINE",
"79 29 OFFCURVE",
"157 -11 OFFCURVE",
"251 -11 CURVE SMOOTH"
);
}
);
width = 508;
}
);
leftKerningGroup = S;
rightKerningGroup = S;
unicode = 0053;
},
{
glyphname = Germandbls;
lastChange = "2018-05-28 05:14:23 +0000";
layers = (
{
layerId = "B61D43DE-5272-4FF4-A680-608B6BF5ED9E";
paths = (
{
closed = 1;
nodes = (
"571 697 LINE",
"344 697 LINE SMOOTH",
"178 697 OFFCURVE",
"68 587 OFFCURVE",
"68 335 CURVE SMOOTH",
"68 0 LINE",
"194 0 LINE",
"194 346 LINE SMOOTH",
"194 478 OFFCURVE",
"231 596 OFFCURVE",
"350 596 CURVE SMOOTH",
"400 596 LINE",
"272 336 LINE",
"369 336 OFFCURVE",
"444 305 OFFCURVE",
"444 226 CURVE SMOOTH",
"444 107 OFFCURVE",
"360 102 OFFCURVE",
"296 102 CURVE SMOOTH",
"282 102 OFFCURVE",
"258 104 OFFCURVE",
"244 107 CURVE",
"241 -2 LINE",
"263 -5 OFFCURVE",
"300 -6 OFFCURVE",
"320 -6 CURVE SMOOTH",
"483 -6 OFFCURVE",
"579 80 OFFCURVE",
"579 236 CURVE SMOOTH",
"579 325 OFFCURVE",
"526 393 OFFCURVE",
"432 416 CURVE",
"577 688 LINE"
);
}
);
width = 647;
}
);
leftKerningGroup = Germandbls;
leftMetricsKey = U;
rightKerningGroup = U;
rightMetricsKey = U;
unicode = 1E9E;
},
{
color = 9;
glyphname = Schwa;
lastChange = "2018-05-28 04:45:50 +0000";
layers = (
{
anchors = (
{
name = top;
position = "{307, 830}";
}
);
layerId = "B61D43DE-5272-4FF4-A680-608B6BF5ED9E";
paths = (
{
closed = 1;
nodes = (
"486 -10 OFFCURVE",
"594 134 OFFCURVE",
"594 364 CURVE SMOOTH",
"594 579 OFFCURVE",
"486 714 OFFCURVE",
"315 714 CURVE SMOOTH",
"217 714 OFFCURVE",
"137 676 OFFCURVE",
"87 632 CURVE",
"143 529 LINE",
"164 555 OFFCURVE",
"217 603 OFFCURVE",
"299 603 CURVE SMOOTH",
"399 603 OFFCURVE",
"462 508 OFFCURVE",
"462 358 CURVE SMOOTH",
"462 195 OFFCURVE",
"406 92 OFFCURVE",
"317 92 CURVE SMOOTH",
"211 92 OFFCURVE",
"173 196 OFFCURVE",
"173 286 CURVE",
"172 314 LINE",
"107 286 LINE",
"497 286 LINE",
"497 385 LINE",
"39 385 LINE",
"39 334 LINE",
"39 129 OFFCURVE",
"128 -10 OFFCURVE",
"313 -10 CURVE SMOOTH"
);
}
);
width = 633;
}
);
leftKerningGroup = O;
leftMetricsKey = O;
rightKerningGroup = O;
rightMetricsKey = O;
unicode = 018F;
userData = {
com.typemytype.robofont.mark = (
0.6,
1,
0.628,
1
);
};
},
{
glyphname = T;
lastChange = "2018-05-28 03:27:48 +0000";
layers = (
{
anchors = (
{
name = btm;
position = "{244, 0}";
},
{
name = top;
position = "{244, 830}";
}
);
layerId = "B61D43DE-5272-4FF4-A680-608B6BF5ED9E";
paths = (
{
closed = 1;
nodes = (
"308 0 LINE",
"308 607 LINE",
"293 584 LINE",
"469 584 LINE",
"469 697 LINE",
"18 697 LINE",
"18 584 LINE",
"191 584 LINE",
"179 607 LINE",
"179 0 LINE"
);
}
);
width = 487;
}
);
leftKerningGroup = T;
rightKerningGroup = T;
unicode = 0054;
},
{
glyphname = Tbar;
lastChange = "2018-05-24 19:23:14 +0000";
layers = (
{
components = (
{
name = T;
transform = "{1, 0, 0, 1, -2, 0}";
}
);
layerId = "B61D43DE-5272-4FF4-A680-608B6BF5ED9E";
paths = (
{
closed = 1;
nodes = (
"436 316 LINE",
"436 401 LINE",
"69 401 LINE",
"69 316 LINE"
);
}
);
width = 482;
}
);
leftKerningGroup = T;
rightKerningGroup = T;
unicode = 0166;
},
{
glyphname = U;
lastChange = "2018-05-28 03:16:46 +0000";
layers = (
{
anchors = (
{
name = btm;
position = "{314, 0}";
},
{
name = top;
position = "{312, 830}";
}
);
layerId = "B61D43DE-5272-4FF4-A680-608B6BF5ED9E";
paths = (
{
closed = 1;
nodes = (
"449 -18 OFFCURVE",
"557 49 OFFCURVE",
"557 249 CURVE SMOOTH",
"557 697 LINE",
"427 697 LINE",
"427 235 LINE SMOOTH",
"427 116 OFFCURVE",
"363 90 OFFCURVE",
"314 90 CURVE SMOOTH",
"267 90 OFFCURVE",
"198 117 OFFCURVE",
"198 235 CURVE SMOOTH",
"198 697 LINE",
"68 697 LINE",
"68 249 LINE",
"68 49 OFFCURVE",
"179 -18 OFFCURVE",
"316 -18 CURVE SMOOTH"
);
}
);
width = 625;
}
);
leftKerningGroup = U;
rightKerningGroup = U;
unicode = 0055;
},
{
glyphname = Uhorn;
lastChange = "2018-05-28 03:16:46 +0000";
layers = (
{
anchors = (
{
name = btm;
position = "{316, 0}";
},
{
name = top;
position = "{314, 830}";
}
);
layerId = "B61D43DE-5272-4FF4-A680-608B6BF5ED9E";
paths = (
{
closed = 1;
nodes = (
"451 -18 OFFCURVE",
"559 49 OFFCURVE",
"559 249 CURVE SMOOTH",
"559 697 LINE",
"429 697 LINE",
"429 235 LINE SMOOTH",
"429 116 OFFCURVE",
"365 90 OFFCURVE",
"316 90 CURVE SMOOTH",
"269 90 OFFCURVE",
"200 117 OFFCURVE",
"200 235 CURVE SMOOTH",
"200 697 LINE",
"70 697 LINE",
"70 249 LINE",
"70 49 OFFCURVE",
"181 -18 OFFCURVE",
"318 -18 CURVE SMOOTH"
);
},
{
closed = 1;
nodes = (
"567 632 OFFCURVE",
"636 681 OFFCURVE",
"636 763 CURVE SMOOTH",
"636 804 OFFCURVE",
"634 819 OFFCURVE",
"629 835 CURVE",
"525 835 LINE",
"531 819 OFFCURVE",
"533 805 OFFCURVE",
"533 778 CURVE SMOOTH",
"533 721 OFFCURVE",
"499 697 OFFCURVE",
"446 697 CURVE",
"510 632 LINE"
);
}
);
width = 629;
}
);
leftKerningGroup = U;
rightKerningGroup = U;
unicode = 01AF;
},
{
glyphname = Uogonek;
lastChange = "2018-05-28 03:16:46 +0000";
layers = (
{
components = (
{
name = U;
}
);
layerId = "B61D43DE-5272-4FF4-A680-608B6BF5ED9E";
paths = (
{
closed = 1;
nodes = (
"425 -68 LINE",
"471 -99 LINE",
"435 -140 OFFCURVE",
"390 -149 OFFCURVE",
"357 -149 CURVE SMOOTH",
"318 -149 OFFCURVE",
"295 -135 OFFCURVE",
"295 -101 CURVE SMOOTH",
"295 -58 OFFCURVE",
"355 -17 OFFCURVE",
"425 0 CURVE",
"372 33 LINE",
"315 6 LINE",
"220 -18 OFFCURVE",
"193 -77 OFFCURVE",
"192 -126 CURVE",
"191 -198 OFFCURVE",
"236 -240 OFFCURVE",
"341 -240 CURVE SMOOTH",
"397 -240 OFFCURVE",
"439 -224 OFFCURVE",
"451 -203 CURVE",
"425 -278 LINE"
);
}
);
width = 625;
}
);
leftKerningGroup = U;
leftMetricsKey = U;
rightKerningGroup = U;
rightMetricsKey = U;
unicode = 0172;
},
{
glyphname = V;
lastChange = "2018-05-25 19:47:53 +0000";
layers = (
{
anchors = (
{
name = top;
position = "{274, 830}";
}
);
layerId = "B61D43DE-5272-4FF4-A680-608B6BF5ED9E";
paths = (
{
closed = 1;
nodes = (
"283 -2 LINE",
"559 697 LINE",
"422 697 LINE",
"316 390 LINE",
"258 216 LINE",
"297 216 LINE",
"239 390 LINE",
"129 697 LINE",
"-10 697 LINE",
"267 -2 LINE"
);
}
);
width = 549;
}
);
leftKerningGroup = V;
rightKerningGroup = V;
unicode = 0056;
userData = {
com.typemytype.robofont.mark = (
0.6,
1,
0.628,
1
);
};
},
{
glyphname = W;
lastChange = "2018-05-25 19:48:24 +0000";
layers = (
{
anchors = (
{
name = top;
position = "{400, 830}";
}
);
layerId = "B61D43DE-5272-4FF4-A680-608B6BF5ED9E";
paths = (
{
closed = 1;
nodes = (
"580 0 LINE",
"811 697 LINE",
"674 697 LINE",
"534 206 LINE",
"592 206 LINE",
"412 697 LINE",
"395 697 LINE",
"225 225 LINE",
"274 213 LINE",
"128 697 LINE",
"-10 697 LINE",
"223 1 LINE",
"240 1 LINE",
"418 443 LINE",
"383 443 LINE",
"564 0 LINE"
);
}
);
width = 801;
}
);
leftKerningGroup = W;
rightKerningGroup = W;
unicode = 0057;
userData = {
com.typemytype.robofont.guides = (
{
angle = 0;
isGlobal = 0;
magnetic = 5;
x = 0;
y = 615;
}
);
};
},
{
color = 9;
glyphname = X;
lastChange = "2018-05-28 04:37:59 +0000";
layers = (
{
anchors = (
{
name = top;
position = "{283, 830}";
}
);
layerId = "B61D43DE-5272-4FF4-A680-608B6BF5ED9E";
paths = (
{
closed = 1;
nodes = (
"166 0 LINE",
"291 295 LINE",
"265 295 LINE",
"400 0 LINE",
"557 0 LINE",
"361 363 LINE",
"362 331 LINE",
"552 697 LINE",
"405 697 LINE",
"272 402 LINE",
"301 402 LINE",
"163 697 LINE",
"13 697 LINE",
"205 337 LINE",
"204 380 LINE",
"10 0 LINE"
);
}
);
width = 567;
}
);
leftKerningGroup = X;
rightKerningGroup = X;
unicode = 0058;
userData = {
com.typemytype.robofont.mark = (
0.6,
1,
0.628,
1
);
};
},
{
glyphname = Y;
lastChange = "2018-05-25 19:50:17 +0000";
layers = (
{
anchors = (
{
name = btm;
position = "{272, 0}";
},
{
name = top;
position = "{282, 830}";
}
);
layerId = "B61D43DE-5272-4FF4-A680-608B6BF5ED9E";
paths = (
{
closed = 1;
nodes = (
"553 697 LINE",
"414 697 LINE",
"255 354 LINE",
"293 354 LINE",
"127 697 LINE",
"-15 697 LINE",
"272 155 LINE"
);
},
{
closed = 1;
nodes = (
"333 0 LINE",
"333 332 LINE",
"204 332 LINE",
"204 0 LINE"
);
}
);
width = 538;
}
);
leftKerningGroup = Y;
rightKerningGroup = Y;
unicode = 0059;
},
{
glyphname = Z;
lastChange = "2018-05-25 19:50:39 +0000";
layers = (
{
anchors = (
{
name = btm;
position = "{254, 0}";
},
{
name = top;
position = "{280, 830}";
}
);
layerId = "B61D43DE-5272-4FF4-A680-608B6BF5ED9E";
paths = (
{
closed = 1;
nodes = (
"483 0 LINE",
"483 108 LINE",
"152 108 LINE",
"192 44 LINE",
"496 697 LINE",
"63 697 LINE",
"63 589 LINE",
"338 589 LINE",
"333 643 LINE",
"30 0 LINE"
);
}
);
width = 524;
}
);
leftKerningGroup = Z;
rightKerningGroup = Z;
unicode = 005A;
},
{
color = 9;
glyphname = a;
lastChange = "2018-05-28 04:32:08 +0000";
layers = (
{
anchors = (
{
name = btm;
position = "{216, 0}";
},
{
name = top;
position = "{242, 830}";
}
);
layerId = "B61D43DE-5272-4FF4-A680-608B6BF5ED9E";
paths = (
{
closed = 1;
nodes = (
"235 -14 OFFCURVE",
"275 14 OFFCURVE",
"310 71 CURVE",
"319 0 LINE",
"426 0 LINE",
"426 327 LINE",
"426 438 OFFCURVE",
"385 510 OFFCURVE",
"242 510 CURVE SMOOTH",
"163 510 OFFCURVE",
"93 482 OFFCURVE",
"53 455 CURVE",
"93 359 LINE",
"116 385 OFFCURVE",
"172 405 OFFCURVE",
"221 405 CURVE SMOOTH",
"287 405 OFFCURVE",
"304 368 OFFCURVE",
"304 319 CURVE",
"305 296 LINE",
"80 296 OFFCURVE",
"35 197 OFFCURVE",
"35 136 CURVE SMOOTH",
"35 54 OFFCURVE",
"79 -14 OFFCURVE",
"171 -14 CURVE SMOOTH"
);
},
{
closed = 1;
nodes = (
"180 82 OFFCURVE",
"159 100 OFFCURVE",
"159 148 CURVE SMOOTH",
"159 203 OFFCURVE",
"226 219 OFFCURVE",
"281 219 CURVE SMOOTH",
"291 219 OFFCURVE",
"299 219 OFFCURVE",
"306 218 CURVE",
"305 147 LINE",
"285 109 OFFCURVE",
"251 82 OFFCURVE",
"221 82 CURVE SMOOTH"
);
}
);
width = 490;
}
);
leftKerningGroup = a;
rightKerningGroup = n;
unicode = 0061;
userData = {
com.typemytype.robofont.mark = (
0.6,
1,
0.628,
1
);
};
},
{
glyphname = aogonek;
lastChange = "2018-05-28 03:43:16 +0000";
layers = (
{
components = (
{
name = a;
}
);
layerId = "B61D43DE-5272-4FF4-A680-608B6BF5ED9E";
paths = (
{
closed = 1;
nodes = (
"376 -240 OFFCURVE",
"405 -234 OFFCURVE",
"425 -224 CURVE",
"425 -134 LINE",
"401 -146 OFFCURVE",
"377 -149 OFFCURVE",
"357 -149 CURVE SMOOTH",
"318 -149 OFFCURVE",
"295 -135 OFFCURVE",
"295 -101 CURVE SMOOTH",
"295 -58 OFFCURVE",
"355 -17 OFFCURVE",
"425 0 CURVE",
"372 33 LINE",
"335 7 LINE",
"238 -17 OFFCURVE",
"192 -79 OFFCURVE",
"192 -128 CURVE SMOOTH",
"192 -199 OFFCURVE",
"237 -240 OFFCURVE",
"341 -240 CURVE SMOOTH"
);
}
);
width = 490;
}
);
leftKerningGroup = a;
leftMetricsKey = a;
rightKerningGroup = n;
rightMetricsKey = a;
unicode = 0105;
},
{
color = 9;
glyphname = aringacute;
lastChange = "2018-05-28 04:50:00 +0000";
layers = (
{
anchors = (
{
name = _top;
position = "{242, 1128}";
},
{
name = top;
position = "{242, 1377}";
}
);
components = (
{
name = a;
}
);
layerId = "B61D43DE-5272-4FF4-A680-608B6BF5ED9E";
paths = (
{
closed = 1;
nodes = (
"295 823 LINE",
"390 977 LINE",
"273 977 LINE",
"205 823 LINE"
);
},
{
closed = 1;
nodes = (
"320 584 OFFCURVE",
"388 642 OFFCURVE",
"388 723 CURVE SMOOTH",
"388 805 OFFCURVE",
"320 862 OFFCURVE",
"242 862 CURVE SMOOTH",
"164 862 OFFCURVE",
"97 806 OFFCURVE",
"97 723 CURVE SMOOTH",
"97 642 OFFCURVE",
"164 584 OFFCURVE",
"242 584 CURVE SMOOTH"
);
},
{
closed = 1;
nodes = (
"206 652 OFFCURVE",
"175 675 OFFCURVE",
"175 724 CURVE SMOOTH",
"175 776 OFFCURVE",
"206 795 OFFCURVE",
"242 795 CURVE SMOOTH",
"278 795 OFFCURVE",
"310 776 OFFCURVE",
"310 724 CURVE SMOOTH",
"310 675 OFFCURVE",
"278 652 OFFCURVE",
"242 652 CURVE SMOOTH"
);
}
);
width = 490;
}
);
leftKerningGroup = a;
rightKerningGroup = n;
unicode = 01FB;
},
{
color = 9;
glyphname = ae;
lastChange = "2018-05-28 04:29:07 +0000";
layers = (
{
anchors = (
{
name = btm;
position = "{377, 0}";
},
{
name = top;
position = "{418, 830}";
}
);
layerId = "B61D43DE-5272-4FF4-A680-608B6BF5ED9E";
paths = (
{
closed = 1;
nodes = (
"721 413 OFFCURVE",
"669 510 OFFCURVE",
"520 510 CURVE SMOOTH",
"458 510 OFFCURVE",
"412 489 OFFCURVE",
"379 454 CURVE",
"355 489 OFFCURVE",
"313 510 OFFCURVE",
"242 510 CURVE SMOOTH",
"163 510 OFFCURVE",
"93 482 OFFCURVE",
"53 455 CURVE",
"93 359 LINE",
"116 385 OFFCURVE",
"172 405 OFFCURVE",
"221 405 CURVE SMOOTH",
"287 405 OFFCURVE",
"302 368 OFFCURVE",
"302 319 CURVE",
"303 296 LINE",
"78 296 OFFCURVE",
"35 197 OFFCURVE",
"35 132 CURVE SMOOTH",
"35 50 OFFCURVE",
"79 -14 OFFCURVE",
"171 -14 CURVE SMOOTH",
"224 -14 OFFCURVE",
"302 5 OFFCURVE",
"349 73 CURVE",
"379 20 OFFCURVE",
"432 -14 OFFCURVE",
"522 -14 CURVE SMOOTH",
"620 -14 OFFCURVE",
"675 15 OFFCURVE",
"702 33 CURVE",
"662 128 LINE",
"639 102 OFFCURVE",
"584 81 OFFCURVE",
"543 81 CURVE SMOOTH",
"462 81 OFFCURVE",
"423 129 OFFCURVE",
"419 208 CURVE",
"720 208 LINE",
"721 223 OFFCURVE",
"721 241 OFFCURVE",
"721 255 CURVE SMOOTH"
);
},
{
closed = 1;
nodes = (
"422 357 OFFCURVE",
"455 415 OFFCURVE",
"523 415 CURVE SMOOTH",
"564 415 OFFCURVE",
"595 392 OFFCURVE",
"595 287 CURVE",
"418 286 LINE"
);
},
{
closed = 1;
nodes = (
"283 109 OFFCURVE",
"251 82 OFFCURVE",
"221 82 CURVE SMOOTH",
"180 82 OFFCURVE",
"156 100 OFFCURVE",
"156 148 CURVE SMOOTH",
"156 203 OFFCURVE",
"226 219 OFFCURVE",
"281 219 CURVE SMOOTH",
"289 219 OFFCURVE",
"297 219 OFFCURVE",
"304 218 CURVE",
"303 147 LINE"
);
}
);
width = 765;
}
);
leftKerningGroup = a;
leftMetricsKey = a;
rightKerningGroup = e;
rightMetricsKey = e;
unicode = 00E6;
userData = {
com.typemytype.robofont.mark = (
0.6,
1,
0.628,
1
);
};
},
{
glyphname = b;
lastChange = "2018-05-28 03:16:46 +0000";
layers = (
{
anchors = (
{
name = top;
position = "{374, 830}";
}
);
layerId = "B61D43DE-5272-4FF4-A680-608B6BF5ED9E";
paths = (
{
closed = 1;
nodes = (
"432 -14 OFFCURVE",
"522 72 OFFCURVE",
"522 251 CURVE SMOOTH",
"522 422 OFFCURVE",
"457 511 OFFCURVE",
"333 511 CURVE SMOOTH",
"276 511 OFFCURVE",
"204 480 OFFCURVE",
"188 412 CURVE",
"198 482 LINE",
"198 760 LINE",
"78 760 LINE",
"78 0 LINE",
"188 0 LINE",
"188 38 LINE",
"188 99 LINE",
"203 39 OFFCURVE",
"250 -14 OFFCURVE",
"322 -14 CURVE SMOOTH"
);
},
{
closed = 1;
nodes = (
"235 85 OFFCURVE",
"200 149 OFFCURVE",
"200 243 CURVE SMOOTH",
"200 337 OFFCURVE",
"233 409 OFFCURVE",
"295 409 CURVE SMOOTH",
"346 409 OFFCURVE",
"391 363 OFFCURVE",
"391 251 CURVE SMOOTH",
"391 130 OFFCURVE",
"342 85 OFFCURVE",
"293 85 CURVE SMOOTH"
);
}
);
width = 566;
}
);
leftKerningGroup = h;
leftMetricsKey = h;
rightKerningGroup = o;
unicode = 0062;
userData = {
com.typemytype.robofont.mark = (
0.6,
1,
0.628,
1
);
};
},
{
glyphname = c;
lastChange = "2018-05-28 03:16:46 +0000";
layers = (
{
anchors = (
{
name = btm;
position = "{255, 0}";
},
{
name = top;
position = "{271, 830}";
}
);
layerId = "B61D43DE-5272-4FF4-A680-608B6BF5ED9E";
paths = (
{
closed = 1;
nodes = (
"354 -12 OFFCURVE",
"411 24 OFFCURVE",
"430 44 CURVE",
"392 131 LINE",
"373 110 OFFCURVE",
"335 92 OFFCURVE",
"287 92 CURVE SMOOTH",
"214 92 OFFCURVE",
"180 145 OFFCURVE",
"180 246 CURVE SMOOTH",
"180 337 OFFCURVE",
"213 403 OFFCURVE",
"287 403 CURVE SMOOTH",
"321 403 OFFCURVE",
"354 389 OFFCURVE",
"383 359 CURVE",
"424 465 LINE",
"380 501 OFFCURVE",
"337 510 OFFCURVE",
"280 510 CURVE SMOOTH",
"126 510 OFFCURVE",
"46 385 OFFCURVE",
"46 247 CURVE SMOOTH",
"46 108 OFFCURVE",
"114 -12 OFFCURVE",
"273 -12 CURVE SMOOTH"
);
}
);
width = 451;
}
);
leftKerningGroup = o;
rightKerningGroup = c;
unicode = 0063;
},
{
color = 9;
glyphname = d;
lastChange = "2018-05-28 04:36:23 +0000";
layers = (
{
anchors = (
{
name = btm;
position = "{279, 0}";
},
{
name = car;
position = "{591, 830}";
},
{
name = top;
position = "{201, 830}";
}
);
layerId = "B61D43DE-5272-4FF4-A680-608B6BF5ED9E";
paths = (
{
closed = 1;
nodes = (
"314 -14 OFFCURVE",
"360 33 OFFCURVE",
"378 102 CURVE",
"378 0 LINE",
"487 0 LINE",
"487 760 LINE",
"369 760 LINE",
"369 485 LINE",
"378 412 LINE",
"364 475 OFFCURVE",
"314 510 OFFCURVE",
"246 510 CURVE SMOOTH",
"113 510 OFFCURVE",
"46 412 OFFCURVE",
"46 248 CURVE SMOOTH",
"46 90 OFFCURVE",
"123 -14 OFFCURVE",
"244 -14 CURVE SMOOTH"
);
},
{
closed = 1;
nodes = (
"218 85 OFFCURVE",
"177 138 OFFCURVE",
"177 248 CURVE SMOOTH",
"177 371 OFFCURVE",
"229 409 OFFCURVE",
"276 409 CURVE SMOOTH",
"337 409 OFFCURVE",
"366 350 OFFCURVE",
"366 246 CURVE SMOOTH",
"366 132 OFFCURVE",
"321 85 OFFCURVE",
"273 85 CURVE SMOOTH"
);
}
);
width = 565;
}
);
leftKerningGroup = o;
rightKerningGroup = l;
unicode = 0064;
userData = {
com.typemytype.robofont.mark = (
0.6,
1,
0.628,
1
);
};
},
{
color = 9;
glyphname = eth;
lastChange = "2018-05-28 04:26:57 +0000";
layers = (
{
anchors = (
{
name = btm;
position = "{279, 0}";
}
);
layerId = "B61D43DE-5272-4FF4-A680-608B6BF5ED9E";
paths = (
{
closed = 1;
nodes = (
"373 -10 OFFCURVE",
"493 69 OFFCURVE",
"493 281 CURVE SMOOTH",
"493 447 OFFCURVE",
"435 610 OFFCURVE",
"297 693 CURVE",
"256 715 LINE",
"215 734 OFFCURVE",
"167 751 OFFCURVE",
"137 753 CURVE",
"106 668 LINE",
"128 667 OFFCURVE",
"170 651 OFFCURVE",
"206 631 CURVE",
"241 610 LINE",
"300 565 OFFCURVE",
"361 480 OFFCURVE",
"369 390 CURVE",
"360 427 OFFCURVE",
"323 475 OFFCURVE",
"251 475 CURVE SMOOTH",
"125 475 OFFCURVE",
"46 374 OFFCURVE",
"46 230 CURVE SMOOTH",
"46 91 OFFCURVE",
"145 -10 OFFCURVE",
"262 -10 CURVE SMOOTH"
);
},
{
closed = 1;
nodes = (
"214 82 OFFCURVE",
"172 143 OFFCURVE",
"172 236 CURVE SMOOTH",
"172 319 OFFCURVE",
"207 387 OFFCURVE",
"270 387 CURVE SMOOTH",
"327 387 OFFCURVE",
"357 347 OFFCURVE",
"366 305 CURVE",
"369 286 OFFCURVE",
"369 262 OFFCURVE",
"369 238 CURVE SMOOTH",
"369 150 OFFCURVE",
"332 82 OFFCURVE",
"270 82 CURVE SMOOTH"
);
},
{
closed = 1;
nodes = (
"282 626 LINE",
"311 657 LINE",
"374 740 LINE",
"301 789 LINE",
"237 709 LINE",
"206 666 LINE",
"140 581 LINE",
"213 534 LINE"
);
}
);
width = 540;
}
);
leftKerningGroup = eth;
rightKerningGroup = eth;
unicode = 00F0;
userData = {
com.typemytype.robofont.mark = (
0.6,
1,
0.628,
1
);
};
},
{
glyphname = dcroat;
lastChange = "2018-05-24 19:23:14 +0000";
layers = (
{
components = (
{
name = d;
}
);
layerId = "B61D43DE-5272-4FF4-A680-608B6BF5ED9E";
paths = (
{
closed = 1;
nodes = (
"556 588 LINE",
"556 679 LINE",
"280 679 LINE",
"280 588 LINE"
);
}
);
width = 568;
}
);
leftKerningGroup = o;
rightKerningGroup = l;
unicode = 0111;
},
{
glyphname = e;
lastChange = "2018-05-28 04:36:28 +0000";
layers = (
{
anchors = (
{
name = btm;
position = "{286, 0}";
},
{
name = top;
position = "{279, 830}";
}
);
layerId = "B61D43DE-5272-4FF4-A680-608B6BF5ED9E";
paths = (
{
closed = 1;
nodes = (
"376 -13 OFFCURVE",
"431 16 OFFCURVE",
"458 34 CURVE",
"418 129 LINE",
"395 103 OFFCURVE",
"340 82 OFFCURVE",
"299 82 CURVE",
"218 82 OFFCURVE",
"179 129 OFFCURVE",
"175 208 CURVE",
"476 208 LINE",
"477 223 OFFCURVE",
"477 241 OFFCURVE",
"477 255 CURVE SMOOTH",
"477 413 OFFCURVE",
"425 510 OFFCURVE",
"276 510 CURVE SMOOTH",
"126 510 OFFCURVE",
"44 388 OFFCURVE",
"44 243 CURVE SMOOTH",
"44 105 OFFCURVE",
"110 -13 OFFCURVE",
"278 -13 CURVE SMOOTH"
);
},
{
closed = 1;
nodes = (
"178 357 OFFCURVE",
"211 415 OFFCURVE",
"279 415 CURVE SMOOTH",
"320 415 OFFCURVE",
"351 392 OFFCURVE",
"351 287 CURVE",
"174 286 LINE"
);
}
);
width = 521;
}
);
leftKerningGroup = o;
leftMetricsKey = o;
rightKerningGroup = e;
unicode = 0065;
userData = {
com.typemytype.robofont.guides = (
{
angle = 0;
isGlobal = 0;
magnetic = 5;
x = 0;
y = 869;
}
);
};
},
{
glyphname = eogonek;
lastChange = "2018-05-28 04:36:35 +0000";
layers = (
{
components = (
{
name = e;
}
);
layerId = "B61D43DE-5272-4FF4-A680-608B6BF5ED9E";
paths = (
{
closed = 1;
nodes = (
"372 -240 OFFCURVE",
"401 -234 OFFCURVE",
"421 -224 CURVE",
"421 -134 LINE",
"397 -146 OFFCURVE",
"373 -149 OFFCURVE",
"353 -149 CURVE SMOOTH",
"314 -149 OFFCURVE",
"291 -135 OFFCURVE",
"291 -101 CURVE SMOOTH",
"291 -58 OFFCURVE",
"345 -7 OFFCURVE",
"415 10 CURVE",
"362 43 LINE",
"330 20 LINE",
"233 -4 OFFCURVE",
"188 -80 OFFCURVE",
"188 -128 CURVE SMOOTH",
"188 -199 OFFCURVE",
"233 -240 OFFCURVE",
"337 -240 CURVE SMOOTH"
);
}
);
width = 521;
}
);
leftKerningGroup = o;
leftMetricsKey = e;
rightKerningGroup = e;
rightMetricsKey = e;
unicode = 0119;
},
{
glyphname = schwa;
lastChange = "2018-05-28 03:16:46 +0000";
layers = (
{
anchors = (
{
name = bottom;
position = "{242, -332}";
},
{
name = btm;
position = "{235, 498}";
},
{
name = top;
position = "{279, 830}";
}
);
layerId = "B61D43DE-5272-4FF4-A680-608B6BF5ED9E";
paths = (
{
closed = 1;
nodes = (
"395 -12 OFFCURVE",
"477 110 OFFCURVE",
"477 255 CURVE SMOOTH",
"477 393 OFFCURVE",
"411 516 OFFCURVE",
"243 516 CURVE SMOOTH",
"145 516 OFFCURVE",
"90 487 OFFCURVE",
"63 469 CURVE",
"103 374 LINE",
"126 400 OFFCURVE",
"181 421 OFFCURVE",
"222 421 CURVE",
"303 421 OFFCURVE",
"342 369 OFFCURVE",
"346 290 CURVE",
"45 290 LINE",
"44 275 OFFCURVE",
"44 257 OFFCURVE",
"44 243 CURVE SMOOTH",
"44 85 OFFCURVE",
"96 -12 OFFCURVE",
"245 -12 CURVE SMOOTH"
);
},
{
closed = 1;
nodes = (
"201 83 OFFCURVE",
"170 106 OFFCURVE",
"170 211 CURVE",
"347 212 LINE",
"343 141 OFFCURVE",
"310 83 OFFCURVE",
"242 83 CURVE SMOOTH"
);
}
);
width = 525;
}
);
leftKerningGroup = o;
rightKerningGroup = o;
unicode = 0259;
userData = {
com.typemytype.robofont.guides = (
{
angle = 0;
isGlobal = 0;
magnetic = 5;
x = 0;
y = 869;
}
);
};
},
{
color = 9;
glyphname = f;
lastChange = "2018-05-28 05:01:36 +0000";
layers = (
{
anchors = (
{
name = top;
position = "{193, 1030}";
}
);
layerId = "B61D43DE-5272-4FF4-A680-608B6BF5ED9E";
paths = (
{
closed = 1;
nodes = (
"202 0 LINE",
"202 393 LINE",
"323 393 LINE",
"323 498 LINE",
"202 498 LINE",
"202 593 LINE SMOOTH",
"202 660 OFFCURVE",
"244 673 OFFCURVE",
"281 673 CURVE SMOOTH",
"302 673 OFFCURVE",
"338 664 OFFCURVE",
"353 645 CURVE",
"353 754 LINE",
"347 760 OFFCURVE",
"315 776 OFFCURVE",
"250 776 CURVE SMOOTH",
"183 776 OFFCURVE",
"81 744 OFFCURVE",
"81 590 CURVE SMOOTH",
"81 498 LINE",
"14 498 LINE",
"14 393 LINE",
"81 393 LINE",
"81 0 LINE"
);
}
);
width = 349;
}
);
leftKerningGroup = f;
rightKerningGroup = f;
unicode = 0066;
userData = {
com.typemytype.robofont.mark = (
0.6,
1,
0.628,
1
);
};
},
{
color = 9;
glyphname = g;
lastChange = "2018-05-28 04:45:33 +0000";
layers = (
{
anchors = (
{
name = top;
position = "{288, 830}";
}
);
layerId = "B61D43DE-5272-4FF4-A680-608B6BF5ED9E";
paths = (
{
closed = 1;
nodes = (
"90 -180 LINE",
"120 -198 OFFCURVE",
"181 -224 OFFCURVE",
"262 -224 CURVE SMOOTH",
"412 -224 OFFCURVE",
"495 -129 OFFCURVE",
"495 24 CURVE SMOOTH",
"495 498 LINE",
"392 498 LINE",
"378 412 LINE",
"369 460 OFFCURVE",
"327 510 OFFCURVE",
"245 510 CURVE SMOOTH",
"135 510 OFFCURVE",
"46 432 OFFCURVE",
"46 248 CURVE SMOOTH",
"46 67 OFFCURVE",
"135 -6 OFFCURVE",
"248 -6 CURVE SMOOTH",
"329 -6 OFFCURVE",
"364 51 OFFCURVE",
"378 102 CURVE",
"378 24 LINE",
"376 -92 OFFCURVE",
"335 -115 OFFCURVE",
"250 -115 CURVE SMOOTH",
"204 -115 OFFCURVE",
"170 -101 OFFCURVE",
"146 -86 CURVE"
);
},
{
closed = 1;
nodes = (
"216 92 OFFCURVE",
"177 141 OFFCURVE",
"177 249 CURVE SMOOTH",
"177 368 OFFCURVE",
"226 409 OFFCURVE",
"277 409 CURVE SMOOTH",
"338 409 OFFCURVE",
"366 345 OFFCURVE",
"366 250 CURVE SMOOTH",
"366 149 OFFCURVE",
"331 92 OFFCURVE",
"273 92 CURVE SMOOTH"
);
}
);
width = 561;
}
);
leftKerningGroup = o;
leftMetricsKey = d;
rightKerningGroup = g;
unicode = 0067;
},
{
glyphname = h;
lastChange = "2018-05-26 22:40:15 +0000";
layers = (
{
anchors = (
{
name = btm;
position = "{282, 0}";
},
{
name = top;
position = "{308, 872}";
}
);
layerId = "B61D43DE-5272-4FF4-A680-608B6BF5ED9E";
paths = (
{
closed = 1;
nodes = (
"201 0 LINE",
"201 316 LINE SMOOTH",
"201 371 OFFCURVE",
"244 409 OFFCURVE",
"291 409 CURVE SMOOTH",
"338 409 OFFCURVE",
"366 371 OFFCURVE",
"366 316 CURVE SMOOTH",
"366 0 LINE",
"494 0 LINE",
"494 329 LINE SMOOTH",
"494 442 OFFCURVE",
"445 510 OFFCURVE",
"345 510 CURVE SMOOTH",
"247 510 OFFCURVE",
"201 455 OFFCURVE",
"178 408 CURVE",
"192 388 LINE",
"196 510 LINE",
"196 762 LINE",
"78 762 LINE",
"78 0 LINE"
);
}
);
width = 572;
}
);
leftKerningGroup = h;
rightKerningGroup = n;
unicode = 0068;
},
{
glyphname = hbar;
lastChange = "2018-05-24 19:23:14 +0000";
layers = (
{
components = (
{
name = h;
}
);
layerId = "B61D43DE-5272-4FF4-A680-608B6BF5ED9E";
paths = (
{
closed = 1;
nodes = (
"294 588 LINE",
"294 679 LINE",
"18 679 LINE",
"18 588 LINE"
);
}
);
width = 572;
}
);
leftKerningGroup = h;
rightKerningGroup = n;
rightMetricsKey = h;
unicode = 0127;
},
{
glyphname = i;
lastChange = "2018-05-26 22:40:39 +0000";
layers = (
{
anchors = (
{
name = _top;
position = "{140, 831}";
},
{
name = btm;
position = "{143, 0}";
}
);
layerId = "B61D43DE-5272-4FF4-A680-608B6BF5ED9E";
paths = (
{
closed = 1;
nodes = (
"206 0 LINE",
"206 498 LINE",
"74 498 LINE",
"74 0 LINE"
);
},
{
closed = 1;
nodes = (
"210 579 LINE",
"210 712 LINE",
"70 712 LINE",
"70 579 LINE"
);
}
);
width = 280;
}
);
leftKerningGroup = i;
rightKerningGroup = i;
unicode = 0069;
},
{
glyphname = idotless;
lastChange = "2018-05-25 05:28:47 +0000";
layers = (
{
anchors = (
{
name = btm;
position = "{142, 0}";
},
{
name = top;
position = "{140, 830}";
}
);
layerId = "B61D43DE-5272-4FF4-A680-608B6BF5ED9E";
paths = (
{
closed = 1;
nodes = (
"206 0 LINE",
"206 498 LINE",
"74 498 LINE",
"74 0 LINE"
);
}
);
width = 280;
}
);
leftKerningGroup = i;
rightKerningGroup = i;
unicode = 0131;
},
{
glyphname = iogonek;
lastChange = "2018-05-28 03:16:46 +0000";
layers = (
{
components = (
{
name = idotless;
},
{
name = dotaccentcomb;
transform = "{1, 0, 0, 1, 140, 2}";
}
);
layerId = "B61D43DE-5272-4FF4-A680-608B6BF5ED9E";
paths = (
{
closed = 1;
nodes = (
"241 -68 LINE",
"287 -99 LINE",
"251 -140 OFFCURVE",
"206 -149 OFFCURVE",
"173 -149 CURVE SMOOTH",
"134 -149 OFFCURVE",
"111 -135 OFFCURVE",
"111 -101 CURVE SMOOTH",
"111 -59 OFFCURVE",
"132 -18 OFFCURVE",
"203 0 CURVE",
"150 33 LINE",
"93 6 LINE",
"14 -31 OFFCURVE",
"-1 -77 OFFCURVE",
"-2 -126 CURVE",
"-3 -198 OFFCURVE",
"52 -250 OFFCURVE",
"157 -250 CURVE SMOOTH",
"213 -250 OFFCURVE",
"255 -234 OFFCURVE",
"267 -213 CURVE",
"241 -288 LINE"
);
}
);
width = 285;
}
);
leftKerningGroup = i;
rightKerningGroup = i;
unicode = 012F;
},
{
glyphname = j;
lastChange = "2018-05-28 05:02:57 +0000";
layers = (
{
anchors = (
{
name = _top;
position = "{141, 830}";
},
{
name = top;
position = "{137, 832}";
}
);
layerId = "B61D43DE-5272-4FF4-A680-608B6BF5ED9E";
paths = (
{
closed = 1;
nodes = (
"143 -244 OFFCURVE",
"199 -192 OFFCURVE",
"202 -63 CURVE",
"202 498 LINE",
"76 498 LINE",
"76 -58 LINE",
"76 -124 OFFCURVE",
"49 -173 OFFCURVE",
"7 -174 CURVE",
"50 -250 LINE"
);
},
{
closed = 1;
nodes = (
"211 579 LINE",
"211 712 LINE",
"71 712 LINE",
"71 579 LINE"
);
}
);
width = 278;
}
);
leftKerningGroup = j;
rightKerningGroup = j;
unicode = 006A;
},
{
color = 9;
glyphname = jdotless;
lastChange = "2018-05-28 05:01:25 +0000";
layers = (
{
anchors = (
{
name = top;
position = "{138, 832}";
}
);
layerId = "B61D43DE-5272-4FF4-A680-608B6BF5ED9E";
paths = (
{
closed = 1;
nodes = (
"143 -244 OFFCURVE",
"199 -192 OFFCURVE",
"202 -63 CURVE",
"202 498 LINE",
"78 498 LINE",
"78 -58 LINE",
"78 -124 OFFCURVE",
"49 -173 OFFCURVE",
"7 -174 CURVE",
"50 -250 LINE"
);
}
);
width = 281;
}
);
leftKerningGroup = j;
rightKerningGroup = j;
unicode = 0237;
},
{
glyphname = k;
lastChange = "2018-05-28 04:32:33 +0000";
layers = (
{
anchors = (
{
name = btm;
position = "{264, 0}";
},
{
name = top;
position = "{291, 830}";
}
);
layerId = "B61D43DE-5272-4FF4-A680-608B6BF5ED9E";
paths = (
{
closed = 1;
nodes = (
"196 0 LINE",
"196 119 LINE",
"192 241 LINE",
"353 0 LINE",
"504 0 LINE",
"313 269 LINE",
"487 498 LINE",
"345 498 LINE",
"192 270 LINE",
"196 387 LINE",
"196 760 LINE",
"78 760 LINE",
"78 0 LINE"
);
}
);
width = 507;
}
);
leftKerningGroup = h;
leftMetricsKey = h;
rightKerningGroup = k;
unicode = 006B;
userData = {
com.typemytype.robofont.mark = (
0.6,
1,
0.628,
1
);
};
},
{
glyphname = kgreenlandic;
lastChange = "2018-05-28 04:32:41 +0000";
layers = (
{
anchors = (
{
name = btm;
position = "{287, -83}";
},
{
name = top;
position = "{287, 830}";
}
);
layerId = "B61D43DE-5272-4FF4-A680-608B6BF5ED9E";
paths = (
{
closed = 1;
nodes = (
"195 0 LINE",
"195 113 LINE",
"191 235 LINE",
"353 0 LINE",
"504 0 LINE",
"309 269 LINE",
"483 498 LINE",
"341 498 LINE",
"191 276 LINE",
"195 387 LINE",
"195 498 LINE",
"74 498 LINE",
"74 0 LINE"
);
}
);
width = 507;
}
);
leftKerningGroup = h;
leftMetricsKey = n;
rightKerningGroup = k;
rightMetricsKey = k;
unicode = 0138;
userData = {
com.typemytype.robofont.mark = (
0.6,
1,
0.628,
1
);
};
},
{
glyphname = l;
lastChange = "2018-05-25 15:11:51 +0000";
layers = (
{
anchors = (
{
name = btm;
position = "{132, 0}";
},
{
name = car;
position = "{320, 830}";
},
{
name = top;
position = "{157, 900}";
}
);
layerId = "B61D43DE-5272-4FF4-A680-608B6BF5ED9E";
paths = (
{
closed = 1;
nodes = (
"198 0 LINE",
"198 760 LINE",
"76 760 LINE",
"76 0 LINE"
);
}
);
width = 274;
}
);
leftKerningGroup = h;
rightKerningGroup = l;
unicode = 006C;
},
{
glyphname = ldot;
lastChange = "2018-05-24 19:23:14 +0000";
layers = (
{
components = (
{
name = l;
}
);
layerId = "B61D43DE-5272-4FF4-A680-608B6BF5ED9E";
paths = (
{
closed = 1;
nodes = (
"445 314 LINE",
"445 443 LINE",
"332 443 LINE",
"332 314 LINE"
);
}
);
width = 505;
}
);
leftKerningGroup = h;
rightKerningGroup = l;
rightMetricsKey = periodcentered.loclCAT.case;
unicode = 0140;
},
{
color = 9;
glyphname = lslash;
lastChange = "2018-05-28 05:06:56 +0000";
layers = (
{
components = (
{
name = l;
transform = "{1, 0, 0, 1, 8, 0}";
}
);
layerId = "B61D43DE-5272-4FF4-A680-608B6BF5ED9E";
paths = (
{
closed = 1;
nodes = (
"292 395 LINE",
"292 506 LINE",
"10 344 LINE",
"10 233 LINE"
);
}
);
width = 302;
}
);
leftKerningGroup = lslash;
rightKerningGroup = lslash;
unicode = 0142;
},
{
glyphname = m;
lastChange = "2018-05-28 03:16:46 +0000";
layers = (
{
anchors = (
{
name = btm;
position = "{428, 0}";
},
{
name = top;
position = "{442, 830}";
}
);
layerId = "B61D43DE-5272-4FF4-A680-608B6BF5ED9E";
paths = (
{
closed = 1;
nodes = (
"202 0 LINE",
"202 316 LINE SMOOTH",
"202 371 OFFCURVE",
"242 411 OFFCURVE",
"290 411 CURVE SMOOTH",
"337 411 OFFCURVE",
"362 371 OFFCURVE",
"362 316 CURVE SMOOTH",
"362 0 LINE",
"490 0 LINE",
"490 326 LINE SMOOTH",
"490 440 OFFCURVE",
"440 510 OFFCURVE",
"339 510 CURVE SMOOTH",
"246 510 OFFCURVE",
"202 455 OFFCURVE",
"178 408 CURVE",
"194 388 LINE",
"189 498 LINE",
"74 498 LINE",
"74 0 LINE"
);
},
{
closed = 1;
nodes = (
"777 0 LINE",
"777 329 LINE SMOOTH",
"777 442 OFFCURVE",
"728 510 OFFCURVE",
"628 510 CURVE SMOOTH",
"535 510 OFFCURVE",
"491 458 OFFCURVE",
"467 413 CURVE",
"464 370 LINE",
"490 316 LINE",
"490 371 OFFCURVE",
"535 409 OFFCURVE",
"582 409 CURVE SMOOTH",
"630 409 OFFCURVE",
"650 371 OFFCURVE",
"650 316 CURVE SMOOTH",
"650 0 LINE"
);
}
);
width = 847;
}
);
leftKerningGroup = n;
leftMetricsKey = n;
rightKerningGroup = n;
rightMetricsKey = n;
unicode = 006D;
},
{
glyphname = n;
lastChange = "2018-05-26 22:34:34 +0000";
layers = (
{
anchors = (
{
name = btm;
position = "{284, 0}";
},
{
name = top;
position = "{294, 830}";
}
);
layerId = "B61D43DE-5272-4FF4-A680-608B6BF5ED9E";
paths = (
{
closed = 1;
nodes = (
"202 0 LINE",
"202 318 LINE SMOOTH",
"202 373 OFFCURVE",
"243 411 OFFCURVE",
"290 411 CURVE SMOOTH",
"338 411 OFFCURVE",
"361 373 OFFCURVE",
"361 318 CURVE SMOOTH",
"361 0 LINE",
"489 0 LINE",
"489 329 LINE SMOOTH",
"489 442 OFFCURVE",
"440 510 OFFCURVE",
"339 510 CURVE SMOOTH",
"247 510 OFFCURVE",
"202 455 OFFCURVE",
"178 408 CURVE",
"194 388 LINE",
"190 498 LINE",
"74 498 LINE",
"74 0 LINE"
);
}
);
width = 559;
}
);
leftKerningGroup = n;
rightKerningGroup = n;
unicode = 006E;
},
{
glyphname = eng;
lastChange = "2018-05-28 03:16:46 +0000";
layers = (
{
anchors = (
{
name = btm;
position = "{284, 0}";
},
{
name = top;
position = "{294, 830}";
}
);
layerId = "B61D43DE-5272-4FF4-A680-608B6BF5ED9E";
paths = (
{
closed = 1;
nodes = (
"430 -244 OFFCURVE",
"486 -192 OFFCURVE",
"489 -63 CURVE",
"489 329 LINE SMOOTH",
"489 442 OFFCURVE",
"440 510 OFFCURVE",
"339 510 CURVE SMOOTH",
"263 510 OFFCURVE",
"219 472 OFFCURVE",
"192 433 CURVE",
"190 498 LINE",
"74 498 LINE",
"74 0 LINE",
"202 0 LINE",
"202 318 LINE SMOOTH",
"202 373 OFFCURVE",
"243 411 OFFCURVE",
"290 411 CURVE SMOOTH",
"338 411 OFFCURVE",
"361 373 OFFCURVE",
"361 318 CURVE SMOOTH",
"361 -58 LINE SMOOTH",
"361 -124 OFFCURVE",
"336 -173 OFFCURVE",
"294 -174 CURVE",
"337 -250 LINE"
);
}
);
width = 559;
}
);
leftKerningGroup = n;
leftMetricsKey = n;
rightKerningGroup = j;
rightMetricsKey = n;
unicode = 014B;
},
{
color = 9;
glyphname = o;
lastChange = "2018-05-28 04:36:17 +0000";
layers = (
{
anchors = (
{
name = btm;
position = "{276, 0}";
},
{
name = top;
position = "{274, 830}";
}
);
layerId = "B61D43DE-5272-4FF4-A680-608B6BF5ED9E";
paths = (
{
closed = 1;
nodes = (
"421 -10 OFFCURVE",
"504 92 OFFCURVE",
"504 250 CURVE SMOOTH",
"504 408 OFFCURVE",
"425 510 OFFCURVE",
"278 510 CURVE SMOOTH",
"131 510 OFFCURVE",
"44 414 OFFCURVE",
"44 250 CURVE SMOOTH",
"44 87 OFFCURVE",
"127 -10 OFFCURVE",
"274 -10 CURVE SMOOTH"
);
},
{
closed = 1;
nodes = (
"213 90 OFFCURVE",
"179 135 OFFCURVE",
"179 250 CURVE SMOOTH",
"179 365 OFFCURVE",
"213 411 OFFCURVE",
"276 411 CURVE SMOOTH",
"338 411 OFFCURVE",
"369 356 OFFCURVE",
"369 250 CURVE SMOOTH",
"369 144 OFFCURVE",
"338 90 OFFCURVE",
"276 90 CURVE SMOOTH"
);
}
);
width = 548;
}
);
leftKerningGroup = o;
rightKerningGroup = o;
unicode = 006F;
},
{
glyphname = ohorn;
lastChange = "2018-05-28 04:35:58 +0000";
layers = (
{
anchors = (
{
name = btm;
position = "{278, 0}";
},
{
name = top;
position = "{275, 830}";
}
);
components = (
{
name = o;
}
);
layerId = "B61D43DE-5272-4FF4-A680-608B6BF5ED9E";
paths = (
{
closed = 1;
nodes = (
"498 425 OFFCURVE",
"560 474 OFFCURVE",
"560 535 CURVE SMOOTH",
"560 576 OFFCURVE",
"558 591 OFFCURVE",
"553 607 CURVE",
"454 607 LINE",
"460 591 OFFCURVE",
"462 584 OFFCURVE",
"462 557 CURVE SMOOTH",
"462 510 OFFCURVE",
"435 487 OFFCURVE",
"376 487 CURVE",
"440 425 LINE"
);
}
);
width = 556;
}
);
leftKerningGroup = o;
leftMetricsKey = o;
rightKerningGroup = o;
unicode = 01A1;
},
{
glyphname = ohornacute;
lastChange = "2018-05-25 05:27:09 +0000";
layers = (
{
components = (
{
name = o;
},
{
name = acutecomb;
transform = "{1, 0, 0, 1, 275, 0}";
}
);
layerId = "B61D43DE-5272-4FF4-A680-608B6BF5ED9E";
paths = (
{
closed = 1;
nodes = (
"498 425 OFFCURVE",
"560 474 OFFCURVE",
"560 535 CURVE SMOOTH",
"560 576 OFFCURVE",
"558 591 OFFCURVE",
"553 607 CURVE",
"454 607 LINE",
"460 591 OFFCURVE",
"462 584 OFFCURVE",
"462 557 CURVE SMOOTH",
"462 510 OFFCURVE",
"435 487 OFFCURVE",
"376 487 CURVE",
"440 425 LINE"
);
}
);
width = 556;
}
);
leftKerningGroup = o;
rightKerningGroup = o;
unicode = 1EDB;
},
{
glyphname = ohorndotbelow;
lastChange = "2018-05-25 05:27:09 +0000";
layers = (
{
components = (
{
name = o;
},
{
name = dotbelowcomb;
transform = "{1, 0, 0, 1, 278, 0}";
}
);
layerId = "B61D43DE-5272-4FF4-A680-608B6BF5ED9E";
paths = (
{
closed = 1;
nodes = (
"498 425 OFFCURVE",
"560 474 OFFCURVE",
"560 535 CURVE SMOOTH",
"560 576 OFFCURVE",
"558 591 OFFCURVE",
"553 607 CURVE",
"454 607 LINE",
"460 591 OFFCURVE",
"462 584 OFFCURVE",
"462 557 CURVE SMOOTH",
"462 510 OFFCURVE",
"435 487 OFFCURVE",
"376 487 CURVE",
"440 425 LINE"
);
}
);
width = 556;
}
);
leftKerningGroup = o;
rightKerningGroup = o;
unicode = 1EE3;
},
{
glyphname = ohorngrave;
lastChange = "2018-05-25 05:27:09 +0000";
layers = (
{
components = (
{
name = o;
},
{
name = gravecomb;
transform = "{1, 0, 0, 1, 275, 0}";
}
);
layerId = "B61D43DE-5272-4FF4-A680-608B6BF5ED9E";
paths = (
{
closed = 1;
nodes = (
"498 425 OFFCURVE",
"560 474 OFFCURVE",
"560 535 CURVE SMOOTH",
"560 576 OFFCURVE",
"558 591 OFFCURVE",
"553 607 CURVE",
"454 607 LINE",
"460 591 OFFCURVE",
"462 584 OFFCURVE",
"462 557 CURVE SMOOTH",
"462 510 OFFCURVE",
"435 487 OFFCURVE",
"376 487 CURVE",
"440 425 LINE"
);
}
);
width = 556;
}
);
leftKerningGroup = o;
rightKerningGroup = o;
unicode = 1EDD;
},
{
glyphname = ohornhookabove;
lastChange = "2018-05-25 15:22:17 +0000";
layers = (
{
components = (
{
name = o;
},
{
name = hookabovecomb;
transform = "{1, 0, 0, 1, 275, 0}";
}
);
layerId = "B61D43DE-5272-4FF4-A680-608B6BF5ED9E";
paths = (
{
closed = 1;
nodes = (
"498 425 OFFCURVE",
"560 474 OFFCURVE",
"560 535 CURVE SMOOTH",
"560 576 OFFCURVE",
"558 591 OFFCURVE",
"553 607 CURVE",
"454 607 LINE",
"460 591 OFFCURVE",
"462 584 OFFCURVE",
"462 557 CURVE SMOOTH",
"462 510 OFFCURVE",
"435 487 OFFCURVE",
"376 487 CURVE",
"440 425 LINE"
);
}
);
width = 556;
}
);
leftKerningGroup = o;
rightKerningGroup = o;
unicode = 1EDF;
},
{
glyphname = ohorntilde;
lastChange = "2018-05-25 05:27:09 +0000";
layers = (
{
components = (
{
name = o;
},
{
name = tildecomb;
transform = "{1, 0, 0, 1, 275, 0}";
}
);
layerId = "B61D43DE-5272-4FF4-A680-608B6BF5ED9E";
paths = (
{
closed = 1;
nodes = (
"498 425 OFFCURVE",
"560 474 OFFCURVE",
"560 535 CURVE SMOOTH",
"560 576 OFFCURVE",
"558 591 OFFCURVE",
"553 607 CURVE",
"454 607 LINE",
"460 591 OFFCURVE",
"462 584 OFFCURVE",
"462 557 CURVE SMOOTH",
"462 510 OFFCURVE",
"435 487 OFFCURVE",
"376 487 CURVE",
"440 425 LINE"
);
}
);
width = 556;
}
);
leftKerningGroup = o;
rightKerningGroup = o;
unicode = 1EE1;
},
{
glyphname = oogonek;
lastChange = "2018-05-28 03:43:16 +0000";
layers = (
{
anchors = (
{
name = btm;
position = "{0, 0}";
}
);
components = (
{
name = o;
}
);
layerId = "B61D43DE-5272-4FF4-A680-608B6BF5ED9E";
paths = (
{
closed = 1;
nodes = (
"332 -240 OFFCURVE",
"361 -234 OFFCURVE",
"381 -224 CURVE",
"381 -134 LINE",
"357 -146 OFFCURVE",
"333 -149 OFFCURVE",
"313 -149 CURVE SMOOTH",
"274 -149 OFFCURVE",
"251 -135 OFFCURVE",
"251 -101 CURVE SMOOTH",
"251 -58 OFFCURVE",
"305 -7 OFFCURVE",
"375 10 CURVE",
"322 43 LINE",
"290 20 LINE",
"193 -4 OFFCURVE",
"148 -80 OFFCURVE",
"148 -128 CURVE SMOOTH",
"148 -199 OFFCURVE",
"193 -240 OFFCURVE",
"297 -240 CURVE SMOOTH"
);
}
);
width = 556;
}
);
leftKerningGroup = o;
rightKerningGroup = o;
unicode = 01EB;
},
{
glyphname = oslash;
lastChange = "2018-05-28 03:16:46 +0000";
layers = (
{
components = (
{
name = o;
transform = "{1, 0, 0, 1, -1, 0}";
}
);
layerId = "B61D43DE-5272-4FF4-A680-608B6BF5ED9E";
paths = (
{
closed = 1;
nodes = (
"187 62 LINE",
"201 88 LINE",
"394 395 LINE",
"429 412 LINE",
"500 524 LINE",
"441 562 LINE",
"372 456 LINE",
"346 414 LINE",
"170 123 LINE",
"139 119 LINE",
"49 -21 LINE",
"108 -61 LINE"
);
}
);
width = 553;
}
);
leftKerningGroup = o;
rightKerningGroup = o;
unicode = 00F8;
},
{
glyphname = oslashacute;
lastChange = "2018-05-24 19:35:44 +0000";
layers = (
{
components = (
{
name = o;
transform = "{1, 0, 0, 1, -1, 0}";
},
{
name = acutecomb;
transform = "{1, 0, 0, 1, 275, 0}";
}
);
layerId = "B61D43DE-5272-4FF4-A680-608B6BF5ED9E";
paths = (
{
closed = 1;
nodes = (
"187 62 LINE",
"201 88 LINE",
"394 395 LINE",
"429 412 LINE",
"500 524 LINE",
"441 562 LINE",
"372 456 LINE",
"346 414 LINE",
"170 123 LINE",
"139 119 LINE",
"49 -21 LINE",
"108 -61 LINE"
);
}
);
width = 553;
}
);
leftKerningGroup = o;
rightKerningGroup = o;
unicode = 01FF;
},
{
glyphname = oe;
lastChange = "2018-05-28 04:36:10 +0000";
layers = (
{
anchors = (
{
name = btm;
position = "{842, 0}";
},
{
name = top;
position = "{835, 830}";
}
);
layerId = "B61D43DE-5272-4FF4-A680-608B6BF5ED9E";
paths = (
{
closed = 1;
nodes = (
"421 -10 OFFCURVE",
"469 117 OFFCURVE",
"469 250 CURVE SMOOTH",
"469 404 OFFCURVE",
"425 510 OFFCURVE",
"278 510 CURVE SMOOTH",
"131 510 OFFCURVE",
"44 414 OFFCURVE",
"44 250 CURVE SMOOTH",
"44 87 OFFCURVE",
"127 -10 OFFCURVE",
"274 -10 CURVE SMOOTH"
);
},
{
closed = 1;
nodes = (
"213 90 OFFCURVE",
"176 135 OFFCURVE",
"176 250 CURVE SMOOTH",
"176 365 OFFCURVE",
"213 411 OFFCURVE",
"276 411 CURVE SMOOTH",
"338 411 OFFCURVE",
"369 356 OFFCURVE",
"369 250 CURVE SMOOTH",
"369 144 OFFCURVE",
"338 90 OFFCURVE",
"276 90 CURVE SMOOTH"
);
},
{
closed = 1;
nodes = (
"705 -11 OFFCURVE",
"760 18 OFFCURVE",
"787 36 CURVE",
"747 131 LINE",
"724 105 OFFCURVE",
"669 84 OFFCURVE",
"628 84 CURVE",
"547 84 OFFCURVE",
"508 129 OFFCURVE",
"504 208 CURVE",
"805 208 LINE",
"806 223 OFFCURVE",
"806 241 OFFCURVE",
"806 255 CURVE SMOOTH",
"806 413 OFFCURVE",
"754 510 OFFCURVE",
"605 510 CURVE SMOOTH",
"455 510 OFFCURVE",
"392 388 OFFCURVE",
"392 243 CURVE SMOOTH",
"392 105 OFFCURVE",
"439 -11 OFFCURVE",
"607 -11 CURVE SMOOTH"
);
},
{
closed = 1;
nodes = (
"507 357 OFFCURVE",
"540 415 OFFCURVE",
"608 415 CURVE SMOOTH",
"649 415 OFFCURVE",
"680 392 OFFCURVE",
"680 287 CURVE",
"503 286 LINE"
);
}
);
width = 850;
}
);
leftKerningGroup = o;
leftMetricsKey = o;
rightKerningGroup = e;
rightMetricsKey = e;
unicode = 0153;
userData = {
com.typemytype.robofont.mark = (
0.6,
1,
0.628,
1
);
};
},
{
glyphname = p;
lastChange = "2018-05-28 03:16:46 +0000";
layers = (
{
anchors = (
{
name = top;
position = "{324, 830}";
}
);
layerId = "B61D43DE-5272-4FF4-A680-608B6BF5ED9E";
paths = (
{
closed = 1;
nodes = (
"199 -218 LINE",
"199 5 LINE",
"187 99 LINE",
"203 40 OFFCURVE",
"247 -14 OFFCURVE",
"321 -14 CURVE SMOOTH",
"440 -14 OFFCURVE",
"521 82 OFFCURVE",
"521 256 CURVE SMOOTH",
"521 411 OFFCURVE",
"463 511 OFFCURVE",
"331 511 CURVE SMOOTH",
"263 511 OFFCURVE",
"199 469 OFFCURVE",
"187 412 CURVE",
"197 482 LINE",
"197 498 LINE",
"78 498 LINE",
"78 -218 LINE"
);
},
{
closed = 1;
nodes = (
"234 85 OFFCURVE",
"199 149 OFFCURVE",
"199 243 CURVE SMOOTH",
"199 337 OFFCURVE",
"232 409 OFFCURVE",
"294 409 CURVE SMOOTH",
"345 409 OFFCURVE",
"390 363 OFFCURVE",
"390 251 CURVE SMOOTH",
"390 130 OFFCURVE",
"340 85 OFFCURVE",
"292 85 CURVE SMOOTH"
);
}
);
width = 564;
}
);
leftKerningGroup = p;
rightKerningGroup = o;
unicode = 0070;
userData = {
com.typemytype.robofont.mark = (
0.6,
1,
0.628,
1
);
};
},
{
glyphname = thorn;
lastChange = "2018-05-28 03:16:46 +0000";
layers = (
{
anchors = (
{
name = top;
position = "{307, 830}";
}
);
layerId = "B61D43DE-5272-4FF4-A680-608B6BF5ED9E";
paths = (
{
closed = 1;
nodes = (
"199 -218 LINE",
"199 5 LINE",
"189 99 LINE",
"205 40 OFFCURVE",
"249 -14 OFFCURVE",
"323 -14 CURVE SMOOTH",
"442 -14 OFFCURVE",
"521 82 OFFCURVE",
"521 256 CURVE SMOOTH",
"521 411 OFFCURVE",
"465 511 OFFCURVE",
"333 511 CURVE SMOOTH",
"265 511 OFFCURVE",
"200 469 OFFCURVE",
"189 412 CURVE",
"198 482 LINE",
"198 760 LINE",
"78 760 LINE",
"78 -218 LINE"
);
},
{
closed = 1;
nodes = (
"236 85 OFFCURVE",
"201 149 OFFCURVE",
"201 243 CURVE SMOOTH",
"201 337 OFFCURVE",
"234 409 OFFCURVE",
"296 409 CURVE SMOOTH",
"347 409 OFFCURVE",
"390 363 OFFCURVE",
"390 251 CURVE SMOOTH",
"390 130 OFFCURVE",
"342 85 OFFCURVE",
"294 85 CURVE SMOOTH"
);
}
);
width = 565;
}
);
leftKerningGroup = thorn;
leftMetricsKey = h;
rightKerningGroup = o;
rightMetricsKey = b;
unicode = 00FE;
userData = {
com.typemytype.robofont.mark = (
0.6,
1,
0.628,
1
);
};
},
{
glyphname = q;
lastChange = "2018-05-28 03:16:46 +0000";
layers = (
{
anchors = (
{
name = top;
position = "{273, 830}";
}
);
layerId = "B61D43DE-5272-4FF4-A680-608B6BF5ED9E";
paths = (
{
closed = 1;
nodes = (
"491 -218 LINE",
"491 498 LINE",
"378 498 LINE",
"378 412 LINE",
"366 467 OFFCURVE",
"322 510 OFFCURVE",
"248 510 CURVE SMOOTH",
"132 510 OFFCURVE",
"46 433 OFFCURVE",
"46 248 CURVE SMOOTH",
"46 82 OFFCURVE",
"130 -14 OFFCURVE",
"241 -14 CURVE SMOOTH",
"303 -14 OFFCURVE",
"359 24 OFFCURVE",
"378 102 CURVE",
"368 5 LINE",
"368 -218 LINE"
);
},
{
closed = 1;
nodes = (
"218 85 OFFCURVE",
"177 138 OFFCURVE",
"177 248 CURVE SMOOTH",
"177 371 OFFCURVE",
"229 409 OFFCURVE",
"276 409 CURVE SMOOTH",
"337 409 OFFCURVE",
"366 350 OFFCURVE",
"366 246 CURVE SMOOTH",
"366 132 OFFCURVE",
"321 85 OFFCURVE",
"273 85 CURVE SMOOTH"
);
}
);
width = 567;
}
);
leftKerningGroup = o;
rightKerningGroup = q;
unicode = 0071;
userData = {
com.typemytype.robofont.mark = (
0.6,
1,
0.628,
1
);
};
},
{
glyphname = r;
lastChange = "2018-05-24 19:23:14 +0000";
layers = (
{
anchors = (
{
name = btm;
position = "{141, 0}";
},
{
name = top;
position = "{218, 830}";
}
);
layerId = "B61D43DE-5272-4FF4-A680-608B6BF5ED9E";
paths = (
{
closed = 1;
nodes = (
"194 0 LINE",
"194 300 LINE SMOOTH",
"194 321 OFFCURVE",
"228 381 OFFCURVE",
"305 381 CURVE SMOOTH",
"336 381 OFFCURVE",
"343 376 OFFCURVE",
"354 365 CURVE",
"392 541 LINE",
"414 473 LINE",
"392 495 OFFCURVE",
"371 504 OFFCURVE",
"336 504 CURVE SMOOTH",
"249 504 OFFCURVE",
"207 444 OFFCURVE",
"192 410 CURVE",
"186 498 LINE",
"69 498 LINE",
"69 0 LINE"
);
}
);
width = 382;
}
);
leftKerningGroup = n;
rightKerningGroup = r;
unicode = 0072;
},
{
glyphname = s;
lastChange = "2018-05-28 03:16:46 +0000";
layers = (
{
anchors = (
{
name = btm;
position = "{209, 0}";
},
{
name = top;
position = "{231, 830}";
}
);
layerId = "B61D43DE-5272-4FF4-A680-608B6BF5ED9E";
paths = (
{
closed = 1;
nodes = (
"348 -9 OFFCURVE",
"401 66 OFFCURVE",
"401 148 CURVE SMOOTH",
"401 217 OFFCURVE",
"351 261 OFFCURVE",
"279 291 CURVE SMOOTH",
"221 315 OFFCURVE",
"171 332 OFFCURVE",
"171 369 CURVE SMOOTH",
"171 398 OFFCURVE",
"188 412 OFFCURVE",
"239 412 CURVE SMOOTH",
"285 412 OFFCURVE",
"327 390 OFFCURVE",
"353 370 CURVE",
"387 460 LINE",
"369 478 OFFCURVE",
"312 508 OFFCURVE",
"235 508 CURVE SMOOTH",
"114 508 OFFCURVE",
"46 449 OFFCURVE",
"46 359 CURVE SMOOTH",
"46 266 OFFCURVE",
"126 234 OFFCURVE",
"177 210 CURVE SMOOTH",
"239 181 OFFCURVE",
"277 164 OFFCURVE",
"277 133 CURVE SMOOTH",
"277 110 OFFCURVE",
"260 89 OFFCURVE",
"213 89 CURVE SMOOTH",
"152 89 OFFCURVE",
"106 118 OFFCURVE",
"77 142 CURVE",
"40 47 LINE",
"55 29 OFFCURVE",
"101 -9 OFFCURVE",
"210 -9 CURVE SMOOTH"
);
}
);
width = 437;
}
);
leftKerningGroup = s;
rightKerningGroup = s;
unicode = 0073;
},
{
color = 9;
glyphname = germandbls;
lastChange = "2018-05-28 04:34:57 +0000";
layers = (
{
layerId = "B61D43DE-5272-4FF4-A680-608B6BF5ED9E";
paths = (
{
closed = 1;
nodes = (
"511 -8 OFFCURVE",
"554 113 OFFCURVE",
"554 234 CURVE SMOOTH",
"554 347 OFFCURVE",
"493 427 OFFCURVE",
"373 427 CURVE",
"373 418 LINE",
"450 418 OFFCURVE",
"498 498 OFFCURVE",
"498 592 CURVE SMOOTH",
"498 694 OFFCURVE",
"448 776 OFFCURVE",
"300 776 CURVE SMOOTH",
"205 776 OFFCURVE",
"73 709 OFFCURVE",
"73 544 CURVE SMOOTH",
"73 0 LINE",
"199 0 LINE",
"199 554 LINE SMOOTH",
"199 601 OFFCURVE",
"223 678 OFFCURVE",
"294 678 CURVE SMOOTH",
"334 678 OFFCURVE",
"374 663 OFFCURVE",
"374 584 CURVE SMOOTH",
"374 466 OFFCURVE",
"318 449 OFFCURVE",
"276 449 CURVE",
"277 356 LINE",
"394 356 OFFCURVE",
"418 305 OFFCURVE",
"418 222 CURVE SMOOTH",
"418 141 OFFCURVE",
"394 95 OFFCURVE",
"332 95 CURVE SMOOTH",
"306 95 OFFCURVE",
"276 105 OFFCURVE",
"272 106 CURVE",
"283 6 LINE",
"307 -8 OFFCURVE",
"333 -8 OFFCURVE",
"348 -8 CURVE SMOOTH"
);
},
{
closed = 1;
nodes = (
"93 394 LINE",
"93 394 OFFCURVE",
"93 498 OFFCURVE",
"93 498 CURVE",
"22 498 LINE",
"22 394 LINE"
);
}
);
width = 594;
}
);
leftKerningGroup = h;
rightKerningGroup = germandbls;
unicode = 00DF;
userData = {
com.typemytype.robofont.mark = (
0.6,
1,
0.628,
1
);
};
},
{
glyphname = t;
lastChange = "2018-05-28 04:37:13 +0000";
layers = (
{
anchors = (
{
name = btm;
position = "{210, 0}";
},
{
name = car;
position = "{331, 830}";
},
{
name = top;
position = "{152, 945}";
}
);
layerId = "B61D43DE-5272-4FF4-A680-608B6BF5ED9E";
paths = (
{
closed = 1;
nodes = (
"271 -15 OFFCURVE",
"339 0 OFFCURVE",
"370 22 CURVE",
"346 123 LINE",
"327 107 OFFCURVE",
"290 88 OFFCURVE",
"261 88 CURVE SMOOTH",
"232 88 OFFCURVE",
"215 107 OFFCURVE",
"215 165 CURVE SMOOTH",
"215 393 LINE",
"338 393 LINE",
"338 498 LINE",
"215 498 LINE",
"215 650 LINE",
"99 603 LINE",
"92 498 LINE",
"29 498 LINE",
"29 393 LINE",
"92 393 LINE",
"92 162 LINE SMOOTH",
"92 43 OFFCURVE",
"125 -15 OFFCURVE",
"238 -15 CURVE SMOOTH"
);
}
);
width = 389;
}
);
leftKerningGroup = t;
rightKerningGroup = t;
unicode = 0074;
},
{
glyphname = tbar;
lastChange = "2018-05-25 15:23:39 +0000";
layers = (
{
components = (
{
name = t;
transform = "{1, 0, 0, 1, -2, 0}";
}
);
layerId = "B61D43DE-5272-4FF4-A680-608B6BF5ED9E";
paths = (
{
closed = 1;
nodes = (
"332 214 LINE",
"332 319 LINE",
"23 319 LINE",
"23 214 LINE"
);
}
);
width = 384;
}
);
leftKerningGroup = t;
rightKerningGroup = t;
unicode = 0167;
},
{
glyphname = u;
lastChange = "2018-05-28 04:39:46 +0000";
layers = (
{
anchors = (
{
name = btm;
position = "{281, 0}";
},
{
name = top;
position = "{274, 830}";
}
);
layerId = "B61D43DE-5272-4FF4-A680-608B6BF5ED9E";
paths = (
{
closed = 1;
nodes = (
"305 -12 OFFCURVE",
"344 43 OFFCURVE",
"368 90 CURVE",
"352 110 LINE",
"356 0 LINE",
"469 0 LINE",
"469 498 LINE",
"344 498 LINE",
"344 180 LINE SMOOTH",
"344 125 OFFCURVE",
"308 87 OFFCURVE",
"261 87 CURVE SMOOTH",
"213 87 OFFCURVE",
"195 125 OFFCURVE",
"195 180 CURVE SMOOTH",
"195 498 LINE",
"70 498 LINE",
"70 169 LINE SMOOTH",
"70 56 OFFCURVE",
"116 -12 OFFCURVE",
"217 -12 CURVE SMOOTH"
);
}
);
width = 543;
}
);
leftKerningGroup = u;
rightKerningGroup = u;
unicode = 0075;
},
{
glyphname = uhorn;
lastChange = "2018-05-28 03:16:46 +0000";
layers = (
{
anchors = (
{
name = btm;
position = "{283, 0}";
},
{
name = top;
position = "{276, 830}";
}
);
layerId = "B61D43DE-5272-4FF4-A680-608B6BF5ED9E";
paths = (
{
closed = 1;
nodes = (
"310 -12 OFFCURVE",
"354 43 OFFCURVE",
"378 90 CURVE",
"362 110 LINE",
"366 0 LINE",
"479 0 LINE",
"479 498 LINE",
"354 498 LINE",
"354 180 LINE SMOOTH",
"354 125 OFFCURVE",
"313 87 OFFCURVE",
"266 87 CURVE SMOOTH",
"218 87 OFFCURVE",
"195 125 OFFCURVE",
"195 180 CURVE SMOOTH",
"195 498 LINE",
"70 498 LINE",
"70 169 LINE SMOOTH",
"70 56 OFFCURVE",
"116 -12 OFFCURVE",
"217 -12 CURVE SMOOTH"
);
},
{
closed = 1;
nodes = (
"493 443 OFFCURVE",
"568 474 OFFCURVE",
"568 535 CURVE SMOOTH",
"568 576 OFFCURVE",
"566 591 OFFCURVE",
"561 607 CURVE",
"462 607 LINE",
"468 591 OFFCURVE",
"470 584 OFFCURVE",
"470 557 CURVE SMOOTH",
"470 510 OFFCURVE",
"429 498 OFFCURVE",
"380 498 CURVE",
"444 443 LINE"
);
}
);
width = 568;
}
);
leftKerningGroup = u;
rightKerningGroup = u;
unicode = 01B0;
},
{
glyphname = uogonek;
lastChange = "2018-05-28 03:43:16 +0000";
layers = (
{
components = (
{
name = u;
}
);
layerId = "B61D43DE-5272-4FF4-A680-608B6BF5ED9E";
paths = (
{
closed = 1;
nodes = (
"427 -240 OFFCURVE",
"456 -234 OFFCURVE",
"476 -224 CURVE",
"476 -134 LINE",
"452 -146 OFFCURVE",
"428 -149 OFFCURVE",
"408 -149 CURVE SMOOTH",
"369 -149 OFFCURVE",
"346 -135 OFFCURVE",
"346 -101 CURVE SMOOTH",
"346 -58 OFFCURVE",
"406 -17 OFFCURVE",
"476 0 CURVE",
"423 33 LINE",
"386 10 LINE",
"289 -14 OFFCURVE",
"243 -79 OFFCURVE",
"243 -128 CURVE SMOOTH",
"243 -199 OFFCURVE",
"288 -240 OFFCURVE",
"392 -240 CURVE SMOOTH"
);
}
);
width = 553;
}
);
leftKerningGroup = u;
rightKerningGroup = u;
unicode = 0173;
},
{
glyphname = v;
lastChange = "2018-05-28 04:30:46 +0000";
layers = (
{
anchors = (
{
name = top;
position = "{235, 830}";
}
);
layerId = "B61D43DE-5272-4FF4-A680-608B6BF5ED9E";
paths = (
{
closed = 1;
nodes = (
"285 0 LINE",
"477 498 LINE",
"345 498 LINE",
"262 249 LINE",
"242 167 LINE",
"220 249 LINE",
"134 498 LINE",
"-6 498 LINE",
"196 0 LINE"
);
}
);
width = 471;
}
);
leftKerningGroup = v;
rightKerningGroup = v;
unicode = 0076;
},
{
glyphname = w;
lastChange = "2018-05-28 04:30:29 +0000";
layers = (
{
anchors = (
{
name = top;
position = "{358, 830}";
}
);
layerId = "B61D43DE-5272-4FF4-A680-608B6BF5ED9E";
paths = (
{
closed = 1;
nodes = (
"270 0 LINE",
"344 271 LINE",
"359 352 LINE",
"375 271 LINE",
"456 0 LINE",
"557 0 LINE",
"714 498 LINE",
"590 498 LINE",
"532 261 LINE",
"510 156 LINE",
"486 261 LINE",
"417 498 LINE",
"311 498 LINE",
"246 261 LINE",
"224 156 LINE",
"200 261 LINE",
"140 498 LINE",
"11 498 LINE",
"170 0 LINE"
);
}
);
width = 714;
}
);
leftKerningGroup = w;
rightKerningGroup = w;
unicode = 0077;
userData = {
com.typemytype.robofont.guides = (
{
angle = 0;
isGlobal = 0;
magnetic = 5;
x = 0;
y = 554;
},
{
angle = 90;
isGlobal = 0;
magnetic = 5;
x = -66;
y = 0;
}
);
com.typemytype.robofont.mark = (
0.6,
1,
0.628,
1
);
};
},
{
glyphname = x;
lastChange = "2018-05-26 22:55:26 +0000";
layers = (
{
anchors = (
{
name = top;
position = "{235, 830}";
}
);
layerId = "B61D43DE-5272-4FF4-A680-608B6BF5ED9E";
paths = (
{
closed = 1;
nodes = (
"150 0 LINE",
"212 134 LINE",
"230 179 LINE",
"252 134 LINE",
"324 0 LINE",
"465 0 LINE",
"357 190 LINE",
"321 250 LINE",
"357 313 LINE",
"457 498 LINE",
"324 498 LINE",
"265 372 LINE",
"239 314 LINE",
"214 372 LINE",
"154 498 LINE",
"12 498 LINE",
"114 309 LINE",
"152 245 LINE",
"115 184 LINE",
"12 0 LINE"
);
}
);
width = 475;
}
);
leftKerningGroup = x;
rightKerningGroup = x;
unicode = 0078;
userData = {
com.typemytype.robofont.guides = (
{
angle = 90;
isGlobal = 0;
magnetic = 5;
x = 233;
y = 0;
},
{
angle = 90;
isGlobal = 0;
magnetic = 5;
x = 731;
y = 0;
}
);
};
},
{
color = 9;
glyphname = y;
lastChange = "2018-05-28 05:06:23 +0000";
layers = (
{
anchors = (
{
name = btm;
position = "{396, 0}";
},
{
name = top;
position = "{237, 830}";
}
);
layerId = "B61D43DE-5272-4FF4-A680-608B6BF5ED9E";
paths = (
{
closed = 1;
nodes = (
"229 -189 LINE",
"483 498 LINE",
"352 498 LINE",
"277 276 LINE",
"245 161 LINE",
"213 276 LINE",
"139 498 LINE",
"0 498 LINE",
"187 34 LINE",
"106 -189 LINE"
);
}
);
width = 477;
}
);
leftKerningGroup = y;
rightKerningGroup = y;
unicode = 0079;
},
{
glyphname = z;
lastChange = "2018-05-26 22:56:10 +0000";
layers = (
{
anchors = (
{
name = btm;
position = "{218, 0}";
},
{
name = top;
position = "{243, 830}";
}
);
layerId = "B61D43DE-5272-4FF4-A680-608B6BF5ED9E";
paths = (
{
closed = 1;
nodes = (
"411 0 LINE",
"411 91 LINE",
"168 91 LINE",
"183 49 LINE",
"431 498 LINE",
"55 498 LINE",
"55 403 LINE",
"266 403 LINE",
"266 452 LINE",
"13 0 LINE"
);
}
);
width = 444;
}
);
leftKerningGroup = z;
rightKerningGroup = z;
unicode = 007A;
},
{
color = 9;
glyphname = a.ss01;
lastChange = "2018-05-28 05:16:20 +0000";
layers = (
{
anchors = (
{
name = btm;
position = "{277, 0}";
},
{
name = top;
position = "{281, 830}";
}
);
layerId = "B61D43DE-5272-4FF4-A680-608B6BF5ED9E";
paths = (
{
closed = 1;
nodes = (
"308 -14 OFFCURVE",
"352 27 OFFCURVE",
"372 102 CURVE",
"372 0 LINE",
"488 0 LINE",
"488 498 LINE",
"372 498 LINE",
"372 492 OFFCURVE",
"372 419 OFFCURVE",
"372 412 CURVE",
"358 475 OFFCURVE",
"309 510 OFFCURVE",
"240 510 CURVE SMOOTH",
"107 510 OFFCURVE",
"44 402 OFFCURVE",
"44 248 CURVE SMOOTH",
"44 90 OFFCURVE",
"120 -14 OFFCURVE",
"242 -14 CURVE SMOOTH"
);
},
{
closed = 1;
nodes = (
"216 85 OFFCURVE",
"175 138 OFFCURVE",
"175 248 CURVE SMOOTH",
"175 371 OFFCURVE",
"227 409 OFFCURVE",
"274 409 CURVE SMOOTH",
"335 409 OFFCURVE",
"364 350 OFFCURVE",
"364 246 CURVE SMOOTH",
"364 132 OFFCURVE",
"319 85 OFFCURVE",
"271 85 CURVE SMOOTH"
);
}
);
width = 562;
}
);
leftKerningGroup = o;
leftMetricsKey = o;
rightKerningGroup = n;
},
{
glyphname = aogonek.ss01;
lastChange = "2018-05-28 03:43:16 +0000";
layers = (
{
components = (
{
name = a.ss01;
}
);
layerId = "B61D43DE-5272-4FF4-A680-608B6BF5ED9E";
paths = (
{
closed = 1;
nodes = (
"447 -240 OFFCURVE",
"476 -234 OFFCURVE",
"496 -224 CURVE",
"496 -134 LINE",
"472 -146 OFFCURVE",
"448 -149 OFFCURVE",
"428 -149 CURVE SMOOTH",
"389 -149 OFFCURVE",
"366 -135 OFFCURVE",
"366 -101 CURVE SMOOTH",
"366 -58 OFFCURVE",
"426 -17 OFFCURVE",
"496 0 CURVE",
"443 33 LINE",
"406 10 LINE",
"309 -14 OFFCURVE",
"263 -79 OFFCURVE",
"263 -128 CURVE SMOOTH",
"263 -199 OFFCURVE",
"308 -240 OFFCURVE",
"412 -240 CURVE SMOOTH"
);
}
);
width = 574;
}
);
leftKerningGroup = o;
rightKerningGroup = n;
},
{
glyphname = ordfeminine;
lastChange = "2018-05-28 03:43:16 +0000";
layers = (
{
layerId = "B61D43DE-5272-4FF4-A680-608B6BF5ED9E";
paths = (
{
closed = 1;
nodes = (
"210 274 OFFCURVE",
"244 298 OFFCURVE",
"276 345 CURVE",
"284 286 LINE",
"381 286 LINE",
"381 556 LINE",
"381 648 OFFCURVE",
"345 707 OFFCURVE",
"217 707 CURVE SMOOTH",
"146 707 OFFCURVE",
"83 684 OFFCURVE",
"47 662 CURVE",
"83 582 LINE",
"104 604 OFFCURVE",
"154 620 OFFCURVE",
"198 620 CURVE SMOOTH",
"257 620 OFFCURVE",
"270 590 OFFCURVE",
"270 549 CURVE",
"271 527 LINE",
"70 527 OFFCURVE",
"31 445 OFFCURVE",
"31 395 CURVE SMOOTH",
"31 327 OFFCURVE",
"71 274 OFFCURVE",
"153 274 CURVE SMOOTH"
);
},
{
closed = 1;
nodes = (
"161 354 OFFCURVE",
"140 365 OFFCURVE",
"140 405 CURVE SMOOTH",
"140 450 OFFCURVE",
"203 464 OFFCURVE",
"252 464 CURVE SMOOTH",
"259 464 OFFCURVE",
"266 464 OFFCURVE",
"272 463 CURVE",
"271 404 LINE",
"253 373 OFFCURVE",
"225 354 OFFCURVE",
"198 354 CURVE SMOOTH"
);
}
);
width = 421;
}
);
leftKerningGroup = ordfeminine;
rightKerningGroup = ordfeminine;
unicode = 00AA;
userData = {
com.typemytype.robofont.mark = (
0.6,
1,
0.628,
1
);
};
},
{
glyphname = ordmasculine;
lastChange = "2018-05-26 04:51:54 +0000";
layers = (
{
layerId = "B61D43DE-5272-4FF4-A680-608B6BF5ED9E";
paths = (
{
closed = 1;
nodes = (
"368 278 OFFCURVE",
"442 362 OFFCURVE",
"442 492 CURVE SMOOTH",
"442 623 OFFCURVE",
"371 707 OFFCURVE",
"240 707 CURVE SMOOTH",
"108 707 OFFCURVE",
"30 628 OFFCURVE",
"30 492 CURVE SMOOTH",
"30 358 OFFCURVE",
"104 278 OFFCURVE",
"236 278 CURVE SMOOTH"
);
},
{
closed = 1;
nodes = (
"181 360 OFFCURVE",
"151 397 OFFCURVE",
"151 492 CURVE SMOOTH",
"151 587 OFFCURVE",
"181 625 OFFCURVE",
"238 625 CURVE SMOOTH",
"293 625 OFFCURVE",
"321 580 OFFCURVE",
"321 492 CURVE SMOOTH",
"321 405 OFFCURVE",
"293 360 OFFCURVE",
"238 360 CURVE SMOOTH"
);
}
);
width = 472;
}
);
leftKerningGroup = ordmasculine;
rightKerningGroup = ordmasculine;
unicode = 00BA;
userData = {
com.typemytype.robofont.mark = (
0.6,
1,
0.628,
1
);
};
},
{
glyphname = Delta;
lastChange = "2018-05-28 03:16:46 +0000";
layers = (
{
layerId = "B61D43DE-5272-4FF4-A680-608B6BF5ED9E";
paths = (
{
closed = 1;
nodes = (
"725 0 LINE",
"397 735 LINE",
"64 0 LINE"
);
},
{
closed = 1;
nodes = (
"389 503 LINE",
"557 101 LINE",
"219 101 LINE"
);
}
);
width = 785;
}
);
leftKerningGroup = Delta;
rightKerningGroup = Delta;
unicode = "0394,03B4";
},
{
color = 9;
glyphname = Omega;
lastChange = "2018-05-28 05:17:14 +0000";
layers = (
{
layerId = "B61D43DE-5272-4FF4-A680-608B6BF5ED9E";
paths = (
{
closed = 1;
nodes = (
"339 0 LINE",
"339 94 LINE",
"275 163 OFFCURVE",
"193 248 OFFCURVE",
"193 373 CURVE SMOOTH",
"193 477 OFFCURVE",
"245 613 OFFCURVE",
"392 613 CURVE SMOOTH",
"538 613 OFFCURVE",
"590 471 OFFCURVE",
"590 373 CURVE SMOOTH",
"590 248 OFFCURVE",
"508 163 OFFCURVE",
"444 94 CURVE",
"444 0 LINE",
"734 0 LINE",
"734 115 LINE",
"554 100 LINE",
"592 125 OFFCURVE",
"710 208 OFFCURVE",
"710 388 CURVE SMOOTH",
"710 574 OFFCURVE",
"580 714 OFFCURVE",
"393 714 CURVE SMOOTH",
"207 714 OFFCURVE",
"73 577 OFFCURVE",
"73 388 CURVE SMOOTH",
"73 208 OFFCURVE",
"191 125 OFFCURVE",
"229 100 CURVE",
"49 115 LINE",
"49 0 LINE"
);
}
);
width = 783;
}
);
leftKerningGroup = Omega;
rightKerningGroup = Omega;
unicode = "03A9,03C9";
},
{
glyphname = mu;
lastChange = "2018-05-25 15:00:42 +0000";
layers = (
{
layerId = "B61D43DE-5272-4FF4-A680-608B6BF5ED9E";
paths = (
{
closed = 1;
nodes = (
"189 -218 LINE",
"188 39 LINE",
"198 6 OFFCURVE",
"238 -10 OFFCURVE",
"284 -10 CURVE SMOOTH",
"347 -10 OFFCURVE",
"378 40 OFFCURVE",
"384 69 CURVE",
"394 0 LINE",
"487 0 LINE",
"487 498 LINE",
"366 498 LINE",
"366 216 LINE",
"366 161 OFFCURVE",
"326 116 OFFCURVE",
"284 116 CURVE SMOOTH",
"231 116 OFFCURVE",
"199 148 OFFCURVE",
"199 218 CURVE",
"199 498 LINE",
"78 498 LINE",
"78 -218 LINE"
);
}
);
width = 561;
}
);
leftKerningGroup = p;
leftMetricsKey = h;
rightKerningGroup = u;
rightMetricsKey = u;
unicode = 03BC;
userData = {
com.typemytype.robofont.mark = (
0.6,
1,
0.628,
1
);
};
},
{
glyphname = pi;
lastChange = "2018-05-28 03:16:46 +0000";
layers = (
{
layerId = "B61D43DE-5272-4FF4-A680-608B6BF5ED9E";
paths = (
{
closed = 1;
nodes = (
"309 0 LINE",
"317 309 LINE",
"323 435 LINE",
"464 435 LINE",
"464 0 LINE",
"596 0 LINE",
"573 435 LINE",
"597 435 LINE SMOOTH",
"647 435 OFFCURVE",
"676 443 OFFCURVE",
"699 468 CURVE",
"670 565 LINE",
"662 555 OFFCURVE",
"636 547 OFFCURVE",
"605 547 CURVE SMOOTH",
"202 547 LINE SMOOTH",
"151 547 OFFCURVE",
"108 527 OFFCURVE",
"73 480 CURVE",
"123 404 LINE",
"144 431 OFFCURVE",
"176 422 OFFCURVE",
"199 429 CURVE SMOOTH",
"218 435 LINE",
"181 0 LINE"
);
}
);
width = 759;
}
);
leftKerningGroup = pi;
rightKerningGroup = pi;
unicode = 03C0;
userData = {
com.typemytype.robofont.mark = (
0.6,
1,
0.628,
1
);
};
},
{
glyphname = zero;
lastChange = "2018-05-25 05:00:32 +0000";
layers = (
{
layerId = "B61D43DE-5272-4FF4-A680-608B6BF5ED9E";
paths = (
{
closed = 1;
nodes = (
"472 -18 OFFCURVE",
"546 133 OFFCURVE",
"546 347 CURVE SMOOTH",
"546 596 OFFCURVE",
"451 714 OFFCURVE",
"290 714 CURVE SMOOTH",
"129 714 OFFCURVE",
"34 596 OFFCURVE",
"34 347 CURVE SMOOTH",
"34 133 OFFCURVE",
"108 -18 OFFCURVE",
"290 -18 CURVE SMOOTH"
);
},
{
closed = 1;
nodes = (
"205 89 OFFCURVE",
"174 202 OFFCURVE",
"174 348 CURVE SMOOTH",
"174 502 OFFCURVE",
"206 609 OFFCURVE",
"291 609 CURVE SMOOTH",
"375 609 OFFCURVE",
"406 502 OFFCURVE",
"406 348 CURVE SMOOTH",
"406 202 OFFCURVE",
"377 89 OFFCURVE",
"291 89 CURVE SMOOTH"
);
}
);
width = 580;
}
);
leftKerningGroup = zero;
rightKerningGroup = zero;
unicode = 0030;
},
{
glyphname = one;
lastChange = "2018-05-24 19:23:14 +0000";
layers = (
{
layerId = "B61D43DE-5272-4FF4-A680-608B6BF5ED9E";
paths = (
{
closed = 1;
nodes = (
"224 0 LINE",
"224 715 LINE",
"89 645 LINE",
"89 0 LINE"
);
}
);
width = 313;
}
);
leftKerningGroup = one;
rightKerningGroup = one;
unicode = 0031;
},
{
glyphname = two;
lastChange = "2018-05-28 03:16:46 +0000";
layers = (
{
layerId = "B61D43DE-5272-4FF4-A680-608B6BF5ED9E";
paths = (
{
closed = 1;
nodes = (
"512 0 LINE",
"512 114 LINE",
"121 114 LINE",
"184 80 LINE",
"184 180 OFFCURVE",
"251 204 OFFCURVE",
"346 264 CURVE SMOOTH",
"428 316 OFFCURVE",
"508 387 OFFCURVE",
"508 515 CURVE SMOOTH",
"508 642 OFFCURVE",
"409 714 OFFCURVE",
"285 714 CURVE SMOOTH",
"149 714 OFFCURVE",
"55 628 OFFCURVE",
"39 524 CURVE",
"145 474 LINE",
"157 550 OFFCURVE",
"202 603 OFFCURVE",
"276 603 CURVE SMOOTH",
"347 603 OFFCURVE",
"378 555 OFFCURVE",
"378 503 CURVE SMOOTH",
"378 396 OFFCURVE",
"273 353 OFFCURVE",
"204 309 CURVE SMOOTH",
"83 232 OFFCURVE",
"56 161 OFFCURVE",
"56 70 CURVE SMOOTH",
"56 41 OFFCURVE",
"59 21 OFFCURVE",
"63 0 CURVE"
);
}
);
width = 561;
}
);
leftKerningGroup = two;
rightKerningGroup = two;
unicode = 0032;
},
{
color = 9;
glyphname = three;
lastChange = "2018-05-28 04:58:05 +0000";
layers = (
{
layerId = "B61D43DE-5272-4FF4-A680-608B6BF5ED9E";
paths = (
{
closed = 1;
nodes = (
"388 -15 OFFCURVE",
"504 64 OFFCURVE",
"504 196 CURVE SMOOTH",
"504 280 OFFCURVE",
"456 360 OFFCURVE",
"371 360 CURVE",
"445 379 OFFCURVE",
"487 459 OFFCURVE",
"487 535 CURVE SMOOTH",
"487 649 OFFCURVE",
"399 714 OFFCURVE",
"261 714 CURVE SMOOTH",
"177 714 OFFCURVE",
"79 681 OFFCURVE",
"38 645 CURVE",
"88 539 LINE",
"124 579 OFFCURVE",
"195 600 OFFCURVE",
"234 600 CURVE SMOOTH",
"306 600 OFFCURVE",
"347 581 OFFCURVE",
"347 515 CURVE SMOOTH",
"347 454 OFFCURVE",
"308 409 OFFCURVE",
"226 409 CURVE",
"226 409 OFFCURVE",
"172 410 OFFCURVE",
"172 409 CURVE",
"172 310 LINE",
"171 311 OFFCURVE",
"240 312 OFFCURVE",
"225 312 CURVE",
"298 312 OFFCURVE",
"363 292 OFFCURVE",
"363 211 CURVE SMOOTH",
"363 147 OFFCURVE",
"322 99 OFFCURVE",
"232 99 CURVE SMOOTH",
"179 99 OFFCURVE",
"120 120 OFFCURVE",
"82 157 CURVE",
"40 43 LINE",
"96 3 OFFCURVE",
"169 -15 OFFCURVE",
"245 -15 CURVE SMOOTH"
);
}
);
width = 545;
}
);
leftKerningGroup = three;
rightKerningGroup = three;
unicode = 0033;
},
{
color = 9;
glyphname = four;
lastChange = "2018-05-28 04:55:51 +0000";
layers = (
{
layerId = "B61D43DE-5272-4FF4-A680-608B6BF5ED9E";
paths = (
{
closed = 1;
nodes = (
"495 0 LINE",
"495 697 LINE",
"390 697 LINE",
"367 297 LINE",
"361 158 LINE",
"361 0 LINE"
);
},
{
closed = 1;
nodes = (
"42 126 LINE",
"587 126 LINE",
"587 233 LINE",
"218 233 LINE",
"270 347 LINE",
"417 695 LINE",
"296 697 LINE",
"35 137 LINE"
);
}
);
width = 613;
}
);
leftKerningGroup = four;
rightKerningGroup = four;
unicode = 0034;
},
{
glyphname = five;
lastChange = "2018-05-28 03:16:46 +0000";
layers = (
{
layerId = "B61D43DE-5272-4FF4-A680-608B6BF5ED9E";
paths = (
{
closed = 1;
nodes = (
"393 -13 OFFCURVE",
"505 83 OFFCURVE",
"505 239 CURVE SMOOTH",
"505 370 OFFCURVE",
"430 454 OFFCURVE",
"289 454 CURVE SMOOTH",
"253 454 OFFCURVE",
"224 451 OFFCURVE",
"193 442 CURVE",
"203 591 LINE",
"475 591 LINE",
"475 697 LINE",
"89 697 LINE",
"76 324 LINE",
"97 337 OFFCURVE",
"162 356 OFFCURVE",
"218 356 CURVE SMOOTH",
"315 356 OFFCURVE",
"370 305 OFFCURVE",
"370 226 CURVE SMOOTH",
"370 107 OFFCURVE",
"277 96 OFFCURVE",
"213 96 CURVE SMOOTH",
"166 96 OFFCURVE",
"111 117 OFFCURVE",
"82 144 CURVE",
"45 32 LINE",
"94 -1 OFFCURVE",
"169 -13 OFFCURVE",
"230 -13 CURVE SMOOTH"
);
}
);
width = 546;
}
);
leftKerningGroup = five;
rightKerningGroup = five;
unicode = 0035;
},
{
glyphname = six;
lastChange = "2018-05-28 03:16:46 +0000";
layers = (
{
layerId = "B61D43DE-5272-4FF4-A680-608B6BF5ED9E";
paths = (
{
closed = 1;
nodes = (
"482 -15 OFFCURVE",
"582 83 OFFCURVE",
"582 237 CURVE SMOOTH",
"582 358 OFFCURVE",
"507 457 OFFCURVE",
"372 457 CURVE SMOOTH",
"299 457 OFFCURVE",
"227 427 OFFCURVE",
"191 358 CURVE",
"191 369 OFFCURVE",
"191 381 OFFCURVE",
"192 395 CURVE SMOOTH",
"199 498 OFFCURVE",
"265 605 OFFCURVE",
"369 605 CURVE SMOOTH",
"406 605 OFFCURVE",
"457 596 OFFCURVE",
"484 567 CURVE",
"533 663 LINE",
"501 694 OFFCURVE",
"456 714 OFFCURVE",
"362 714 CURVE SMOOTH",
"186 714 OFFCURVE",
"57 570 OFFCURVE",
"57 336 CURVE SMOOTH",
"57 73 OFFCURVE",
"209 -15 OFFCURVE",
"328 -15 CURVE SMOOTH"
);
},
{
closed = 1;
nodes = (
"269 88 OFFCURVE",
"226 139 OFFCURVE",
"210 203 CURVE SMOOTH",
"207 215 OFFCURVE",
"206 226 OFFCURVE",
"206 236 CURVE",
"210 301 OFFCURVE",
"276 355 OFFCURVE",
"342 355 CURVE SMOOTH",
"414 355 OFFCURVE",
"448 303 OFFCURVE",
"448 225 CURVE SMOOTH",
"448 139 OFFCURVE",
"394 88 OFFCURVE",
"331 88 CURVE SMOOTH"
);
}
);
width = 623;
}
);
leftKerningGroup = six;
rightKerningGroup = six;
unicode = 0036;
},
{
color = 9;
glyphname = seven;
lastChange = "2018-05-28 04:55:51 +0000";
layers = (
{
layerId = "B61D43DE-5272-4FF4-A680-608B6BF5ED9E";
paths = (
{
closed = 1;
nodes = (
"277 0 LINE",
"502 697 LINE",
"45 697 LINE",
"45 579 LINE",
"409 579 LINE",
"358 647 LINE",
"134 0 LINE"
);
}
);
width = 527;
}
);
leftKerningGroup = seven;
rightKerningGroup = seven;
unicode = 0037;
},
{
glyphname = eight;
lastChange = "2018-05-25 16:20:00 +0000";
layers = (
{
layerId = "B61D43DE-5272-4FF4-A680-608B6BF5ED9E";
paths = (
{
closed = 1;
nodes = (
"435 -18 OFFCURVE",
"572 40 OFFCURVE",
"572 191 CURVE SMOOTH",
"572 290 OFFCURVE",
"503 351 OFFCURVE",
"406 373 CURVE",
"410 353 LINE",
"487 379 OFFCURVE",
"542 437 OFFCURVE",
"542 533 CURVE SMOOTH",
"542 665 OFFCURVE",
"426 714 OFFCURVE",
"311 714 CURVE SMOOTH",
"195 714 OFFCURVE",
"77 665 OFFCURVE",
"77 533 CURVE SMOOTH",
"77 436 OFFCURVE",
"128 378 OFFCURVE",
"209 353 CURVE",
"212 373 LINE",
"116 350 OFFCURVE",
"47 290 OFFCURVE",
"47 191 CURVE SMOOTH",
"47 40 OFFCURVE",
"184 -18 OFFCURVE",
"310 -18 CURVE SMOOTH"
);
},
{
closed = 1;
nodes = (
"233 83 OFFCURVE",
"191 119 OFFCURVE",
"191 193 CURVE SMOOTH",
"191 283 OFFCURVE",
"252 310 OFFCURVE",
"310 310 CURVE SMOOTH",
"367 310 OFFCURVE",
"427 283 OFFCURVE",
"427 193 CURVE SMOOTH",
"427 119 OFFCURVE",
"386 83 OFFCURVE",
"310 83 CURVE SMOOTH"
);
},
{
closed = 1;
nodes = (
"250 412 OFFCURVE",
"211 452 OFFCURVE",
"211 524 CURVE SMOOTH",
"211 589 OFFCURVE",
"244 622 OFFCURVE",
"312 622 CURVE SMOOTH",
"379 622 OFFCURVE",
"409 589 OFFCURVE",
"409 524 CURVE SMOOTH",
"409 452 OFFCURVE",
"374 412 OFFCURVE",
"312 412 CURVE SMOOTH"
);
}
);
width = 619;
}
);
leftKerningGroup = eight;
rightKerningGroup = eight;
unicode = 0038;
},
{
glyphname = nine;
lastChange = "2018-05-28 03:16:46 +0000";
layers = (
{
layerId = "B61D43DE-5272-4FF4-A680-608B6BF5ED9E";
paths = (
{
closed = 1;
nodes = (
"453 -15 OFFCURVE",
"582 129 OFFCURVE",
"582 363 CURVE SMOOTH",
"582 626 OFFCURVE",
"439 714 OFFCURVE",
"320 714 CURVE SMOOTH",
"166 714 OFFCURVE",
"57 616 OFFCURVE",
"57 462 CURVE SMOOTH",
"57 341 OFFCURVE",
"132 242 OFFCURVE",
"267 242 CURVE SMOOTH",
"340 242 OFFCURVE",
"412 272 OFFCURVE",
"448 341 CURVE",
"448 330 OFFCURVE",
"447 318 OFFCURVE",
"447 304 CURVE SMOOTH",
"447 183 OFFCURVE",
"374 98 OFFCURVE",
"270 98 CURVE SMOOTH",
"233 98 OFFCURVE",
"182 107 OFFCURVE",
"155 136 CURVE",
"106 36 LINE",
"138 5 OFFCURVE",
"183 -15 OFFCURVE",
"277 -15 CURVE SMOOTH"
);
},
{
closed = 1;
nodes = (
"228 344 OFFCURVE",
"191 396 OFFCURVE",
"191 474 CURVE SMOOTH",
"191 560 OFFCURVE",
"254 611 OFFCURVE",
"317 611 CURVE SMOOTH",
"379 611 OFFCURVE",
"422 560 OFFCURVE",
"429 496 CURVE SMOOTH",
"430 484 OFFCURVE",
"433 473 OFFCURVE",
"433 463 CURVE",
"429 398 OFFCURVE",
"366 344 OFFCURVE",
"300 344 CURVE SMOOTH"
);
}
);
width = 623;
}
);
leftKerningGroup = nine;
rightKerningGroup = nine;
unicode = 0039;
},
{
glyphname = zero.lt.zero;
lastChange = "2018-05-24 19:23:14 +0000";
layers = (
{
components = (
{
name = zero;
}
);
layerId = "B61D43DE-5272-4FF4-A680-608B6BF5ED9E";
paths = (
{
closed = 1;
nodes = (
"243 89 LINE",
"419 609 LINE",
"340 609 LINE",
"164 89 LINE"
);
}
);
width = 580;
}
);
leftKerningGroup = zero.lt.zero;
leftMetricsKey = zero.zero;
rightKerningGroup = zero.lt.zero;
rightMetricsKey = zero.zero;
},
{
glyphname = zero.osf;
lastChange = "2018-05-25 15:25:03 +0000";
layers = (
{
layerId = "B61D43DE-5272-4FF4-A680-608B6BF5ED9E";
paths = (
{
closed = 1;
nodes = (
"472 -18 OFFCURVE",
"546 133 OFFCURVE",
"546 303 CURVE SMOOTH",
"546 513 OFFCURVE",
"451 632 OFFCURVE",
"290 632 CURVE SMOOTH",
"129 632 OFFCURVE",
"34 513 OFFCURVE",
"34 303 CURVE SMOOTH",
"34 133 OFFCURVE",
"108 -18 OFFCURVE",
"290 -18 CURVE SMOOTH"
);
},
{
closed = 1;
nodes = (
"204 89 OFFCURVE",
"175 202 OFFCURVE",
"175 304 CURVE SMOOTH",
"175 424 OFFCURVE",
"205 527 OFFCURVE",
"290 527 CURVE SMOOTH",
"374 527 OFFCURVE",
"405 458 OFFCURVE",
"405 304 CURVE SMOOTH",
"405 202 OFFCURVE",
"376 89 OFFCURVE",
"290 89 CURVE SMOOTH"
);
}
);
width = 582;
}
);
leftKerningGroup = zero.osf;
rightKerningGroup = zero.osf;
},
{
glyphname = one.osf;
lastChange = "2018-05-28 03:16:46 +0000";
layers = (
{
layerId = "B61D43DE-5272-4FF4-A680-608B6BF5ED9E";
paths = (
{
closed = 1;
nodes = (
"414 0 LINE",
"414 98 LINE",
"298 98 LINE",
"298 616 LINE",
"49 589 LINE",
"49 474 LINE",
"166 489 LINE",
"166 98 LINE",
"35 98 LINE",
"35 0 LINE"
);
}
);
width = 439;
}
);
leftKerningGroup = one.osf;
rightKerningGroup = one.osf;
},
{
color = 9;
glyphname = two.osf;
lastChange = "2018-05-28 04:56:50 +0000";
layers = (
{
layerId = "B61D43DE-5272-4FF4-A680-608B6BF5ED9E";
paths = (
{
closed = 1;
nodes = (
"133 424 LINE",
"152 472 OFFCURVE",
"194 517 OFFCURVE",
"259 517 CURVE SMOOTH",
"326 517 OFFCURVE",
"351 485 OFFCURVE",
"351 433 CURVE SMOOTH",
"351 360 OFFCURVE",
"256 304 OFFCURVE",
"187 260 CURVE SMOOTH",
"66 183 OFFCURVE",
"39 125 OFFCURVE",
"39 70 CURVE SMOOTH",
"39 41 OFFCURVE",
"42 21 OFFCURVE",
"46 0 CURVE",
"495 0 LINE",
"495 111 LINE",
"104 111 LINE",
"177 85 LINE",
"177 136 OFFCURVE",
"234 162 OFFCURVE",
"329 222 CURVE SMOOTH",
"411 274 OFFCURVE",
"485 348 OFFCURVE",
"485 433 CURVE SMOOTH",
"485 558 OFFCURVE",
"411 632 OFFCURVE",
"272 632 CURVE SMOOTH",
"159 632 OFFCURVE",
"77 569 OFFCURVE",
"42 500 CURVE"
);
}
);
width = 544;
}
);
leftKerningGroup = two.osf;
leftMetricsKey = two;
rightKerningGroup = two.osf;
rightMetricsKey = two;
},
{
color = 9;
glyphname = three.osf;
lastChange = "2018-05-28 04:58:03 +0000";
layers = (
{
layerId = "B61D43DE-5272-4FF4-A680-608B6BF5ED9E";
paths = (
{
closed = 1;
nodes = (
"388 -15 OFFCURVE",
"504 64 OFFCURVE",
"504 196 CURVE SMOOTH",
"504 280 OFFCURVE",
"456 360 OFFCURVE",
"371 360 CURVE",
"445 379 OFFCURVE",
"487 459 OFFCURVE",
"487 535 CURVE SMOOTH",
"487 649 OFFCURVE",
"399 714 OFFCURVE",
"261 714 CURVE SMOOTH",
"177 714 OFFCURVE",
"79 681 OFFCURVE",
"38 645 CURVE",
"88 539 LINE",
"124 579 OFFCURVE",
"195 600 OFFCURVE",
"234 600 CURVE SMOOTH",
"306 600 OFFCURVE",
"347 581 OFFCURVE",
"347 515 CURVE SMOOTH",
"347 454 OFFCURVE",
"308 409 OFFCURVE",
"226 409 CURVE",
"226 409 OFFCURVE",
"172 410 OFFCURVE",
"172 409 CURVE",
"172 310 LINE",
"171 311 OFFCURVE",
"240 312 OFFCURVE",
"225 312 CURVE",
"298 312 OFFCURVE",
"363 292 OFFCURVE",
"363 211 CURVE SMOOTH",
"363 147 OFFCURVE",
"322 99 OFFCURVE",
"232 99 CURVE SMOOTH",
"179 99 OFFCURVE",
"120 120 OFFCURVE",
"82 157 CURVE",
"40 43 LINE",
"96 3 OFFCURVE",
"169 -15 OFFCURVE",
"245 -15 CURVE SMOOTH"
);
}
);
width = 545;
}
);
leftKerningGroup = three.osf;
leftMetricsKey = three;
rightKerningGroup = three.osf;
rightMetricsKey = three;
},
{
glyphname = four.osf;
lastChange = "2018-05-28 03:16:46 +0000";
layers = (
{
layerId = "B61D43DE-5272-4FF4-A680-608B6BF5ED9E";
paths = (
{
closed = 1;
nodes = (
"553 156 LINE",
"553 268 LINE",
"203 268 LINE",
"247 448 LINE",
"334 760 LINE",
"201 760 LINE",
"36 156 LINE"
);
},
{
closed = 1;
nodes = (
"476 0 LINE",
"476 459 LINE",
"352 459 LINE",
"342 188 LINE",
"342 0 LINE"
);
}
);
width = 583;
}
);
leftKerningGroup = four.osf;
rightKerningGroup = four.osf;
},
{
glyphname = five.osf;
lastChange = "2018-05-28 03:16:46 +0000";
layers = (
{
layerId = "B61D43DE-5272-4FF4-A680-608B6BF5ED9E";
paths = (
{
closed = 1;
nodes = (
"393 -106 OFFCURVE",
"505 -10 OFFCURVE",
"505 146 CURVE SMOOTH",
"505 277 OFFCURVE",
"430 361 OFFCURVE",
"289 361 CURVE SMOOTH",
"253 361 OFFCURVE",
"224 358 OFFCURVE",
"193 349 CURVE",
"203 510 LINE",
"475 510 LINE",
"475 616 LINE",
"89 616 LINE",
"76 231 LINE",
"97 244 OFFCURVE",
"162 263 OFFCURVE",
"218 263 CURVE SMOOTH",
"315 263 OFFCURVE",
"370 212 OFFCURVE",
"370 133 CURVE SMOOTH",
"370 14 OFFCURVE",
"277 3 OFFCURVE",
"213 3 CURVE SMOOTH",
"166 3 OFFCURVE",
"111 24 OFFCURVE",
"82 51 CURVE",
"45 -61 LINE",
"94 -94 OFFCURVE",
"169 -106 OFFCURVE",
"230 -106 CURVE SMOOTH"
);
}
);
width = 546;
}
);
leftKerningGroup = five.osf;
leftMetricsKey = five;
rightKerningGroup = five.osf;
rightMetricsKey = five;
},
{
glyphname = six.osf;
lastChange = "2018-05-28 03:16:46 +0000";
layers = (
{
layerId = "B61D43DE-5272-4FF4-A680-608B6BF5ED9E";
paths = (
{
closed = 1;
nodes = (
"482 -15 OFFCURVE",
"580 83 OFFCURVE",
"580 237 CURVE SMOOTH",
"580 358 OFFCURVE",
"507 457 OFFCURVE",
"372 457 CURVE SMOOTH",
"299 457 OFFCURVE",
"227 427 OFFCURVE",
"191 358 CURVE",
"191 369 OFFCURVE",
"192 381 OFFCURVE",
"192 395 CURVE",
"196 515 OFFCURVE",
"265 605 OFFCURVE",
"369 605 CURVE SMOOTH",
"406 605 OFFCURVE",
"457 596 OFFCURVE",
"484 567 CURVE",
"533 663 LINE",
"501 694 OFFCURVE",
"456 714 OFFCURVE",
"362 714 CURVE SMOOTH",
"186 714 OFFCURVE",
"59 570 OFFCURVE",
"59 336 CURVE SMOOTH",
"59 73 OFFCURVE",
"209 -15 OFFCURVE",
"328 -15 CURVE SMOOTH"
);
},
{
closed = 1;
nodes = (
"269 88 OFFCURVE",
"226 139 OFFCURVE",
"210 203 CURVE SMOOTH",
"207 215 OFFCURVE",
"206 226 OFFCURVE",
"206 236 CURVE",
"210 301 OFFCURVE",
"276 355 OFFCURVE",
"342 355 CURVE SMOOTH",
"414 355 OFFCURVE",
"448 303 OFFCURVE",
"448 225 CURVE SMOOTH",
"448 139 OFFCURVE",
"394 88 OFFCURVE",
"331 88 CURVE SMOOTH"
);
}
);
width = 623;
}
);
leftKerningGroup = six.osf;
rightKerningGroup = six.osf;
},
{
glyphname = seven.osf;
lastChange = "2018-05-24 19:23:14 +0000";
layers = (
{
layerId = "B61D43DE-5272-4FF4-A680-608B6BF5ED9E";
paths = (
{
closed = 1;
nodes = (
"254 -88 LINE",
"502 616 LINE",
"45 616 LINE",
"45 498 LINE",
"409 498 LINE",
"358 566 LINE",
"109 -88 LINE"
);
}
);
width = 527;
}
);
leftKerningGroup = seven.osf;
leftMetricsKey = seven;
rightKerningGroup = seven.osf;
rightMetricsKey = seven;
},
{
glyphname = eight.osf;
lastChange = "2018-05-25 16:20:12 +0000";
layers = (
{
layerId = "B61D43DE-5272-4FF4-A680-608B6BF5ED9E";
paths = (
{
closed = 1;
nodes = (
"432 -18 OFFCURVE",
"565 40 OFFCURVE",
"565 191 CURVE SMOOTH",
"565 290 OFFCURVE",
"498 351 OFFCURVE",
"401 373 CURVE",
"406 353 LINE",
"481 379 OFFCURVE",
"535 437 OFFCURVE",
"535 533 CURVE SMOOTH",
"535 665 OFFCURVE",
"423 714 OFFCURVE",
"308 714 CURVE SMOOTH",
"192 714 OFFCURVE",
"78 665 OFFCURVE",
"78 533 CURVE SMOOTH",
"78 436 OFFCURVE",
"128 378 OFFCURVE",
"208 353 CURVE",
"210 373 LINE",
"116 350 OFFCURVE",
"48 290 OFFCURVE",
"48 191 CURVE SMOOTH",
"48 40 OFFCURVE",
"181 -18 OFFCURVE",
"307 -18 CURVE SMOOTH"
);
},
{
closed = 1;
nodes = (
"230 83 OFFCURVE",
"190 119 OFFCURVE",
"190 193 CURVE SMOOTH",
"190 283 OFFCURVE",
"249 310 OFFCURVE",
"307 310 CURVE SMOOTH",
"364 310 OFFCURVE",
"422 283 OFFCURVE",
"422 193 CURVE SMOOTH",
"422 119 OFFCURVE",
"383 83 OFFCURVE",
"307 83 CURVE SMOOTH"
);
},
{
closed = 1;
nodes = (
"247 412 OFFCURVE",
"210 452 OFFCURVE",
"210 524 CURVE SMOOTH",
"210 589 OFFCURVE",
"241 622 OFFCURVE",
"309 622 CURVE SMOOTH",
"376 622 OFFCURVE",
"404 589 OFFCURVE",
"404 524 CURVE SMOOTH",
"404 452 OFFCURVE",
"371 412 OFFCURVE",
"309 412 CURVE SMOOTH"
);
}
);
width = 613;
}
);
leftKerningGroup = eight.osf;
rightKerningGroup = eight.osf;
},
{
glyphname = nine.osf;
lastChange = "2018-05-28 03:43:16 +0000";
layers = (
{
layerId = "B61D43DE-5272-4FF4-A680-608B6BF5ED9E";
paths = (
{
closed = 1;
nodes = (
"453 -97 OFFCURVE",
"580 47 OFFCURVE",
"580 281 CURVE SMOOTH",
"580 544 OFFCURVE",
"463 632 OFFCURVE",
"320 632 CURVE SMOOTH",
"166 632 OFFCURVE",
"59 534 OFFCURVE",
"59 380 CURVE SMOOTH",
"59 259 OFFCURVE",
"152 155 OFFCURVE",
"287 155 CURVE SMOOTH",
"360 155 OFFCURVE",
"412 185 OFFCURVE",
"448 259 CURVE",
"448 250 OFFCURVE",
"447 241 OFFCURVE",
"447 230 CURVE",
"447 228 OFFCURVE",
"447 225 OFFCURVE",
"447 222 CURVE",
"453 93 OFFCURVE",
"374 16 OFFCURVE",
"270 16 CURVE SMOOTH",
"233 16 OFFCURVE",
"182 25 OFFCURVE",
"155 54 CURVE",
"106 -46 LINE",
"138 -77 OFFCURVE",
"183 -97 OFFCURVE",
"277 -97 CURVE SMOOTH"
);
},
{
closed = 1;
nodes = (
"228 262 OFFCURVE",
"191 317 OFFCURVE",
"191 395 CURVE SMOOTH",
"191 481 OFFCURVE",
"254 529 OFFCURVE",
"317 529 CURVE SMOOTH",
"379 529 OFFCURVE",
"424 468 OFFCURVE",
"429 414 CURVE SMOOTH",
"430 402 OFFCURVE",
"433 391 OFFCURVE",
"433 381 CURVE",
"429 316 OFFCURVE",
"366 262 OFFCURVE",
"300 262 CURVE SMOOTH"
);
}
);
width = 623;
}
);
leftKerningGroup = nine.osf;
rightKerningGroup = nine.osf;
},
{
glyphname = zero.osf.zero;
lastChange = "2018-05-25 05:36:30 +0000";
layers = (
{
components = (
{
name = zero.osf;
}
);
layerId = "B61D43DE-5272-4FF4-A680-608B6BF5ED9E";
paths = (
{
closed = 1;
nodes = (
"239 89 LINE",
"415 525 LINE",
"336 525 LINE",
"160 89 LINE"
);
}
);
width = 580;
}
);
leftKerningGroup = zero.osf;
leftMetricsKey = zero;
rightKerningGroup = zero.osf;
rightMetricsKey = zero;
},
{
glyphname = zero.tf;
lastChange = "2018-05-25 04:59:42 +0000";
layers = (
{
layerId = "B61D43DE-5272-4FF4-A680-608B6BF5ED9E";
paths = (
{
closed = 1;
nodes = (
"481 -18 OFFCURVE",
"554 133 OFFCURVE",
"554 347 CURVE SMOOTH",
"554 596 OFFCURVE",
"461 714 OFFCURVE",
"300 714 CURVE SMOOTH",
"139 714 OFFCURVE",
"45 596 OFFCURVE",
"45 347 CURVE SMOOTH",
"45 133 OFFCURVE",
"117 -18 OFFCURVE",
"299 -18 CURVE SMOOTH"
);
},
{
closed = 1;
nodes = (
"214 89 OFFCURVE",
"184 202 OFFCURVE",
"184 348 CURVE SMOOTH",
"184 502 OFFCURVE",
"216 609 OFFCURVE",
"301 609 CURVE SMOOTH",
"385 609 OFFCURVE",
"416 502 OFFCURVE",
"416 348 CURVE SMOOTH",
"416 202 OFFCURVE",
"386 89 OFFCURVE",
"300 89 CURVE SMOOTH"
);
}
);
width = 599;
}
);
userData = {
RMXScaler = {
source = zero;
};
};
},
{
glyphname = one.tf;
lastChange = "2018-05-28 03:16:46 +0000";
layers = (
{
layerId = "B61D43DE-5272-4FF4-A680-608B6BF5ED9E";
paths = (
{
closed = 1;
nodes = (
"516 0 LINE",
"516 98 LINE",
"375 98 LINE",
"375 697 LINE",
"80 648 LINE",
"80 533 LINE",
"286 571 LINE",
"242 608 LINE",
"242 98 LINE",
"84 98 LINE",
"84 0 LINE"
);
}
);
width = 599;
}
);
userData = {
RMXScaler = {
source = one;
};
};
},
{
color = 9;
glyphname = two.tf;
lastChange = "2018-05-28 04:59:27 +0000";
layers = (
{
layerId = "B61D43DE-5272-4FF4-A680-608B6BF5ED9E";
paths = (
{
closed = 1;
nodes = (
"534 0 LINE",
"534 114 LINE",
"143 114 LINE",
"206 85 LINE",
"206 185 OFFCURVE",
"273 204 OFFCURVE",
"368 264 CURVE SMOOTH",
"450 316 OFFCURVE",
"530 387 OFFCURVE",
"530 515 CURVE SMOOTH",
"530 642 OFFCURVE",
"435 714 OFFCURVE",
"311 714 CURVE SMOOTH",
"175 714 OFFCURVE",
"80 628 OFFCURVE",
"64 524 CURVE",
"166 474 LINE",
"175 542 OFFCURVE",
"225 599 OFFCURVE",
"301 599 CURVE SMOOTH",
"367 599 OFFCURVE",
"396 555 OFFCURVE",
"396 503 CURVE SMOOTH",
"396 396 OFFCURVE",
"295 353 OFFCURVE",
"226 309 CURVE SMOOTH",
"105 232 OFFCURVE",
"78 161 OFFCURVE",
"78 70 CURVE SMOOTH",
"78 41 OFFCURVE",
"81 21 OFFCURVE",
"85 0 CURVE"
);
}
);
width = 599;
}
);
userData = {
RMXScaler = {
source = two.subs;
};
};
},
{
glyphname = three.tf;
lastChange = "2018-05-28 03:16:46 +0000";
layers = (
{
layerId = "B61D43DE-5272-4FF4-A680-608B6BF5ED9E";
paths = (
{
closed = 1;
nodes = (
"415 -15 OFFCURVE",
"531 64 OFFCURVE",
"531 196 CURVE SMOOTH",
"531 280 OFFCURVE",
"483 360 OFFCURVE",
"398 360 CURVE",
"472 379 OFFCURVE",
"514 459 OFFCURVE",
"514 535 CURVE SMOOTH",
"514 649 OFFCURVE",
"426 714 OFFCURVE",
"288 714 CURVE SMOOTH",
"204 714 OFFCURVE",
"116 687 OFFCURVE",
"75 651 CURVE",
"115 546 LINE",
"151 586 OFFCURVE",
"222 607 OFFCURVE",
"261 607 CURVE SMOOTH",
"333 607 OFFCURVE",
"374 581 OFFCURVE",
"374 515 CURVE SMOOTH",
"374 454 OFFCURVE",
"335 409 OFFCURVE",
"253 409 CURVE",
"253 409 OFFCURVE",
"199 410 OFFCURVE",
"199 409 CURVE",
"199 310 LINE",
"198 311 OFFCURVE",
"240 312 OFFCURVE",
"241 312 CURVE",
"318 312 OFFCURVE",
"390 296 OFFCURVE",
"390 211 CURVE SMOOTH",
"390 147 OFFCURVE",
"349 99 OFFCURVE",
"259 99 CURVE SMOOTH",
"206 99 OFFCURVE",
"147 120 OFFCURVE",
"109 157 CURVE",
"67 43 LINE",
"123 3 OFFCURVE",
"196 -15 OFFCURVE",
"272 -15 CURVE SMOOTH"
);
}
);
width = 599;
}
);
userData = {
RMXScaler = {
source = three.subs;
};
};
},
{
color = 9;
glyphname = four.tf;
lastChange = "2018-05-28 04:58:39 +0000";
layers = (
{
layerId = "B61D43DE-5272-4FF4-A680-608B6BF5ED9E";
paths = (
{
closed = 1;
nodes = (
"573 126 LINE",
"573 239 LINE",
"205 239 LINE",
"379 697 LINE",
"240 697 LINE",
"22 126 LINE"
);
},
{
closed = 1;
nodes = (
"476 0 LINE",
"476 438 LINE",
"361 438 LINE",
"346 158 LINE",
"346 0 LINE"
);
}
);
width = 599;
}
);
userData = {
RMXScaler = {
source = four.subs;
};
};
},
{
glyphname = five.tf;
lastChange = "2018-05-28 03:16:46 +0000";
layers = (
{
layerId = "B61D43DE-5272-4FF4-A680-608B6BF5ED9E";
paths = (
{
closed = 1;
nodes = (
"433 -13 OFFCURVE",
"545 83 OFFCURVE",
"545 239 CURVE SMOOTH",
"545 370 OFFCURVE",
"470 454 OFFCURVE",
"329 454 CURVE SMOOTH",
"293 454 OFFCURVE",
"254 451 OFFCURVE",
"223 442 CURVE",
"233 591 LINE",
"518 591 LINE",
"518 697 LINE",
"119 697 LINE",
"106 324 LINE",
"127 337 OFFCURVE",
"202 356 OFFCURVE",
"258 356 CURVE SMOOTH",
"355 356 OFFCURVE",
"410 305 OFFCURVE",
"410 226 CURVE SMOOTH",
"410 107 OFFCURVE",
"317 96 OFFCURVE",
"253 96 CURVE SMOOTH",
"206 96 OFFCURVE",
"141 117 OFFCURVE",
"112 144 CURVE",
"75 32 LINE",
"124 -1 OFFCURVE",
"209 -13 OFFCURVE",
"270 -13 CURVE SMOOTH"
);
}
);
width = 599;
}
);
userData = {
RMXScaler = {
source = five.subs;
};
};
},
{
glyphname = six.tf;
lastChange = "2018-05-28 03:16:46 +0000";
layers = (
{
layerId = "B61D43DE-5272-4FF4-A680-608B6BF5ED9E";
paths = (
{
closed = 1;
nodes = (
"459 -15 OFFCURVE",
"555 85 OFFCURVE",
"555 239 CURVE SMOOTH",
"555 360 OFFCURVE",
"484 457 OFFCURVE",
"349 457 CURVE SMOOTH",
"276 457 OFFCURVE",
"204 427 OFFCURVE",
"168 358 CURVE",
"168 369 OFFCURVE",
"168 381 OFFCURVE",
"169 395 CURVE SMOOTH",
"176 498 OFFCURVE",
"242 605 OFFCURVE",
"346 605 CURVE SMOOTH",
"383 605 OFFCURVE",
"434 596 OFFCURVE",
"461 567 CURVE",
"510 663 LINE",
"478 694 OFFCURVE",
"433 714 OFFCURVE",
"339 714 CURVE SMOOTH",
"163 714 OFFCURVE",
"37 570 OFFCURVE",
"37 336 CURVE SMOOTH",
"37 73 OFFCURVE",
"186 -15 OFFCURVE",
"305 -15 CURVE SMOOTH"
);
},
{
closed = 1;
nodes = (
"246 88 OFFCURVE",
"203 139 OFFCURVE",
"187 203 CURVE SMOOTH",
"184 215 OFFCURVE",
"183 226 OFFCURVE",
"183 236 CURVE",
"187 301 OFFCURVE",
"245 355 OFFCURVE",
"319 355 CURVE SMOOTH",
"391 355 OFFCURVE",
"425 303 OFFCURVE",
"425 225 CURVE SMOOTH",
"425 139 OFFCURVE",
"371 88 OFFCURVE",
"308 88 CURVE SMOOTH"
);
}
);
width = 599;
}
);
userData = {
RMXScaler = {
source = six.subs;
};
};
},
{
glyphname = seven.tf;
lastChange = "2018-05-24 19:23:14 +0000";
layers = (
{
layerId = "B61D43DE-5272-4FF4-A680-608B6BF5ED9E";
paths = (
{
closed = 1;
nodes = (
"314 0 LINE",
"572 697 LINE",
"55 697 LINE",
"55 579 LINE",
"479 579 LINE",
"428 647 LINE",
"169 0 LINE"
);
}
);
width = 599;
}
);
userData = {
RMXScaler = {
source = seven.subs;
};
};
},
{
color = 9;
glyphname = eight.tf;
lastChange = "2018-05-28 04:59:12 +0000";
layers = (
{
layerId = "B61D43DE-5272-4FF4-A680-608B6BF5ED9E";
paths = (
{
closed = 1;
nodes = (
"425 -18 OFFCURVE",
"551 40 OFFCURVE",
"551 191 CURVE SMOOTH",
"551 294 OFFCURVE",
"475 349 OFFCURVE",
"374 368 CURVE",
"378 350 LINE",
"461 373 OFFCURVE",
"524 433 OFFCURVE",
"524 533 CURVE SMOOTH",
"524 665 OFFCURVE",
"416 714 OFFCURVE",
"301 714 CURVE SMOOTH",
"185 714 OFFCURVE",
"75 665 OFFCURVE",
"75 533 CURVE SMOOTH",
"75 432 OFFCURVE",
"134 373 OFFCURVE",
"220 350 CURVE",
"223 368 LINE",
"123 349 OFFCURVE",
"48 294 OFFCURVE",
"48 191 CURVE SMOOTH",
"48 40 OFFCURVE",
"174 -18 OFFCURVE",
"300 -18 CURVE SMOOTH"
);
},
{
closed = 1;
nodes = (
"223 83 OFFCURVE",
"186 119 OFFCURVE",
"186 193 CURVE SMOOTH",
"186 283 OFFCURVE",
"242 310 OFFCURVE",
"300 310 CURVE SMOOTH",
"357 310 OFFCURVE",
"412 283 OFFCURVE",
"412 193 CURVE SMOOTH",
"412 119 OFFCURVE",
"376 83 OFFCURVE",
"300 83 CURVE SMOOTH"
);
},
{
closed = 1;
nodes = (
"240 412 OFFCURVE",
"203 452 OFFCURVE",
"203 524 CURVE SMOOTH",
"203 589 OFFCURVE",
"234 622 OFFCURVE",
"302 622 CURVE SMOOTH",
"369 622 OFFCURVE",
"397 589 OFFCURVE",
"397 524 CURVE SMOOTH",
"397 451 OFFCURVE",
"364 412 OFFCURVE",
"302 412 CURVE SMOOTH"
);
}
);
width = 599;
}
);
userData = {
RMXScaler = {
source = eight.subs;
};
};
},
{
glyphname = nine.tf;
lastChange = "2018-05-28 03:16:46 +0000";
layers = (
{
layerId = "B61D43DE-5272-4FF4-A680-608B6BF5ED9E";
paths = (
{
closed = 1;
nodes = (
"427 -15 OFFCURVE",
"551 129 OFFCURVE",
"551 363 CURVE SMOOTH",
"551 626 OFFCURVE",
"413 714 OFFCURVE",
"294 714 CURVE SMOOTH",
"143 714 OFFCURVE",
"36 616 OFFCURVE",
"36 462 CURVE SMOOTH",
"36 341 OFFCURVE",
"109 242 OFFCURVE",
"241 242 CURVE SMOOTH",
"314 242 OFFCURVE",
"383 272 OFFCURVE",
"419 341 CURVE",
"419 330 OFFCURVE",
"418 318 OFFCURVE",
"418 304 CURVE SMOOTH",
"418 183 OFFCURVE",
"348 98 OFFCURVE",
"244 98 CURVE SMOOTH",
"210 98 OFFCURVE",
"159 107 OFFCURVE",
"132 136 CURVE",
"83 36 LINE",
"115 5 OFFCURVE",
"160 -15 OFFCURVE",
"251 -15 CURVE SMOOTH"
);
},
{
closed = 1;
nodes = (
"205 344 OFFCURVE",
"168 396 OFFCURVE",
"168 474 CURVE SMOOTH",
"168 560 OFFCURVE",
"228 611 OFFCURVE",
"291 611 CURVE SMOOTH",
"353 611 OFFCURVE",
"395 560 OFFCURVE",
"400 496 CURVE SMOOTH",
"401 484 OFFCURVE",
"404 473 OFFCURVE",
"404 463 CURVE",
"400 398 OFFCURVE",
"340 344 OFFCURVE",
"274 344 CURVE SMOOTH"
);
}
);
width = 599;
}
);
userData = {
RMXScaler = {
source = nine.subs;
};
};
},
{
glyphname = zero.tf.zero;
lastChange = "2018-05-25 16:18:19 +0000";
layers = (
{
components = (
{
name = zero.tf;
}
);
layerId = "B61D43DE-5272-4FF4-A680-608B6BF5ED9E";
paths = (
{
closed = 1;
nodes = (
"248 89 LINE",
"424 609 LINE",
"345 609 LINE",
"169 89 LINE"
);
}
);
width = 599;
}
);
userData = {
RMXScaler = {
source = zero.tf;
};
};
},
{
glyphname = zero.tosf;
lastChange = "2018-05-25 05:02:18 +0000";
layers = (
{
layerId = "B61D43DE-5272-4FF4-A680-608B6BF5ED9E";
paths = (
{
closed = 1;
nodes = (
"472 -18 OFFCURVE",
"548 133 OFFCURVE",
"548 303 CURVE SMOOTH",
"548 513 OFFCURVE",
"453 632 OFFCURVE",
"292 632 CURVE SMOOTH",
"131 632 OFFCURVE",
"34 513 OFFCURVE",
"34 303 CURVE SMOOTH",
"34 133 OFFCURVE",
"108 -18 OFFCURVE",
"290 -18 CURVE SMOOTH"
);
},
{
closed = 1;
nodes = (
"204 89 OFFCURVE",
"174 202 OFFCURVE",
"174 304 CURVE SMOOTH",
"174 424 OFFCURVE",
"207 527 OFFCURVE",
"292 527 CURVE SMOOTH",
"376 527 OFFCURVE",
"408 458 OFFCURVE",
"408 304 CURVE SMOOTH",
"408 202 OFFCURVE",
"376 89 OFFCURVE",
"290 89 CURVE SMOOTH"
);
}
);
width = 582;
}
);
userData = {
RMXScaler = {
source = zero;
};
};
},
{
color = 9;
glyphname = one.tosf;
lastChange = "2018-05-28 04:53:30 +0000";
layers = (
{
layerId = "B61D43DE-5272-4FF4-A680-608B6BF5ED9E";
paths = (
{
closed = 1;
nodes = (
"518 0 LINE",
"518 98 LINE",
"341 98 LINE",
"386 53 LINE",
"386 632 LINE",
"98 589 LINE",
"98 474 LINE",
"295 507 LINE",
"251 544 LINE",
"251 53 LINE",
"296 98 LINE",
"84 98 LINE",
"84 0 LINE"
);
}
);
width = 599;
}
);
userData = {
RMXScaler = {
source = one;
};
};
},
{
glyphname = two.tosf;
lastChange = "2018-05-28 03:16:46 +0000";
layers = (
{
layerId = "B61D43DE-5272-4FF4-A680-608B6BF5ED9E";
paths = (
{
closed = 1;
nodes = (
"512 0 LINE",
"512 114 LINE",
"121 114 LINE",
"195 85 LINE",
"195 136 OFFCURVE",
"251 155 OFFCURVE",
"346 215 CURVE SMOOTH",
"428 267 OFFCURVE",
"508 348 OFFCURVE",
"508 433 CURVE SMOOTH",
"508 560 OFFCURVE",
"411 632 OFFCURVE",
"287 632 CURVE SMOOTH",
"151 632 OFFCURVE",
"59 546 OFFCURVE",
"43 442 CURVE",
"145 392 LINE",
"154 460 OFFCURVE",
"205 517 OFFCURVE",
"281 517 CURVE SMOOTH",
"343 517 OFFCURVE",
"374 485 OFFCURVE",
"374 433 CURVE SMOOTH",
"374 360 OFFCURVE",
"273 304 OFFCURVE",
"204 260 CURVE SMOOTH",
"83 183 OFFCURVE",
"56 125 OFFCURVE",
"56 70 CURVE SMOOTH",
"56 41 OFFCURVE",
"59 21 OFFCURVE",
"63 0 CURVE"
);
}
);
width = 599;
}
);
userData = {
RMXScaler = {
source = two;
};
};
},
{
glyphname = three.tosf;
lastChange = "2018-05-28 03:16:46 +0000";
layers = (
{
layerId = "B61D43DE-5272-4FF4-A680-608B6BF5ED9E";
paths = (
{
closed = 1;
nodes = (
"418 -97 OFFCURVE",
"534 -18 OFFCURVE",
"534 114 CURVE SMOOTH",
"534 198 OFFCURVE",
"486 278 OFFCURVE",
"401 278 CURVE",
"475 297 OFFCURVE",
"517 377 OFFCURVE",
"517 453 CURVE SMOOTH",
"517 567 OFFCURVE",
"429 632 OFFCURVE",
"291 632 CURVE SMOOTH",
"207 632 OFFCURVE",
"119 605 OFFCURVE",
"78 569 CURVE",
"118 464 LINE",
"154 504 OFFCURVE",
"225 525 OFFCURVE",
"264 525 CURVE SMOOTH",
"336 525 OFFCURVE",
"377 499 OFFCURVE",
"377 433 CURVE SMOOTH",
"377 372 OFFCURVE",
"338 327 OFFCURVE",
"256 327 CURVE",
"256 327 OFFCURVE",
"202 328 OFFCURVE",
"202 327 CURVE",
"202 228 LINE",
"201 229 OFFCURVE",
"243 230 OFFCURVE",
"244 230 CURVE",
"321 230 OFFCURVE",
"393 214 OFFCURVE",
"393 129 CURVE SMOOTH",
"393 65 OFFCURVE",
"352 17 OFFCURVE",
"262 17 CURVE SMOOTH",
"209 17 OFFCURVE",
"150 38 OFFCURVE",
"112 75 CURVE",
"70 -39 LINE",
"126 -79 OFFCURVE",
"199 -97 OFFCURVE",
"275 -97 CURVE SMOOTH"
);
}
);
width = 599;
}
);
userData = {
RMXScaler = {
source = three;
};
};
},
{
glyphname = four.tosf;
lastChange = "2018-05-28 03:16:46 +0000";
layers = (
{
layerId = "B61D43DE-5272-4FF4-A680-608B6BF5ED9E";
paths = (
{
closed = 1;
nodes = (
"573 126 LINE",
"573 237 LINE",
"205 237 LINE",
"379 760 LINE",
"240 760 LINE",
"22 126 LINE"
);
},
{
closed = 1;
nodes = (
"476 0 LINE",
"476 438 LINE",
"353 438 LINE",
"343 158 LINE",
"343 0 LINE"
);
}
);
width = 599;
}
);
userData = {
RMXScaler = {
source = four;
};
};
},
{
glyphname = five.tosf;
lastChange = "2018-05-28 03:16:46 +0000";
layers = (
{
layerId = "B61D43DE-5272-4FF4-A680-608B6BF5ED9E";
paths = (
{
closed = 1;
nodes = (
"427 -94 OFFCURVE",
"539 2 OFFCURVE",
"539 158 CURVE SMOOTH",
"539 289 OFFCURVE",
"464 373 OFFCURVE",
"323 373 CURVE SMOOTH",
"287 373 OFFCURVE",
"258 370 OFFCURVE",
"227 361 CURVE",
"237 510 LINE",
"509 510 LINE",
"509 616 LINE",
"123 616 LINE",
"110 243 LINE",
"131 256 OFFCURVE",
"196 275 OFFCURVE",
"252 275 CURVE SMOOTH",
"349 275 OFFCURVE",
"404 224 OFFCURVE",
"404 145 CURVE SMOOTH",
"404 26 OFFCURVE",
"311 15 OFFCURVE",
"247 15 CURVE SMOOTH",
"200 15 OFFCURVE",
"145 36 OFFCURVE",
"116 63 CURVE",
"79 -49 LINE",
"128 -82 OFFCURVE",
"203 -94 OFFCURVE",
"264 -94 CURVE SMOOTH"
);
}
);
width = 599;
}
);
userData = {
RMXScaler = {
source = five;
};
};
},
{
color = 9;
glyphname = six.tosf;
lastChange = "2018-05-28 04:51:56 +0000";
layers = (
{
layerId = "B61D43DE-5272-4FF4-A680-608B6BF5ED9E";
paths = (
{
closed = 1;
nodes = (
"457 -15 OFFCURVE",
"551 85 OFFCURVE",
"551 239 CURVE SMOOTH",
"551 360 OFFCURVE",
"484 457 OFFCURVE",
"349 457 CURVE SMOOTH",
"276 457 OFFCURVE",
"208 427 OFFCURVE",
"172 358 CURVE",
"172 369 OFFCURVE",
"172 381 OFFCURVE",
"173 395 CURVE SMOOTH",
"180 498 OFFCURVE",
"242 605 OFFCURVE",
"346 605 CURVE SMOOTH",
"383 605 OFFCURVE",
"434 596 OFFCURVE",
"461 567 CURVE",
"510 663 LINE",
"478 694 OFFCURVE",
"433 714 OFFCURVE",
"339 714 CURVE SMOOTH",
"163 714 OFFCURVE",
"45 570 OFFCURVE",
"45 336 CURVE SMOOTH",
"45 73 OFFCURVE",
"184 -15 OFFCURVE",
"303 -15 CURVE SMOOTH"
);
},
{
closed = 1;
nodes = (
"246 88 OFFCURVE",
"203 144 OFFCURVE",
"187 208 CURVE SMOOTH",
"184 220 OFFCURVE",
"183 231 OFFCURVE",
"183 241 CURVE",
"187 306 OFFCURVE",
"249 355 OFFCURVE",
"319 355 CURVE SMOOTH",
"391 355 OFFCURVE",
"421 303 OFFCURVE",
"421 225 CURVE SMOOTH",
"421 139 OFFCURVE",
"371 88 OFFCURVE",
"308 88 CURVE SMOOTH"
);
}
);
width = 599;
}
);
userData = {
RMXScaler = {
source = six;
};
};
},
{
glyphname = seven.tosf;
lastChange = "2018-05-24 19:23:14 +0000";
layers = (
{
layerId = "B61D43DE-5272-4FF4-A680-608B6BF5ED9E";
paths = (
{
closed = 1;
nodes = (
"314 -81 LINE",
"542 616 LINE",
"85 616 LINE",
"85 498 LINE",
"449 498 LINE",
"398 566 LINE",
"169 -81 LINE"
);
}
);
width = 599;
}
);
userData = {
RMXScaler = {
source = seven;
};
};
},
{
color = 9;
glyphname = eight.tosf;
lastChange = "2018-05-28 04:51:56 +0000";
layers = (
{
layerId = "B61D43DE-5272-4FF4-A680-608B6BF5ED9E";
paths = (
{
closed = 1;
nodes = (
"425 -18 OFFCURVE",
"551 40 OFFCURVE",
"551 191 CURVE SMOOTH",
"551 294 OFFCURVE",
"475 349 OFFCURVE",
"374 368 CURVE",
"378 350 LINE",
"461 373 OFFCURVE",
"524 433 OFFCURVE",
"524 533 CURVE SMOOTH",
"524 665 OFFCURVE",
"416 714 OFFCURVE",
"301 714 CURVE SMOOTH",
"185 714 OFFCURVE",
"75 665 OFFCURVE",
"75 533 CURVE SMOOTH",
"75 432 OFFCURVE",
"134 373 OFFCURVE",
"220 350 CURVE",
"223 368 LINE",
"125 349 OFFCURVE",
"48 294 OFFCURVE",
"48 191 CURVE SMOOTH",
"48 40 OFFCURVE",
"174 -18 OFFCURVE",
"300 -18 CURVE SMOOTH"
);
},
{
closed = 1;
nodes = (
"223 83 OFFCURVE",
"188 119 OFFCURVE",
"188 193 CURVE SMOOTH",
"188 283 OFFCURVE",
"242 310 OFFCURVE",
"300 310 CURVE SMOOTH",
"357 310 OFFCURVE",
"410 283 OFFCURVE",
"410 193 CURVE SMOOTH",
"410 119 OFFCURVE",
"376 83 OFFCURVE",
"300 83 CURVE SMOOTH"
);
},
{
closed = 1;
nodes = (
"240 412 OFFCURVE",
"205 452 OFFCURVE",
"205 524 CURVE SMOOTH",
"205 589 OFFCURVE",
"234 622 OFFCURVE",
"302 622 CURVE SMOOTH",
"369 622 OFFCURVE",
"395 589 OFFCURVE",
"395 524 CURVE SMOOTH",
"395 451 OFFCURVE",
"364 412 OFFCURVE",
"302 412 CURVE SMOOTH"
);
}
);
width = 599;
}
);
userData = {
RMXScaler = {
source = eight;
};
};
},
{
color = 9;
glyphname = nine.tosf;
lastChange = "2018-05-28 04:51:56 +0000";
layers = (
{
layerId = "B61D43DE-5272-4FF4-A680-608B6BF5ED9E";
paths = (
{
closed = 1;
nodes = (
"427 -97 OFFCURVE",
"547 47 OFFCURVE",
"547 281 CURVE SMOOTH",
"547 544 OFFCURVE",
"416 632 OFFCURVE",
"297 632 CURVE SMOOTH",
"146 632 OFFCURVE",
"40 534 OFFCURVE",
"40 380 CURVE SMOOTH",
"40 259 OFFCURVE",
"109 160 OFFCURVE",
"241 160 CURVE SMOOTH",
"314 160 OFFCURVE",
"383 190 OFFCURVE",
"419 259 CURVE",
"419 248 OFFCURVE",
"418 236 OFFCURVE",
"418 222 CURVE SMOOTH",
"418 101 OFFCURVE",
"348 16 OFFCURVE",
"244 16 CURVE SMOOTH",
"210 16 OFFCURVE",
"159 25 OFFCURVE",
"132 54 CURVE",
"83 -46 LINE",
"115 -77 OFFCURVE",
"160 -97 OFFCURVE",
"251 -97 CURVE SMOOTH"
);
},
{
closed = 1;
nodes = (
"205 262 OFFCURVE",
"172 314 OFFCURVE",
"172 392 CURVE SMOOTH",
"172 478 OFFCURVE",
"228 529 OFFCURVE",
"291 529 CURVE SMOOTH",
"353 529 OFFCURVE",
"399 474 OFFCURVE",
"404 410 CURVE SMOOTH",
"405 398 OFFCURVE",
"408 387 OFFCURVE",
"408 377 CURVE",
"404 312 OFFCURVE",
"340 262 OFFCURVE",
"274 262 CURVE SMOOTH"
);
}
);
width = 599;
}
);
userData = {
RMXScaler = {
source = nine;
};
};
},
{
glyphname = zero.tosf.zero;
lastChange = "2018-05-25 16:23:00 +0000";
layers = (
{
components = (
{
name = zero.tosf;
}
);
layerId = "B61D43DE-5272-4FF4-A680-608B6BF5ED9E";
paths = (
{
closed = 1;
nodes = (
"239 89 LINE",
"415 525 LINE",
"336 525 LINE",
"160 89 LINE"
);
}
);
width = 582;
}
);
leftMetricsKey = zero.tosf.zero;
rightMetricsKey = zero.tosf.zero;
},
{
glyphname = zero.zero;
lastChange = "2018-05-25 14:23:42 +0000";
layers = (
{
components = (
{
name = zero;
}
);
layerId = "B61D43DE-5272-4FF4-A680-608B6BF5ED9E";
paths = (
{
closed = 1;
nodes = (
"243 89 LINE",
"419 609 LINE",
"340 609 LINE",
"164 89 LINE"
);
}
);
width = 580;
}
);
leftKerningGroup = zero;
leftMetricsKey = zero;
rightKerningGroup = zero;
rightMetricsKey = zero;
},
{
glyphname = zeroinferior;
lastChange = "2018-05-25 19:32:37 +0000";
layers = (
{
layerId = "B61D43DE-5272-4FF4-A680-608B6BF5ED9E";
paths = (
{
closed = 1;
nodes = (
"386 -150 OFFCURVE",
"442 -53 OFFCURVE",
"442 85 CURVE SMOOTH",
"442 247 OFFCURVE",
"371 322 OFFCURVE",
"249 322 CURVE SMOOTH",
"127 322 OFFCURVE",
"56 247 OFFCURVE",
"56 85 CURVE SMOOTH",
"56 -53 OFFCURVE",
"112 -150 OFFCURVE",
"249 -150 CURVE SMOOTH"
);
},
{
closed = 1;
nodes = (
"181 -76 OFFCURVE",
"159 -8 OFFCURVE",
"159 86 CURVE SMOOTH",
"159 186 OFFCURVE",
"182 250 OFFCURVE",
"246 250 CURVE SMOOTH",
"309 250 OFFCURVE",
"333 186 OFFCURVE",
"333 86 CURVE SMOOTH",
"333 -8 OFFCURVE",
"311 -76 OFFCURVE",
"246 -76 CURVE SMOOTH"
);
}
);
width = 498;
}
);
leftKerningGroup = zero.numr;
rightKerningGroup = zero.numr;
unicode = 2080;
},
{
glyphname = oneinferior;
lastChange = "2018-05-25 19:32:37 +0000";
layers = (
{
layerId = "B61D43DE-5272-4FF4-A680-608B6BF5ED9E";
paths = (
{
closed = 1;
nodes = (
"187 -140 LINE",
"187 326 LINE",
"84 301 LINE",
"84 -140 LINE"
);
}
);
width = 271;
}
);
leftKerningGroup = one.numr;
rightKerningGroup = one.numr;
unicode = 2081;
},
{
glyphname = twoinferior;
lastChange = "2018-05-25 19:32:37 +0000";
layers = (
{
layerId = "B61D43DE-5272-4FF4-A680-608B6BF5ED9E";
paths = (
{
closed = 1;
nodes = (
"393 -140 LINE",
"393 -61 LINE",
"103 -61 LINE",
"151 -87 LINE",
"151 -22 OFFCURVE",
"207 -16 OFFCURVE",
"273 31 CURVE SMOOTH",
"335 75 OFFCURVE",
"393 110 OFFCURVE",
"393 193 CURVE SMOOTH",
"393 275 OFFCURVE",
"330 326 OFFCURVE",
"224 326 CURVE SMOOTH",
"121 326 OFFCURVE",
"63 262 OFFCURVE",
"54 208 CURVE",
"135 178 LINE",
"138 209 OFFCURVE",
"174 245 OFFCURVE",
"219 245 CURVE SMOOTH",
"268 245 OFFCURVE",
"294 219 OFFCURVE",
"294 185 CURVE SMOOTH",
"294 115 OFFCURVE",
"219 88 OFFCURVE",
"166 59 CURVE SMOOTH",
"75 9 OFFCURVE",
"54 -41 OFFCURVE",
"54 -100 CURVE SMOOTH",
"54 -119 OFFCURVE",
"57 -126 OFFCURVE",
"60 -140 CURVE"
);
}
);
width = 450;
}
);
leftKerningGroup = two.numr;
rightKerningGroup = two.numr;
unicode = 2082;
},
{
glyphname = threeinferior;
lastChange = "2018-05-25 19:32:37 +0000";
layers = (
{
layerId = "B61D43DE-5272-4FF4-A680-608B6BF5ED9E";
paths = (
{
closed = 1;
nodes = (
"284 -153 OFFCURVE",
"366 -102 OFFCURVE",
"366 -16 CURVE SMOOTH",
"366 38 OFFCURVE",
"330 90 OFFCURVE",
"265 90 CURVE",
"321 102 OFFCURVE",
"353 161 OFFCURVE",
"353 210 CURVE SMOOTH",
"353 284 OFFCURVE",
"286 326 OFFCURVE",
"182 326 CURVE SMOOTH",
"118 326 OFFCURVE",
"65 306 OFFCURVE",
"35 283 CURVE",
"65 214 LINE",
"93 240 OFFCURVE",
"130 248 OFFCURVE",
"168 248 CURVE SMOOTH",
"206 248 OFFCURVE",
"247 234 OFFCURVE",
"247 190 CURVE SMOOTH",
"247 151 OFFCURVE",
"217 121 OFFCURVE",
"155 121 CURVE",
"155 121 OFFCURVE",
"115 122 OFFCURVE",
"115 121 CURVE",
"115 57 LINE",
"114 58 OFFCURVE",
"130 58 OFFCURVE",
"147 58 CURVE SMOOTH",
"206 58 OFFCURVE",
"259 48 OFFCURVE",
"259 -7 CURVE SMOOTH",
"259 -48 OFFCURVE",
"234 -79 OFFCURVE",
"166 -79 CURVE SMOOTH",
"126 -79 OFFCURVE",
"86 -65 OFFCURVE",
"58 -41 CURVE",
"25 -115 LINE",
"68 -141 OFFCURVE",
"118 -153 OFFCURVE",
"176 -153 CURVE SMOOTH"
);
}
);
width = 420;
}
);
leftKerningGroup = three.numr;
rightKerningGroup = three.numr;
unicode = 2083;
},
{
glyphname = fourinferior;
lastChange = "2018-05-28 04:53:45 +0000";
layers = (
{
layerId = "B61D43DE-5272-4FF4-A680-608B6BF5ED9E";
paths = (
{
closed = 1;
nodes = (
"405 -58 LINE",
"405 15 LINE",
"142 15 LINE",
"172 107 LINE",
"235 311 LINE",
"133 311 LINE",
"26 -58 LINE"
);
},
{
closed = 1;
nodes = (
"340 -140 LINE",
"340 143 LINE",
"253 143 LINE",
"245 -28 LINE",
"245 -140 LINE"
);
}
);
width = 436;
}
);
leftKerningGroup = four.numr;
rightKerningGroup = four.numr;
unicode = 2084;
},
{
glyphname = fiveinferior;
lastChange = "2018-05-25 19:32:37 +0000";
layers = (
{
layerId = "B61D43DE-5272-4FF4-A680-608B6BF5ED9E";
paths = (
{
closed = 1;
nodes = (
"313 -153 OFFCURVE",
"389 -90 OFFCURVE",
"389 11 CURVE SMOOTH",
"389 96 OFFCURVE",
"336 153 OFFCURVE",
"229 153 CURVE SMOOTH",
"211 153 OFFCURVE",
"177 149 OFFCURVE",
"160 142 CURVE",
"169 237 LINE",
"360 237 LINE",
"360 311 LINE",
"83 311 LINE",
"69 61 LINE",
"85 69 OFFCURVE",
"142 78 OFFCURVE",
"199 78 CURVE SMOOTH",
"273 78 OFFCURVE",
"292 44 OFFCURVE",
"292 4 CURVE SMOOTH",
"292 -62 OFFCURVE",
"225 -75 OFFCURVE",
"176 -75 CURVE SMOOTH",
"141 -75 OFFCURVE",
"103 -64 OFFCURVE",
"80 -46 CURVE",
"50 -123 LINE",
"87 -144 OFFCURVE",
"143 -153 OFFCURVE",
"189 -153 CURVE SMOOTH"
);
}
);
width = 429;
}
);
leftKerningGroup = five.numr;
rightKerningGroup = five.numr;
unicode = 2085;
},
{
glyphname = sixinferior;
lastChange = "2018-05-26 04:54:15 +0000";
layers = (
{
layerId = "B61D43DE-5272-4FF4-A680-608B6BF5ED9E";
paths = (
{
closed = 1;
nodes = (
"350 -150 OFFCURVE",
"423 -94 OFFCURVE",
"423 6 CURVE SMOOTH",
"423 83 OFFCURVE",
"370 148 OFFCURVE",
"271 148 CURVE SMOOTH",
"219 148 OFFCURVE",
"156 122 OFFCURVE",
"130 77 CURVE",
"145 85 LINE",
"144 92 OFFCURVE",
"144 99 OFFCURVE",
"144 106 CURVE SMOOTH",
"144 181 OFFCURVE",
"188 250 OFFCURVE",
"267 250 CURVE SMOOTH",
"293 250 OFFCURVE",
"330 243 OFFCURVE",
"349 225 CURVE",
"388 290 LINE",
"365 310 OFFCURVE",
"328 323 OFFCURVE",
"264 323 CURVE SMOOTH",
"134 323 OFFCURVE",
"56 211 OFFCURVE",
"56 69 CURVE SMOOTH",
"56 -100 OFFCURVE",
"154 -150 OFFCURVE",
"239 -150 CURVE SMOOTH"
);
},
{
closed = 1;
nodes = (
"199 -78 OFFCURVE",
"172 -58 OFFCURVE",
"160 -16 CURVE SMOOTH",
"158 -9 OFFCURVE",
"157 -2 OFFCURVE",
"157 5 CURVE",
"160 47 OFFCURVE",
"200 77 OFFCURVE",
"252 77 CURVE SMOOTH",
"303 77 OFFCURVE",
"332 48 OFFCURVE",
"332 -3 CURVE SMOOTH",
"332 -58 OFFCURVE",
"289 -78 OFFCURVE",
"244 -78 CURVE SMOOTH"
);
}
);
width = 479;
}
);
leftKerningGroup = six.numr;
rightKerningGroup = six.numr;
unicode = 2086;
},
{
glyphname = seveninferior;
lastChange = "2018-05-25 19:32:37 +0000";
layers = (
{
layerId = "B61D43DE-5272-4FF4-A680-608B6BF5ED9E";
paths = (
{
closed = 1;
nodes = (
"208 -140 LINE",
"379 311 LINE",
"35 311 LINE",
"35 234 LINE",
"309 234 LINE",
"272 279 LINE",
"100 -140 LINE"
);
}
);
width = 393;
}
);
leftKerningGroup = seven.numr;
rightKerningGroup = seven.numr;
unicode = 2087;
},
{
glyphname = eightinferior;
lastChange = "2018-05-28 04:52:41 +0000";
layers = (
{
layerId = "B61D43DE-5272-4FF4-A680-608B6BF5ED9E";
paths = (
{
closed = 1;
nodes = (
"335 -153 OFFCURVE",
"430 -116 OFFCURVE",
"430 -18 CURVE SMOOTH",
"430 53 OFFCURVE",
"364 93 OFFCURVE",
"284 104 CURVE",
"288 88 LINE",
"353 101 OFFCURVE",
"409 139 OFFCURVE",
"409 209 CURVE SMOOTH",
"409 294 OFFCURVE",
"329 326 OFFCURVE",
"246 326 CURVE SMOOTH",
"161 326 OFFCURVE",
"80 294 OFFCURVE",
"80 209 CURVE SMOOTH",
"80 139 OFFCURVE",
"133 100 OFFCURVE",
"203 89 CURVE",
"205 104 LINE",
"124 93 OFFCURVE",
"58 53 OFFCURVE",
"58 -18 CURVE SMOOTH",
"58 -116 OFFCURVE",
"154 -153 OFFCURVE",
"245 -153 CURVE SMOOTH"
);
},
{
closed = 1;
nodes = (
"189 -83 OFFCURVE",
"160 -60 OFFCURVE",
"160 -13 CURVE SMOOTH",
"160 45 OFFCURVE",
"203 59 OFFCURVE",
"245 59 CURVE SMOOTH",
"286 59 OFFCURVE",
"329 45 OFFCURVE",
"329 -13 CURVE SMOOTH",
"329 -60 OFFCURVE",
"300 -83 OFFCURVE",
"245 -83 CURVE SMOOTH"
);
},
{
closed = 1;
nodes = (
"202 131 OFFCURVE",
"175 153 OFFCURVE",
"175 199 CURVE SMOOTH",
"175 242 OFFCURVE",
"197 261 OFFCURVE",
"247 261 CURVE SMOOTH",
"295 261 OFFCURVE",
"315 242 OFFCURVE",
"315 199 CURVE SMOOTH",
"315 153 OFFCURVE",
"291 131 OFFCURVE",
"247 131 CURVE SMOOTH"
);
}
);
width = 488;
}
);
leftKerningGroup = eight.numr;
rightKerningGroup = eight.numr;
unicode = 2088;
},
{
glyphname = nineinferior;
lastChange = "2018-05-26 04:54:15 +0000";
layers = (
{
layerId = "B61D43DE-5272-4FF4-A680-608B6BF5ED9E";
paths = (
{
closed = 1;
nodes = (
"345 -150 OFFCURVE",
"423 -38 OFFCURVE",
"423 104 CURVE SMOOTH",
"423 273 OFFCURVE",
"325 323 OFFCURVE",
"240 323 CURVE SMOOTH",
"129 323 OFFCURVE",
"56 267 OFFCURVE",
"56 167 CURVE SMOOTH",
"56 90 OFFCURVE",
"109 25 OFFCURVE",
"208 25 CURVE SMOOTH",
"260 25 OFFCURVE",
"323 51 OFFCURVE",
"349 96 CURVE",
"334 88 LINE",
"335 81 OFFCURVE",
"335 74 OFFCURVE",
"335 67 CURVE SMOOTH",
"335 -8 OFFCURVE",
"291 -77 OFFCURVE",
"212 -77 CURVE SMOOTH",
"186 -77 OFFCURVE",
"149 -70 OFFCURVE",
"130 -52 CURVE",
"91 -117 LINE",
"114 -137 OFFCURVE",
"151 -150 OFFCURVE",
"215 -150 CURVE SMOOTH"
);
},
{
closed = 1;
nodes = (
"176 96 OFFCURVE",
"147 125 OFFCURVE",
"147 176 CURVE SMOOTH",
"147 231 OFFCURVE",
"190 251 OFFCURVE",
"235 251 CURVE SMOOTH",
"280 251 OFFCURVE",
"307 231 OFFCURVE",
"319 189 CURVE SMOOTH",
"321 182 OFFCURVE",
"322 175 OFFCURVE",
"322 168 CURVE",
"319 126 OFFCURVE",
"279 96 OFFCURVE",
"227 96 CURVE SMOOTH"
);
}
);
width = 479;
}
);
leftKerningGroup = nine.numr;
rightKerningGroup = nine.numr;
unicode = 2089;
},
{
glyphname = fraction;
lastChange = "2018-05-24 19:23:14 +0000";
layers = (
{
layerId = "B61D43DE-5272-4FF4-A680-608B6BF5ED9E";
paths = (
{
closed = 1;
nodes = (
"-126 -11 OFFCURVE",
"-29 -10 OFFCURVE",
"-26 -10 CURVE",
"356 798 LINE",
"251 798 LINE",
"-130 -11 LINE"
);
}
);
width = 225;
}
);
leftKerningGroup = fraction;
rightKerningGroup = fraction;
unicode = 2044;
},
{
glyphname = period;
lastChange = "2018-05-25 19:58:46 +0000";
layers = (
{
layerId = "B61D43DE-5272-4FF4-A680-608B6BF5ED9E";
paths = (
{
closed = 1;
nodes = (
"163 0 LINE",
"163 129 LINE",
"50 129 LINE",
"50 0 LINE"
);
}
);
width = 213;
}
);
leftKerningGroup = period;
rightKerningGroup = period;
unicode = 002E;
},
{
glyphname = comma;
lastChange = "2018-05-28 03:16:46 +0000";
layers = (
{
layerId = "B61D43DE-5272-4FF4-A680-608B6BF5ED9E";
paths = (
{
closed = 1;
nodes = (
"120 -163 LINE",
"143 -129 OFFCURVE",
"163 -22 OFFCURVE",
"163 71 CURVE",
"163 129 LINE",
"54 129 LINE",
"54 47 LINE",
"54 -34 OFFCURVE",
"45 -136 OFFCURVE",
"34 -163 CURVE"
);
}
);
width = 223;
}
);
leftKerningGroup = period;
rightKerningGroup = period;
unicode = 002C;
},
{
glyphname = exclam;
lastChange = "2018-05-26 22:56:53 +0000";
layers = (
{
layerId = "B61D43DE-5272-4FF4-A680-608B6BF5ED9E";
paths = (
{
closed = 1;
nodes = (
"213 233 LINE",
"227 769 LINE",
"90 769 LINE",
"103 233 LINE"
);
},
{
closed = 1;
nodes = (
"215 0 LINE",
"215 129 LINE",
"101 129 LINE",
"101 0 LINE"
);
}
);
width = 317;
}
);
leftKerningGroup = exclam;
rightKerningGroup = exclam;
unicode = 0021;
},
{
glyphname = exclamdown;
lastChange = "2018-05-28 03:16:46 +0000";
layers = (
{
layerId = "B61D43DE-5272-4FF4-A680-608B6BF5ED9E";
paths = (
{
closed = 1;
nodes = (
"227 -160 LINE",
"214 376 LINE",
"104 376 LINE",
"90 -160 LINE"
);
},
{
closed = 1;
nodes = (
"216 480 LINE",
"216 609 LINE",
"102 609 LINE",
"102 480 LINE"
);
}
);
width = 317;
}
);
leftKerningGroup = exclamdown;
leftMetricsKey = exclam;
rightKerningGroup = exclamdown;
rightMetricsKey = exclam;
unicode = 00A1;
},
{
color = 9;
glyphname = question;
lastChange = "2018-05-28 04:33:36 +0000";
layers = (
{
layerId = "B61D43DE-5272-4FF4-A680-608B6BF5ED9E";
paths = (
{
closed = 1;
nodes = (
"227 225 LINE",
"226 255 LINE",
"226 441 OFFCURVE",
"404 422 OFFCURVE",
"404 582 CURVE SMOOTH",
"404 699 OFFCURVE",
"334 777 OFFCURVE",
"186 777 CURVE SMOOTH",
"94 777 OFFCURVE",
"24 730 OFFCURVE",
"-10 688 CURVE",
"61 588 LINE",
"78 621 OFFCURVE",
"120 663 OFFCURVE",
"183 663 CURVE SMOOTH",
"236 663 OFFCURVE",
"274 636 OFFCURVE",
"274 579 CURVE SMOOTH",
"274 452 OFFCURVE",
"116 463 OFFCURVE",
"116 290 CURVE SMOOTH",
"116 270 OFFCURVE",
"118 251 OFFCURVE",
"123 225 CURVE"
);
},
{
closed = 1;
nodes = (
"235 0 LINE",
"235 129 LINE",
"122 129 LINE",
"122 0 LINE"
);
}
);
width = 424;
}
);
leftKerningGroup = question;
rightKerningGroup = question;
unicode = 003F;
userData = {
com.typemytype.robofont.mark = (
0.6,
1,
0.628,
1
);
};
},
{
color = 9;
glyphname = questiondown;
lastChange = "2018-05-28 04:29:57 +0000";
layers = (
{
layerId = "B61D43DE-5272-4FF4-A680-608B6BF5ED9E";
paths = (
{
closed = 1;
nodes = (
"330 -168 OFFCURVE",
"400 -121 OFFCURVE",
"434 -79 CURVE",
"363 21 LINE",
"346 -12 OFFCURVE",
"304 -54 OFFCURVE",
"241 -54 CURVE SMOOTH",
"188 -54 OFFCURVE",
"150 -27 OFFCURVE",
"150 30 CURVE SMOOTH",
"150 157 OFFCURVE",
"308 146 OFFCURVE",
"308 319 CURVE SMOOTH",
"308 339 OFFCURVE",
"306 358 OFFCURVE",
"301 384 CURVE",
"197 384 LINE",
"198 354 LINE",
"198 168 OFFCURVE",
"20 187 OFFCURVE",
"20 27 CURVE SMOOTH",
"20 -90 OFFCURVE",
"90 -168 OFFCURVE",
"238 -168 CURVE SMOOTH"
);
},
{
closed = 1;
nodes = (
"302 480 LINE",
"302 609 LINE",
"189 609 LINE",
"189 480 LINE"
);
}
);
width = 424;
}
);
leftKerningGroup = questiondown;
rightKerningGroup = questiondown;
unicode = 00BF;
userData = {
com.typemytype.robofont.mark = (
0.6,
1,
0.628,
1
);
};
},
{
glyphname = bullet;
lastChange = "2018-05-24 19:23:14 +0000";
layers = (
{
layerId = "B61D43DE-5272-4FF4-A680-608B6BF5ED9E";
paths = (
{
closed = 1;
nodes = (
"218 220 OFFCURVE",
"262 250 OFFCURVE",
"262 317 CURVE SMOOTH",
"262 380 OFFCURVE",
"217 415 OFFCURVE",
"169 415 CURVE SMOOTH",
"123 415 OFFCURVE",
"78 380 OFFCURVE",
"78 317 CURVE SMOOTH",
"78 250 OFFCURVE",
"122 220 OFFCURVE",
"169 220 CURVE SMOOTH"
);
}
);
width = 337;
}
);
leftKerningGroup = bullet;
rightKerningGroup = bullet;
unicode = 2022;
},
{
glyphname = asterisk;
lastChange = "2018-05-26 23:00:15 +0000";
layers = (
{
layerId = "B61D43DE-5272-4FF4-A680-608B6BF5ED9E";
paths = (
{
closed = 1;
nodes = (
"259 523 LINE",
"236 522 LINE",
"334 368 LINE",
"416 426 LINE",
"300 563 LINE",
"300 544 LINE",
"460 590 LINE",
"428 682 LINE",
"275 619 LINE",
"288 604 LINE",
"297 776 LINE",
"196 776 LINE",
"207 604 LINE",
"218 620 LINE",
"65 684 LINE",
"36 592 LINE",
"194 545 LINE",
"193 564 LINE",
"78 427 LINE",
"161 368 LINE"
);
}
);
width = 495;
}
);
leftKerningGroup = asterisk;
rightKerningGroup = asterisk;
unicode = 002A;
},
{
glyphname = numbersign;
lastChange = "2018-05-28 03:16:46 +0000";
layers = (
{
layerId = "B61D43DE-5272-4FF4-A680-608B6BF5ED9E";
paths = (
{
closed = 1;
nodes = (
"409 44 LINE",
"496 717 LINE",
"410 717 LINE",
"323 44 LINE"
);
},
{
closed = 1;
nodes = (
"550 206 LINE",
"550 283 LINE",
"43 283 LINE",
"43 206 LINE"
);
},
{
closed = 1;
nodes = (
"208 44 LINE",
"295 717 LINE",
"209 717 LINE",
"122 44 LINE"
);
},
{
closed = 1;
nodes = (
"576 477 LINE",
"576 553 LINE",
"69 553 LINE",
"69 477 LINE"
);
}
);
width = 619;
}
);
leftKerningGroup = numbersign;
rightKerningGroup = numbersign;
unicode = 0023;
},
{
glyphname = slash;
lastChange = "2018-05-28 03:16:46 +0000";
layers = (
{
layerId = "B61D43DE-5272-4FF4-A680-608B6BF5ED9E";
paths = (
{
closed = 1;
nodes = (
"378 879 LINE",
"280 879 LINE",
"-18 -179 LINE",
"80 -180 LINE"
);
}
);
width = 360;
}
);
leftKerningGroup = slash;
rightKerningGroup = slash;
unicode = 002F;
},
{
glyphname = backslash;
lastChange = "2018-05-28 03:16:46 +0000";
layers = (
{
layerId = "B61D43DE-5272-4FF4-A680-608B6BF5ED9E";
paths = (
{
closed = 1;
nodes = (
"378 -179 LINE",
"80 879 LINE",
"-18 879 LINE",
"280 -180 LINE"
);
}
);
width = 360;
}
);
leftKerningGroup = backslash;
leftMetricsKey = slash;
rightKerningGroup = backslash;
rightMetricsKey = slash;
unicode = 005C;
},
{
color = 9;
glyphname = questiondown.cap;
lastChange = "2018-05-28 04:29:57 +0000";
layers = (
{
layerId = "B61D43DE-5272-4FF4-A680-608B6BF5ED9E";
paths = (
{
closed = 1;
nodes = (
"330 -80 OFFCURVE",
"400 -33 OFFCURVE",
"434 9 CURVE",
"363 109 LINE",
"346 76 OFFCURVE",
"304 34 OFFCURVE",
"241 34 CURVE SMOOTH",
"188 34 OFFCURVE",
"150 61 OFFCURVE",
"150 118 CURVE SMOOTH",
"150 245 OFFCURVE",
"308 234 OFFCURVE",
"308 407 CURVE SMOOTH",
"308 427 OFFCURVE",
"306 446 OFFCURVE",
"301 472 CURVE",
"197 472 LINE",
"198 442 LINE",
"198 256 OFFCURVE",
"20 275 OFFCURVE",
"20 115 CURVE SMOOTH",
"20 -2 OFFCURVE",
"90 -80 OFFCURVE",
"238 -80 CURVE SMOOTH"
);
},
{
closed = 1;
nodes = (
"302 568 LINE",
"302 697 LINE",
"189 697 LINE",
"189 568 LINE"
);
}
);
width = 424;
}
);
leftKerningGroup = questiondown.cap;
rightKerningGroup = questiondown.cap;
userData = {
com.typemytype.robofont.mark = (
0.6,
1,
0.628,
1
);
};
},
{
glyphname = bullet.case;
lastChange = "2018-05-24 19:23:14 +0000";
layers = (
{
layerId = "B61D43DE-5272-4FF4-A680-608B6BF5ED9E";
paths = (
{
closed = 1;
nodes = (
"218 260 OFFCURVE",
"262 290 OFFCURVE",
"262 357 CURVE SMOOTH",
"262 420 OFFCURVE",
"217 455 OFFCURVE",
"169 455 CURVE SMOOTH",
"123 455 OFFCURVE",
"78 420 OFFCURVE",
"78 357 CURVE SMOOTH",
"78 290 OFFCURVE",
"122 260 OFFCURVE",
"169 260 CURVE SMOOTH"
);
}
);
width = 340;
}
);
leftKerningGroup = bullet.case;
rightKerningGroup = bullet.case;
},
{
glyphname = slash.case;
lastChange = "2018-05-28 03:16:46 +0000";
layers = (
{
layerId = "B61D43DE-5272-4FF4-A680-608B6BF5ED9E";
paths = (
{
closed = 1;
nodes = (
"378 889 LINE",
"280 889 LINE",
"-18 -169 LINE",
"80 -170 LINE"
);
}
);
width = 360;
}
);
leftKerningGroup = slash.case;
leftMetricsKey = slash;
rightKerningGroup = slash.case;
rightMetricsKey = slash;
},
{
glyphname = backslash.case;
lastChange = "2018-05-28 03:16:46 +0000";
layers = (
{
layerId = "B61D43DE-5272-4FF4-A680-608B6BF5ED9E";
paths = (
{
closed = 1;
nodes = (
"378 -169 LINE",
"80 889 LINE",
"-18 889 LINE",
"280 -170 LINE"
);
}
);
width = 360;
}
);
leftKerningGroup = backslash.case;
leftMetricsKey = slash;
rightKerningGroup = backslash.case;
rightMetricsKey = slash;
},
{
color = 9;
glyphname = parenleft;
lastChange = "2018-05-28 05:04:34 +0000";
layers = (
{
layerId = "B61D43DE-5272-4FF4-A680-608B6BF5ED9E";
paths = (
{
closed = 1;
nodes = (
"366 -104 LINE",
"326 -76 OFFCURVE",
"189 26 OFFCURVE",
"189 330 CURVE SMOOTH",
"189 634 OFFCURVE",
"321 747 OFFCURVE",
"366 765 CURVE",
"322 809 LINE",
"236 794 OFFCURVE",
"63 624 OFFCURVE",
"63 330 CURVE SMOOTH",
"63 36 OFFCURVE",
"236 -124 OFFCURVE",
"322 -148 CURVE"
);
}
);
width = 386;
}
);
leftKerningGroup = parenleft;
rightKerningGroup = parenleft;
unicode = 0028;
},
{
color = 9;
glyphname = parenright;
lastChange = "2018-05-28 05:04:34 +0000";
layers = (
{
layerId = "B61D43DE-5272-4FF4-A680-608B6BF5ED9E";
paths = (
{
closed = 1;
nodes = (
"177 -128 OFFCURVE",
"350 32 OFFCURVE",
"350 326 CURVE SMOOTH",
"350 620 OFFCURVE",
"177 790 OFFCURVE",
"91 805 CURVE",
"47 761 LINE",
"92 743 OFFCURVE",
"224 630 OFFCURVE",
"224 326 CURVE SMOOTH",
"224 22 OFFCURVE",
"87 -80 OFFCURVE",
"47 -108 CURVE",
"91 -152 LINE"
);
}
);
width = 386;
}
);
leftKerningGroup = parenright;
rightKerningGroup = parenright;
unicode = 0029;
},
{
color = 9;
glyphname = braceleft;
lastChange = "2018-05-28 05:04:34 +0000";
layers = (
{
layerId = "B61D43DE-5272-4FF4-A680-608B6BF5ED9E";
paths = (
{
closed = 1;
nodes = (
"353 -80 LINE",
"339 -83 OFFCURVE",
"327 -84 OFFCURVE",
"317 -84 CURVE SMOOTH",
"231 -84 OFFCURVE",
"228 -3 OFFCURVE",
"228 99 CURVE SMOOTH",
"228 188 LINE SMOOTH",
"228 280 OFFCURVE",
"173 319 OFFCURVE",
"139 328 CURVE",
"177 338 OFFCURVE",
"228 376 OFFCURVE",
"228 484 CURVE SMOOTH",
"228 561 LINE SMOOTH",
"228 664 OFFCURVE",
"230 745 OFFCURVE",
"317 745 CURVE SMOOTH",
"327 745 OFFCURVE",
"339 744 OFFCURVE",
"352 741 CURVE",
"351 805 LINE",
"337 807 OFFCURVE",
"323 808 OFFCURVE",
"310 808 CURVE SMOOTH",
"190 808 OFFCURVE",
"115 733 OFFCURVE",
"115 625 CURVE SMOOTH",
"115 444 LINE SMOOTH",
"115 367 OFFCURVE",
"52 367 OFFCURVE",
"24 367 CURVE",
"24 292 LINE",
"52 292 OFFCURVE",
"115 291 OFFCURVE",
"115 210 CURVE SMOOTH",
"115 35 LINE",
"115 -72 OFFCURVE",
"191 -147 OFFCURVE",
"309 -147 CURVE SMOOTH",
"323 -147 OFFCURVE",
"337 -146 OFFCURVE",
"352 -144 CURVE"
);
}
);
width = 392;
}
);
leftKerningGroup = braceleft;
rightKerningGroup = braceleft;
unicode = 007B;
},
{
color = 9;
glyphname = braceright;
lastChange = "2018-05-28 05:04:34 +0000";
layers = (
{
layerId = "B61D43DE-5272-4FF4-A680-608B6BF5ED9E";
paths = (
{
closed = 1;
nodes = (
"49 -147 OFFCURVE",
"63 -148 OFFCURVE",
"77 -148 CURVE SMOOTH",
"195 -148 OFFCURVE",
"271 -73 OFFCURVE",
"271 34 CURVE",
"271 209 LINE SMOOTH",
"271 290 OFFCURVE",
"334 291 OFFCURVE",
"362 291 CURVE",
"362 366 LINE",
"334 366 OFFCURVE",
"271 366 OFFCURVE",
"271 443 CURVE SMOOTH",
"271 624 LINE SMOOTH",
"271 732 OFFCURVE",
"196 807 OFFCURVE",
"76 807 CURVE SMOOTH",
"63 807 OFFCURVE",
"49 806 OFFCURVE",
"35 804 CURVE",
"34 740 LINE",
"47 743 OFFCURVE",
"59 744 OFFCURVE",
"69 744 CURVE SMOOTH",
"156 744 OFFCURVE",
"158 663 OFFCURVE",
"158 560 CURVE SMOOTH",
"158 483 LINE SMOOTH",
"158 375 OFFCURVE",
"209 337 OFFCURVE",
"247 327 CURVE",
"213 318 OFFCURVE",
"158 279 OFFCURVE",
"158 187 CURVE SMOOTH",
"158 98 LINE SMOOTH",
"158 -4 OFFCURVE",
"155 -85 OFFCURVE",
"69 -85 CURVE SMOOTH",
"59 -85 OFFCURVE",
"47 -84 OFFCURVE",
"33 -81 CURVE",
"34 -145 LINE"
);
}
);
width = 386;
}
);
leftKerningGroup = braceright;
rightKerningGroup = braceright;
unicode = 007D;
},
{
color = 9;
glyphname = bracketleft;
lastChange = "2018-05-28 05:04:34 +0000";
layers = (
{
layerId = "B61D43DE-5272-4FF4-A680-608B6BF5ED9E";
paths = (
{
closed = 1;
nodes = (
"342 -148 LINE",
"342 -75 LINE",
"196 -75 LINE",
"215 -98 LINE",
"215 756 LINE",
"196 732 LINE",
"342 732 LINE",
"342 805 LINE",
"105 805 LINE",
"105 -148 LINE"
);
}
);
width = 386;
}
);
leftKerningGroup = bracketleft;
rightKerningGroup = bracketleft;
unicode = 005B;
},
{
color = 9;
glyphname = bracketright;
lastChange = "2018-05-28 05:04:34 +0000";
layers = (
{
layerId = "B61D43DE-5272-4FF4-A680-608B6BF5ED9E";
paths = (
{
closed = 1;
nodes = (
"281 805 LINE",
"44 805 LINE",
"44 732 LINE",
"190 732 LINE",
"171 756 LINE",
"171 -98 LINE",
"190 -75 LINE",
"44 -75 LINE",
"44 -148 LINE",
"281 -148 LINE"
);
}
);
width = 386;
}
);
leftKerningGroup = bracketright;
rightKerningGroup = bracketright;
unicode = 005D;
},
{
color = 9;
glyphname = parenleft.case;
lastChange = "2018-05-28 05:05:47 +0000";
layers = (
{
layerId = "B61D43DE-5272-4FF4-A680-608B6BF5ED9E";
paths = (
{
closed = 1;
nodes = (
"366 -83 LINE",
"326 -56 OFFCURVE",
"189 46 OFFCURVE",
"189 351 CURVE SMOOTH",
"189 655 OFFCURVE",
"321 767 OFFCURVE",
"366 785 CURVE",
"322 830 LINE",
"236 815 OFFCURVE",
"63 644 OFFCURVE",
"63 351 CURVE SMOOTH",
"63 57 OFFCURVE",
"236 -104 OFFCURVE",
"322 -128 CURVE"
);
}
);
width = 386;
}
);
leftKerningGroup = parenleft.case;
rightKerningGroup = parenleft.case;
},
{
color = 9;
glyphname = parenright.case;
lastChange = "2018-05-28 05:05:47 +0000";
layers = (
{
layerId = "B61D43DE-5272-4FF4-A680-608B6BF5ED9E";
paths = (
{
closed = 1;
nodes = (
"177 -97 OFFCURVE",
"350 63 OFFCURVE",
"350 357 CURVE SMOOTH",
"350 651 OFFCURVE",
"177 821 OFFCURVE",
"91 836 CURVE",
"47 792 LINE",
"92 774 OFFCURVE",
"224 661 OFFCURVE",
"224 357 CURVE SMOOTH",
"224 53 OFFCURVE",
"87 -49 OFFCURVE",
"47 -77 CURVE",
"91 -121 LINE"
);
}
);
width = 386;
}
);
leftKerningGroup = parenright.case;
rightKerningGroup = parenright.case;
},
{
color = 9;
glyphname = braceleft.case;
lastChange = "2018-05-28 05:05:47 +0000";
layers = (
{
layerId = "B61D43DE-5272-4FF4-A680-608B6BF5ED9E";
paths = (
{
closed = 1;
nodes = (
"347 -56 LINE",
"334 -59 OFFCURVE",
"322 -60 OFFCURVE",
"311 -60 CURVE SMOOTH",
"225 -60 OFFCURVE",
"222 21 OFFCURVE",
"222 124 CURVE SMOOTH",
"222 213 LINE SMOOTH",
"222 305 OFFCURVE",
"167 344 OFFCURVE",
"133 353 CURVE",
"171 362 OFFCURVE",
"222 401 OFFCURVE",
"222 508 CURVE SMOOTH",
"222 585 LINE SMOOTH",
"222 689 OFFCURVE",
"224 769 OFFCURVE",
"309 769 CURVE SMOOTH",
"320 769 OFFCURVE",
"332 768 OFFCURVE",
"346 765 CURVE",
"345 829 LINE",
"330 831 OFFCURVE",
"316 832 OFFCURVE",
"302 832 CURVE SMOOTH",
"184 832 OFFCURVE",
"109 757 OFFCURVE",
"109 650 CURVE SMOOTH",
"109 468 LINE SMOOTH",
"109 392 OFFCURVE",
"46 392 OFFCURVE",
"18 392 CURVE",
"18 316 LINE",
"46 316 OFFCURVE",
"109 315 OFFCURVE",
"109 234 CURVE SMOOTH",
"109 60 LINE",
"109 -47 OFFCURVE",
"185 -123 OFFCURVE",
"305 -123 CURVE SMOOTH",
"318 -123 OFFCURVE",
"332 -122 OFFCURVE",
"346 -120 CURVE"
);
}
);
width = 386;
}
);
leftKerningGroup = braceleft.case;
rightKerningGroup = braceleft.case;
},
{
color = 9;
glyphname = braceright.case;
lastChange = "2018-05-28 05:05:47 +0000";
layers = (
{
layerId = "B61D43DE-5272-4FF4-A680-608B6BF5ED9E";
paths = (
{
closed = 1;
nodes = (
"54 -122 OFFCURVE",
"68 -123 OFFCURVE",
"81 -123 CURVE SMOOTH",
"201 -123 OFFCURVE",
"277 -47 OFFCURVE",
"277 60 CURVE",
"277 234 LINE SMOOTH",
"277 315 OFFCURVE",
"340 316 OFFCURVE",
"368 316 CURVE",
"368 392 LINE",
"340 392 OFFCURVE",
"277 392 OFFCURVE",
"277 468 CURVE SMOOTH",
"277 650 LINE SMOOTH",
"277 757 OFFCURVE",
"202 832 OFFCURVE",
"84 832 CURVE SMOOTH",
"70 832 OFFCURVE",
"56 831 OFFCURVE",
"41 829 CURVE",
"40 765 LINE",
"54 768 OFFCURVE",
"66 769 OFFCURVE",
"77 769 CURVE SMOOTH",
"162 769 OFFCURVE",
"164 689 OFFCURVE",
"164 585 CURVE SMOOTH",
"164 508 LINE SMOOTH",
"164 401 OFFCURVE",
"215 362 OFFCURVE",
"253 353 CURVE",
"219 344 OFFCURVE",
"164 305 OFFCURVE",
"164 213 CURVE SMOOTH",
"164 124 LINE SMOOTH",
"164 21 OFFCURVE",
"161 -60 OFFCURVE",
"75 -60 CURVE SMOOTH",
"64 -60 OFFCURVE",
"52 -59 OFFCURVE",
"39 -56 CURVE",
"40 -120 LINE"
);
}
);
width = 386;
}
);
leftKerningGroup = braceright.case;
rightKerningGroup = braceright.case;
},
{
color = 9;
glyphname = bracketleft.case;
lastChange = "2018-05-28 05:05:47 +0000";
layers = (
{
layerId = "B61D43DE-5272-4FF4-A680-608B6BF5ED9E";
paths = (
{
closed = 1;
nodes = (
"342 -121 LINE",
"342 -48 LINE",
"196 -49 LINE",
"215 -71 LINE",
"215 782 LINE",
"196 759 LINE",
"342 759 LINE",
"342 832 LINE",
"105 832 LINE",
"105 -121 LINE"
);
}
);
width = 386;
}
);
leftKerningGroup = bracketleft.case;
rightKerningGroup = bracketleft.case;
},
{
color = 9;
glyphname = bracketright.case;
lastChange = "2018-05-28 05:05:47 +0000";
layers = (
{
layerId = "B61D43DE-5272-4FF4-A680-608B6BF5ED9E";
paths = (
{
closed = 1;
nodes = (
"281 832 LINE",
"44 832 LINE",
"44 759 LINE",
"190 759 LINE",
"171 782 LINE",
"171 -71 LINE",
"190 -49 LINE",
"44 -48 LINE",
"44 -121 LINE",
"281 -121 LINE"
);
}
);
width = 386;
}
);
leftKerningGroup = bracketright.case;
rightKerningGroup = bracketright.case;
},
{
glyphname = hyphen;
lastChange = "2018-05-27 01:01:12 +0000";
layers = (
{
layerId = "B61D43DE-5272-4FF4-A680-608B6BF5ED9E";
paths = (
{
closed = 1;
nodes = (
"387 246 LINE",
"387 344 LINE",
"68 344 LINE",
"68 246 LINE"
);
}
);
width = 455;
}
);
leftKerningGroup = hyphen;
rightKerningGroup = hyphen;
unicode = 002D;
},
{
glyphname = softhyphen;
lastChange = "2018-05-24 19:23:14 +0000";
layers = (
{
layerId = "B61D43DE-5272-4FF4-A680-608B6BF5ED9E";
paths = (
{
closed = 1;
nodes = (
"387 246 LINE",
"387 344 LINE",
"68 344 LINE",
"68 246 LINE"
);
}
);
width = 455;
}
);
leftKerningGroup = hyphen;
leftMetricsKey = hyphen;
rightKerningGroup = hyphen;
rightMetricsKey = hyphen;
unicode = 00AD;
},
{
glyphname = endash;
lastChange = "2018-05-25 05:47:54 +0000";
layers = (
{
layerId = "B61D43DE-5272-4FF4-A680-608B6BF5ED9E";
paths = (
{
closed = 1;
nodes = (
"581 246 LINE",
"581 344 LINE",
"68 344 LINE",
"68 246 LINE"
);
}
);
width = 649;
}
);
leftKerningGroup = hyphen;
leftMetricsKey = hyphen;
rightKerningGroup = hyphen;
rightMetricsKey = hyphen;
unicode = 2013;
},
{
glyphname = emdash;
lastChange = "2018-05-24 19:23:14 +0000";
layers = (
{
layerId = "B61D43DE-5272-4FF4-A680-608B6BF5ED9E";
paths = (
{
closed = 1;
nodes = (
"885 246 LINE",
"885 344 LINE",
"68 344 LINE",
"68 246 LINE"
);
}
);
width = 953;
}
);
leftKerningGroup = hyphen;
leftMetricsKey = hyphen;
rightKerningGroup = hyphen;
rightMetricsKey = hyphen;
unicode = 2014;
},
{
glyphname = figuredash;
lastChange = "2018-05-25 05:25:43 +0000";
layers = (
{
layerId = "B61D43DE-5272-4FF4-A680-608B6BF5ED9E";
paths = (
{
closed = 1;
nodes = (
"512 246 LINE",
"512 344 LINE",
"68 344 LINE",
"68 246 LINE"
);
}
);
width = 580;
}
);
leftKerningGroup = hyphen;
leftMetricsKey = hyphen;
rightKerningGroup = hyphen;
rightMetricsKey = hyphen;
unicode = 2012;
},
{
glyphname = underscore;
lastChange = "2018-05-28 03:16:46 +0000";
layers = (
{
layerId = "B61D43DE-5272-4FF4-A680-608B6BF5ED9E";
paths = (
{
closed = 1;
nodes = (
"1012 -193 LINE",
"1012 -115 LINE",
"-12 -115 LINE",
"-12 -193 LINE"
);
}
);
width = 1000;
}
);
leftKerningGroup = underscore;
rightKerningGroup = underscore;
unicode = 005F;
userData = {
com.typemytype.robofont.mark = (
0.6,
1,
0.628,
1
);
};
},
{
glyphname = hyphen.case;
lastChange = "2018-05-25 05:26:00 +0000";
layers = (
{
layerId = "B61D43DE-5272-4FF4-A680-608B6BF5ED9E";
paths = (
{
closed = 1;
nodes = (
"387 297 LINE",
"387 395 LINE",
"68 395 LINE",
"68 297 LINE"
);
}
);
width = 455;
}
);
leftKerningGroup = hyphen;
leftMetricsKey = hyphen;
rightKerningGroup = hyphen;
rightMetricsKey = hyphen;
},
{
glyphname = endash.case;
lastChange = "2018-05-25 05:26:02 +0000";
layers = (
{
layerId = "B61D43DE-5272-4FF4-A680-608B6BF5ED9E";
paths = (
{
closed = 1;
nodes = (
"581 297 LINE",
"581 395 LINE",
"68 395 LINE",
"68 297 LINE"
);
}
);
width = 649;
}
);
leftKerningGroup = hyphen;
leftMetricsKey = hyphen;
rightKerningGroup = hyphen;
rightMetricsKey = hyphen;
},
{
glyphname = emdash.case;
lastChange = "2018-05-25 05:26:04 +0000";
layers = (
{
layerId = "B61D43DE-5272-4FF4-A680-608B6BF5ED9E";
paths = (
{
closed = 1;
nodes = (
"885 297 LINE",
"885 395 LINE",
"68 395 LINE",
"68 297 LINE"
);
}
);
width = 953;
}
);
leftKerningGroup = hyphen;
leftMetricsKey = hyphen;
rightKerningGroup = hyphen;
rightMetricsKey = hyphen;
},
{
glyphname = quotesinglbase;
lastChange = "2018-05-25 05:26:28 +0000";
layers = (
{
layerId = "B61D43DE-5272-4FF4-A680-608B6BF5ED9E";
paths = (
{
closed = 1;
nodes = (
"202 -126 LINE",
"202 -23 OFFCURVE",
"217 106 OFFCURVE",
"233 182 CURVE",
"133 182 LINE",
"115 107 OFFCURVE",
"79 -16 OFFCURVE",
"79 -126 CURVE"
);
}
);
width = 292;
}
);
leftKerningGroup = quotesinglbase;
rightKerningGroup = quotesinglbase;
unicode = 201A;
},
{
glyphname = quoteright;
lastChange = "2018-05-25 20:02:30 +0000";
layers = (
{
layerId = "B61D43DE-5272-4FF4-A680-608B6BF5ED9E";
paths = (
{
closed = 1;
nodes = (
"170 389 LINE",
"188 464 OFFCURVE",
"224 587 OFFCURVE",
"224 697 CURVE",
"101 697 LINE",
"101 594 OFFCURVE",
"86 465 OFFCURVE",
"70 389 CURVE"
);
}
);
width = 292;
}
);
leftKerningGroup = quoteleft;
rightKerningGroup = quoteleft;
unicode = 2019;
},
{
glyphname = guilsinglleft;
lastChange = "2018-05-28 03:16:46 +0000";
layers = (
{
layerId = "B61D43DE-5272-4FF4-A680-608B6BF5ED9E";
paths = (
{
closed = 1;
nodes = (
"369 24 LINE",
"192 263 LINE",
"192 234 LINE",
"372 473 LINE",
"231 473 LINE",
"69 248 LINE",
"229 24 LINE"
);
}
);
width = 451;
}
);
leftKerningGroup = guilsinglleft;
rightKerningGroup = guilsinglleft;
unicode = 2039;
},
{
glyphname = quotesingle;
lastChange = "2018-05-28 04:12:05 +0000";
layers = (
{
background = {
paths = (
{
closed = 1;
nodes = (
"188 359 LINE",
"199 697 LINE",
"89 697 LINE",
"96 359 LINE"
);
}
);
};
layerId = "B61D43DE-5272-4FF4-A680-608B6BF5ED9E";
paths = (
{
closed = 1;
nodes = (
"199 697 LINE",
"89 697 LINE",
"100 359 LINE",
"188 359 LINE"
);
}
);
width = 288;
}
);
leftKerningGroup = quotesingle;
rightKerningGroup = quotesingle;
unicode = 0027;
},
{
glyphname = guillemetleft.case;
lastChange = "2018-05-24 19:23:14 +0000";
layers = (
{
components = (
{
name = guilsinglleft;
transform = "{1, 0, 0, 1, 294, 96}";
},
{
name = guilsinglleft;
transform = "{1, 0, 0, 1, 0, 96}";
}
);
layerId = "B61D43DE-5272-4FF4-A680-608B6BF5ED9E";
paths = (
{
closed = 1;
nodes = (
"663 120 LINE",
"486 359 LINE",
"486 330 LINE",
"666 569 LINE",
"525 569 LINE",
"363 344 LINE",
"523 120 LINE"
);
}
);
width = 741;
}
);
leftKerningGroup = guillemetleft.case;
rightKerningGroup = guillemetleft;
},
{
glyphname = guillemetright.case;
lastChange = "2018-05-24 19:23:14 +0000";
layers = (
{
components = (
{
name = guilsinglleft;
transform = "{-1, 0, 0, 1, 736, 96}";
},
{
name = guilsinglleft;
transform = "{-1, 0, 0, 1, 446, 96}";
}
);
layerId = "B61D43DE-5272-4FF4-A680-608B6BF5ED9E";
paths = (
{
closed = 1;
nodes = (
"367 120 LINE",
"544 359 LINE",
"544 330 LINE",
"364 569 LINE",
"505 569 LINE",
"667 344 LINE",
"507 120 LINE"
);
}
);
width = 736;
}
);
leftKerningGroup = guillemetright;
rightKerningGroup = guillemetright;
},
{
glyphname = "leftanglebracket-math";
lastChange = "2018-05-28 04:12:27 +0000";
layers = (
{
layerId = "B61D43DE-5272-4FF4-A680-608B6BF5ED9E";
paths = (
{
closed = 1;
nodes = (
"323 -226 LINE",
"153 249 LINE",
"323 723 LINE",
"221 723 LINE",
"60 249 LINE",
"222 -226 LINE"
);
}
);
width = 413;
}
);
leftKerningGroup = "leftanglebracket-math";
rightKerningGroup = "leftanglebracket-math";
unicode = 27E8;
},
{
glyphname = "rightanglebracket-math";
lastChange = "2018-05-28 04:12:44 +0000";
layers = (
{
layerId = "B61D43DE-5272-4FF4-A680-608B6BF5ED9E";
paths = (
{
closed = 1;
nodes = (
"90 723 LINE",
"260 249 LINE",
"90 -226 LINE",
"192 -226 LINE",
"353 248 LINE",
"201 723 LINE"
);
}
);
width = 413;
}
);
leftKerningGroup = "rightanglebracket-math";
rightKerningGroup = "rightanglebracket-math";
unicode = 27E9;
},
{
glyphname = .notdef;
lastChange = "2018-05-28 03:16:46 +0000";
layers = (
{
layerId = "B61D43DE-5272-4FF4-A680-608B6BF5ED9E";
paths = (
{
closed = 1;
nodes = (
"778 0 LINE",
"778 691 LINE",
"86 691 LINE",
"86 0 LINE"
);
},
{
closed = 1;
nodes = (
"215 189 LINE",
"382 344 LINE",
"214 509 LINE",
"270 566 LINE",
"433 394 LINE",
"593 565 LINE",
"651 509 LINE",
"481 346 LINE",
"651 178 LINE",
"596 123 LINE",
"431 295 LINE",
"273 123 LINE"
);
}
);
width = 864;
}
);
leftKerningGroup = .notdef;
rightKerningGroup = .notdef;
},
{
glyphname = "dram-arm";
lastChange = "2018-05-28 03:16:46 +0000";
layers = (
{
layerId = "B61D43DE-5272-4FF4-A680-608B6BF5ED9E";
paths = (
{
closed = 1;
nodes = (
"522 0 LINE",
"522 445 LINE",
"522 656 OFFCURVE",
"460 751 OFFCURVE",
"283 751 CURVE SMOOTH",
"125 751 OFFCURVE",
"30 650 OFFCURVE",
"30 489 CURVE SMOOTH",
"30 433 LINE",
"145 434 LINE",
"145 477 LINE SMOOTH",
"145 542 OFFCURVE",
"151 653 OFFCURVE",
"276 653 CURVE SMOOTH",
"386 653 OFFCURVE",
"398 571 OFFCURVE",
"398 424 CURVE",
"398 0 LINE"
);
},
{
closed = 1;
nodes = (
"661 141 LINE",
"660 223 LINE",
"259 223 LINE",
"259 141 LINE"
);
},
{
closed = 1;
nodes = (
"661 311 LINE",
"660 393 LINE",
"259 393 LINE",
"259 311 LINE"
);
}
);
width = 710;
}
);
leftKerningGroup = "dram-arm";
rightKerningGroup = "dram-arm";
unicode = 058F;
userData = {
com.typemytype.robofont.mark = (
0.6,
1,
0.628,
1
);
};
},
{
glyphname = cedi;
lastChange = "2018-05-28 03:16:46 +0000";
layers = (
{
anchors = (
{
name = btm;
position = "{341, 0}";
},
{
name = top;
position = "{342, 830}";
}
);
layerId = "B61D43DE-5272-4FF4-A680-608B6BF5ED9E";
paths = (
{
closed = 1;
nodes = (
"392 -9 OFFCURVE",
"450 17 OFFCURVE",
"498 51 CURVE",
"456 150 LINE",
"423 122 OFFCURVE",
"383 101 OFFCURVE",
"329 101 CURVE SMOOTH",
"216 101 OFFCURVE",
"184 187 OFFCURVE",
"184 332 CURVE SMOOTH",
"184 575 OFFCURVE",
"273 603 OFFCURVE",
"339 603 CURVE SMOOTH",
"400 603 OFFCURVE",
"453 575 OFFCURVE",
"473 543 CURVE",
"518 648 LINE",
"501 672 OFFCURVE",
"446 709 OFFCURVE",
"353 709 CURVE SMOOTH",
"155 709 OFFCURVE",
"55 541 OFFCURVE",
"55 329 CURVE SMOOTH",
"55 104 OFFCURVE",
"167 -9 OFFCURVE",
"319 -9 CURVE SMOOTH"
);
},
{
closed = 1;
nodes = (
"367 -166 LINE",
"367 830 LINE",
"265 830 LINE",
"265 -166 LINE"
);
}
);
width = 567;
}
);
leftKerningGroup = O;
leftMetricsKey = euro;
rightKerningGroup = C;
rightMetricsKey = euro;
unicode = 20B5;
},
{
glyphname = cent;
lastChange = "2018-05-28 03:16:46 +0000";
layers = (
{
layerId = "B61D43DE-5272-4FF4-A680-608B6BF5ED9E";
paths = (
{
closed = 1;
nodes = (
"393 109 OFFCURVE",
"441 138 OFFCURVE",
"462 157 CURVE",
"423 246 LINE",
"395 221 OFFCURVE",
"361 203 OFFCURVE",
"318 203 CURVE SMOOTH",
"244 203 OFFCURVE",
"206 258 OFFCURVE",
"206 343 CURVE SMOOTH",
"206 422 OFFCURVE",
"243 484 OFFCURVE",
"314 484 CURVE SMOOTH",
"351 484 OFFCURVE",
"387 468 OFFCURVE",
"420 438 CURVE",
"460 532 LINE",
"436 558 OFFCURVE",
"373 575 OFFCURVE",
"299 575 CURVE SMOOTH",
"150 575 OFFCURVE",
"61 484 OFFCURVE",
"61 342 CURVE SMOOTH",
"61 207 OFFCURVE",
"139 109 OFFCURVE",
"299 109 CURVE SMOOTH"
);
},
{
closed = 1;
nodes = (
"348 0 LINE",
"348 129 LINE",
"229 129 LINE",
"229 0 LINE"
);
},
{
closed = 1;
nodes = (
"348 552 LINE",
"348 696 LINE",
"229 696 LINE",
"229 552 LINE"
);
}
);
width = 527;
}
);
leftKerningGroup = o;
rightKerningGroup = c;
unicode = 00A2;
},
{
glyphname = colonsign;
lastChange = "2018-05-28 03:16:46 +0000";
layers = (
{
anchors = (
{
name = btm;
position = "{219, -83}";
},
{
name = top;
position = "{266, 830}";
}
);
layerId = "B61D43DE-5272-4FF4-A680-608B6BF5ED9E";
paths = (
{
closed = 1;
nodes = (
"412 -9 OFFCURVE",
"480 17 OFFCURVE",
"528 51 CURVE",
"486 150 LINE",
"453 122 OFFCURVE",
"403 101 OFFCURVE",
"349 101 CURVE SMOOTH",
"236 101 OFFCURVE",
"178 187 OFFCURVE",
"178 332 CURVE SMOOTH",
"178 575 OFFCURVE",
"293 603 OFFCURVE",
"359 603 CURVE SMOOTH",
"420 603 OFFCURVE",
"483 575 OFFCURVE",
"503 543 CURVE",
"548 648 LINE",
"531 672 OFFCURVE",
"466 709 OFFCURVE",
"373 709 CURVE SMOOTH",
"175 709 OFFCURVE",
"55 541 OFFCURVE",
"55 329 CURVE SMOOTH",
"55 104 OFFCURVE",
"187 -9 OFFCURVE",
"339 -9 CURVE SMOOTH"
);
},
{
closed = 1;
nodes = (
"230 -122 LINE",
"372 830 LINE",
"294 830 LINE",
"151 -122 LINE"
);
},
{
closed = 1;
nodes = (
"372 -122 LINE",
"515 830 LINE",
"436 830 LINE",
"294 -122 LINE"
);
}
);
width = 597;
}
);
leftKerningGroup = colonsign;
leftMetricsKey = euro;
rightKerningGroup = colonsign;
rightMetricsKey = euro;
unicode = 20A1;
},
{
glyphname = currency;
lastChange = "2018-05-28 03:16:46 +0000";
layers = (
{
layerId = "B61D43DE-5272-4FF4-A680-608B6BF5ED9E";
paths = (
{
closed = 1;
nodes = (
"430 119 OFFCURVE",
"528 217 OFFCURVE",
"528 337 CURVE SMOOTH",
"528 457 OFFCURVE",
"430 554 OFFCURVE",
"310 554 CURVE SMOOTH",
"190 554 OFFCURVE",
"92 457 OFFCURVE",
"92 337 CURVE SMOOTH",
"92 217 OFFCURVE",
"190 119 OFFCURVE",
"310 119 CURVE SMOOTH"
);
},
{
closed = 1;
nodes = (
"229 174 LINE",
"161 245 LINE",
"39 136 LINE",
"114 57 LINE"
);
},
{
closed = 1;
nodes = (
"581 135 LINE",
"459 245 LINE",
"392 173 LINE",
"506 56 LINE"
);
},
{
closed = 1;
nodes = (
"236 203 OFFCURVE",
"177 263 OFFCURVE",
"177 337 CURVE",
"177 410 OFFCURVE",
"236 470 OFFCURVE",
"310 470 CURVE SMOOTH",
"384 470 OFFCURVE",
"442 410 OFFCURVE",
"442 337 CURVE SMOOTH",
"442 263 OFFCURVE",
"384 203 OFFCURVE",
"310 203 CURVE SMOOTH"
);
},
{
closed = 1;
nodes = (
"230 499 LINE",
"117 617 LINE",
"41 537 LINE",
"163 429 LINE"
);
},
{
closed = 1;
nodes = (
"577 543 LINE",
"502 623 LINE",
"388 505 LINE",
"455 434 LINE"
);
}
);
width = 621;
}
);
leftKerningGroup = currency;
rightKerningGroup = currency;
unicode = 00A4;
},
{
glyphname = dollar;
lastChange = "2018-05-28 03:43:16 +0000";
layers = (
{
layerId = "B61D43DE-5272-4FF4-A680-608B6BF5ED9E";
paths = (
{
closed = 1;
nodes = (
"407 59 OFFCURVE",
"492 125 OFFCURVE",
"492 230 CURVE SMOOTH",
"492 314 OFFCURVE",
"430 367 OFFCURVE",
"328 398 CURVE",
"283 413 OFFCURVE",
"188 427 OFFCURVE",
"190 493 CURVE",
"193 542 OFFCURVE",
"237 565 OFFCURVE",
"290 565 CURVE SMOOTH",
"350 565 OFFCURVE",
"408 526 OFFCURVE",
"418 512 CURVE",
"458 589 LINE",
"438 615 OFFCURVE",
"370 652 OFFCURVE",
"278 652 CURVE SMOOTH",
"142 652 OFFCURVE",
"65 580 OFFCURVE",
"65 486 CURVE SMOOTH",
"65 372 OFFCURVE",
"151 331 OFFCURVE",
"241 304 CURVE",
"299 288 OFFCURVE",
"361 268 OFFCURVE",
"361 220 CURVE SMOOTH",
"361 162 OFFCURVE",
"311 142 OFFCURVE",
"262 142 CURVE SMOOTH",
"189 142 OFFCURVE",
"122 180 OFFCURVE",
"97 203 CURVE",
"61 122 LINE",
"117 76 OFFCURVE",
"201 59 OFFCURVE",
"276 59 CURVE SMOOTH"
);
},
{
closed = 1;
nodes = (
"339 -15 LINE",
"339 139 LINE",
"220 139 LINE",
"220 -15 LINE"
);
},
{
closed = 1;
nodes = (
"339 586 LINE",
"339 744 LINE",
"220 744 LINE",
"220 586 LINE"
);
}
);
width = 531;
}
);
leftKerningGroup = dollar;
rightKerningGroup = dollar;
unicode = 0024;
},
{
glyphname = dong;
lastChange = "2018-05-28 03:16:46 +0000";
layers = (
{
layerId = "B61D43DE-5272-4FF4-A680-608B6BF5ED9E";
paths = (
{
closed = 1;
nodes = (
"314 116 OFFCURVE",
"355 156 OFFCURVE",
"377 199 CURVE",
"375 164 LINE",
"375 131 LINE",
"494 131 LINE",
"494 820 LINE",
"367 820 LINE",
"367 582 LINE",
"375 533 LINE",
"355 567 OFFCURVE",
"314 607 OFFCURVE",
"245 607 CURVE SMOOTH",
"112 607 OFFCURVE",
"46 511 OFFCURVE",
"46 357 CURVE SMOOTH",
"46 209 OFFCURVE",
"122 116 OFFCURVE",
"244 116 CURVE SMOOTH"
);
},
{
closed = 1;
nodes = (
"495 -10 LINE",
"494 72 LINE",
"37 72 LINE",
"37 -10 LINE"
);
},
{
closed = 1;
nodes = (
"218 216 OFFCURVE",
"177 257 OFFCURVE",
"177 358 CURVE SMOOTH",
"177 469 OFFCURVE",
"229 506 OFFCURVE",
"276 506 CURVE SMOOTH",
"337 506 OFFCURVE",
"363 471 OFFCURVE",
"363 367 CURVE SMOOTH",
"363 253 OFFCURVE",
"321 216 OFFCURVE",
"273 216 CURVE SMOOTH"
);
},
{
closed = 1;
nodes = (
"568 665 LINE",
"567 747 LINE",
"246 747 LINE",
"246 665 LINE"
);
}
);
width = 570;
}
);
leftKerningGroup = dong;
rightKerningGroup = dong;
unicode = 20AB;
userData = {
com.typemytype.robofont.mark = (
0.6,
1,
0.628,
1
);
};
},
{
glyphname = euro;
lastChange = "2018-05-28 03:16:46 +0000";
layers = (
{
layerId = "B61D43DE-5272-4FF4-A680-608B6BF5ED9E";
paths = (
{
closed = 1;
nodes = (
"458 -9 OFFCURVE",
"516 17 OFFCURVE",
"564 51 CURVE",
"522 150 LINE",
"489 122 OFFCURVE",
"449 101 OFFCURVE",
"395 101 CURVE SMOOTH",
"282 101 OFFCURVE",
"250 187 OFFCURVE",
"250 332 CURVE SMOOTH",
"250 575 OFFCURVE",
"339 603 OFFCURVE",
"405 603 CURVE SMOOTH",
"466 603 OFFCURVE",
"519 575 OFFCURVE",
"539 543 CURVE",
"584 648 LINE",
"567 672 OFFCURVE",
"512 709 OFFCURVE",
"419 709 CURVE SMOOTH",
"221 709 OFFCURVE",
"121 541 OFFCURVE",
"121 329 CURVE SMOOTH",
"121 104 OFFCURVE",
"233 -9 OFFCURVE",
"385 -9 CURVE SMOOTH"
);
},
{
closed = 1;
nodes = (
"456 228 LINE",
"456 311 LINE",
"55 311 LINE",
"55 228 LINE"
);
},
{
closed = 1;
nodes = (
"473 399 LINE",
"472 481 LINE",
"71 481 LINE",
"71 399 LINE"
);
}
);
width = 633;
}
);
leftKerningGroup = euro;
rightKerningGroup = euro;
unicode = 20AC;
},
{
glyphname = florin;
lastChange = "2018-05-24 19:23:14 +0000";
layers = (
{
layerId = "B61D43DE-5272-4FF4-A680-608B6BF5ED9E";
paths = (
{
closed = 1;
nodes = (
"191 -100 LINE",
"221 408 LINE",
"327 408 LINE",
"332 492 LINE",
"227 492 LINE",
"228 509 OFFCURVE",
"229 535 OFFCURVE",
"229 539 CURVE",
"236 665 OFFCURVE",
"273 684 OFFCURVE",
"313 684 CURVE SMOOTH",
"334 684 OFFCURVE",
"360 673 OFFCURVE",
"386 656 CURVE",
"393 757 LINE",
"366 765 OFFCURVE",
"336 770 OFFCURVE",
"309 770 CURVE SMOOTH",
"186 770 OFFCURVE",
"105 709 OFFCURVE",
"96 555 CURVE SMOOTH",
"95 544 OFFCURVE",
"93 502 OFFCURVE",
"92 492 CURVE",
"23 492 LINE",
"18 408 LINE",
"87 408 LINE",
"57 -100 LINE"
);
}
);
width = 364;
}
);
leftKerningGroup = florin;
rightKerningGroup = florin;
unicode = 0192;
},
{
glyphname = franc;
lastChange = "2018-05-25 16:47:13 +0000";
layers = (
{
layerId = "B61D43DE-5272-4FF4-A680-608B6BF5ED9E";
paths = (
{
closed = 1;
nodes = (
"206 0 LINE",
"206 358 LINE",
"187 343 LINE",
"410 343 LINE",
"410 449 LINE",
"187 449 LINE",
"206 432 LINE",
"206 614 LINE",
"189 596 LINE",
"440 596 LINE",
"440 697 LINE",
"76 697 LINE",
"76 0 LINE"
);
},
{
closed = 1;
nodes = (
"336 114 LINE",
"336 197 LINE",
"10 197 LINE",
"10 114 LINE"
);
}
);
width = 464;
}
);
leftKerningGroup = franc;
rightKerningGroup = franc;
unicode = 20A3;
userData = {
com.typemytype.robofont.mark = (
0.6,
1,
0.628,
1
);
};
},
{
glyphname = guarani;
lastChange = "2018-05-24 19:23:14 +0000";
layers = (
{
components = (
{
name = G;
}
);
layerId = "B61D43DE-5272-4FF4-A680-608B6BF5ED9E";
paths = (
{
closed = 1;
nodes = (
"379 644 LINE",
"379 830 LINE",
"277 830 LINE",
"277 644 LINE"
);
},
{
closed = 1;
nodes = (
"379 -147 LINE",
"379 39 LINE",
"277 39 LINE",
"277 -147 LINE"
);
}
);
width = 618;
}
);
leftKerningGroup = O;
rightKerningGroup = G;
unicode = 20B2;
},
{
glyphname = hryvnia;
lastChange = "2018-05-28 03:16:46 +0000";
layers = (
{
anchors = (
{
name = btm;
position = "{255, 0}";
}
);
layerId = "B61D43DE-5272-4FF4-A680-608B6BF5ED9E";
paths = (
{
closed = 1;
nodes = (
"393 -11 OFFCURVE",
"435 8 OFFCURVE",
"469 44 CURVE",
"418 149 LINE",
"395 120 OFFCURVE",
"359 97 OFFCURVE",
"302 97 CURVE SMOOTH",
"255 97 OFFCURVE",
"212 117 OFFCURVE",
"212 172 CURVE SMOOTH",
"212 210 OFFCURVE",
"233 242 OFFCURVE",
"270 268 CURVE",
"128 271 LINE",
"97 246 OFFCURVE",
"80 202 OFFCURVE",
"81 174 CURVE SMOOTH",
"86 46 OFFCURVE",
"166 -11 OFFCURVE",
"299 -11 CURVE SMOOTH"
);
},
{
closed = 1;
nodes = (
"524 224 LINE",
"524 307 LINE",
"30 307 LINE",
"30 224 LINE"
);
},
{
closed = 1;
nodes = (
"524 385 LINE",
"524 468 LINE",
"30 468 LINE",
"30 385 LINE"
);
},
{
closed = 1;
nodes = (
"447 464 LINE",
"451 481 OFFCURVE",
"467 505 OFFCURVE",
"467 550 CURVE SMOOTH",
"467 647 OFFCURVE",
"392 709 OFFCURVE",
"264 709 CURVE SMOOTH",
"156 709 OFFCURVE",
"97 668 OFFCURVE",
"70 644 CURVE",
"126 542 LINE",
"141 562 OFFCURVE",
"192 603 OFFCURVE",
"256 603 CURVE SMOOTH",
"305 603 OFFCURVE",
"337 589 OFFCURVE",
"337 552 CURVE SMOOTH",
"337 498 OFFCURVE",
"314 479 OFFCURVE",
"299 463 CURVE"
);
}
);
width = 554;
}
);
leftKerningGroup = hryvnia;
rightKerningGroup = hryvnia;
unicode = 20B4;
userData = {
com.typemytype.robofont.mark = (
0.6,
1,
0.628,
1
);
};
},
{
glyphname = kip;
lastChange = "2018-05-28 03:16:46 +0000";
layers = (
{
anchors = (
{
name = btm;
position = "{341, 0}";
},
{
name = top;
position = "{335, 830}";
}
);
layerId = "B61D43DE-5272-4FF4-A680-608B6BF5ED9E";
paths = (
{
closed = 1;
nodes = (
"626 0 LINE",
"340 375 LINE",
"343 330 LINE",
"610 697 LINE",
"463 697 LINE",
"227 342 LINE",
"466 0 LINE"
);
},
{
closed = 1;
nodes = (
"236 0 LINE",
"236 697 LINE",
"114 697 LINE",
"114 0 LINE"
);
},
{
closed = 1;
nodes = (
"591 305 LINE",
"591 403 LINE",
"29 403 LINE",
"29 305 LINE"
);
}
);
width = 652;
}
);
leftKerningGroup = kip;
rightKerningGroup = kip;
unicode = 20AD;
userData = {
com.typemytype.robofont.mark = (
0.6,
1,
0.628,
1
);
};
},
{
glyphname = lira;
lastChange = "2018-05-25 16:48:17 +0000";
layers = (
{
layerId = "B61D43DE-5272-4FF4-A680-608B6BF5ED9E";
paths = (
{
closed = 1;
nodes = (
"518 0 LINE",
"518 101 LINE",
"219 101 LINE",
"239 149 OFFCURVE",
"265 213 OFFCURVE",
"265 298 CURVE SMOOTH",
"265 376 OFFCURVE",
"232 425 OFFCURVE",
"232 496 CURVE SMOOTH",
"232 581 OFFCURVE",
"275 603 OFFCURVE",
"331 603 CURVE SMOOTH",
"386 603 OFFCURVE",
"445 572 OFFCURVE",
"467 535 CURVE",
"529 635 LINE",
"509 662 OFFCURVE",
"446 708 OFFCURVE",
"328 708 CURVE SMOOTH",
"186 708 OFFCURVE",
"94 630 OFFCURVE",
"94 518 CURVE SMOOTH",
"94 422 OFFCURVE",
"139 366 OFFCURVE",
"139 257 CURVE SMOOTH",
"139 144 OFFCURVE",
"87 40 OFFCURVE",
"70 0 CURVE"
);
},
{
closed = 1;
nodes = (
"432 224 LINE",
"432 307 LINE",
"47 307 LINE",
"47 224 LINE"
);
},
{
closed = 1;
nodes = (
"432 385 LINE",
"432 468 LINE",
"47 468 LINE",
"47 385 LINE"
);
}
);
width = 592;
}
);
leftKerningGroup = lira;
rightKerningGroup = lira;
unicode = 20A4;
userData = {
com.typemytype.robofont.mark = (
0.6,
1,
0.628,
1
);
};
},
{
glyphname = liraTurkish;
lastChange = "2018-05-25 16:46:44 +0000";
layers = (
{
layerId = "B61D43DE-5272-4FF4-A680-608B6BF5ED9E";
paths = (
{
closed = 1;
nodes = (
"263 0 LINE SMOOTH",
"422 0 OFFCURVE",
"582 44 OFFCURVE",
"582 273 CURVE",
"468 273 LINE",
"468 148 OFFCURVE",
"426 106 OFFCURVE",
"283 106 CURVE",
"283 268 LINE",
"425 351 LINE",
"425 440 LINE",
"283 358 LINE",
"283 465 LINE",
"435 551 LINE",
"435 641 LINE",
"283 554 LINE",
"283 697 LINE",
"166 697 LINE",
"166 498 LINE",
"58 437 LINE",
"58 347 LINE",
"166 408 LINE",
"166 301 LINE",
"63 242 LINE",
"63 152 LINE",
"166 211 LINE",
"166 0 LINE"
);
}
);
width = 659;
}
);
leftKerningGroup = liraTurkish;
rightKerningGroup = liraTurkish;
unicode = 20BA;
userData = {
com.typemytype.robofont.mark = (
0.6,
1,
0.628,
1
);
};
},
{
glyphname = manat;
lastChange = "2018-05-28 03:16:46 +0000";
layers = (
{
anchors = (
{
name = top;
position = "{314, 830}";
}
);
layerId = "B61D43DE-5272-4FF4-A680-608B6BF5ED9E";
paths = (
{
closed = 1;
nodes = (
"165 0 LINE",
"165 445 LINE SMOOTH",
"165 563 OFFCURVE",
"254 602 OFFCURVE",
"323 602 CURVE SMOOTH",
"393 602 OFFCURVE",
"484 563 OFFCURVE",
"484 445 CURVE SMOOTH",
"484 0 LINE",
"606 0 LINE",
"606 431 LINE",
"606 631 OFFCURVE",
"468 697 OFFCURVE",
"321 697 CURVE SMOOTH",
"188 697 OFFCURVE",
"43 631 OFFCURVE",
"43 431 CURVE SMOOTH",
"43 0 LINE"
);
},
{
closed = 1;
nodes = (
"383 109 LINE",
"383 830 LINE",
"263 830 LINE",
"263 109 LINE"
);
}
);
width = 649;
}
);
leftKerningGroup = manat;
rightKerningGroup = manat;
unicode = 20BC;
userData = {
com.typemytype.robofont.mark = (
0.6,
1,
0.628,
1
);
};
},
{
glyphname = naira;
lastChange = "2018-05-26 04:48:48 +0000";
layers = (
{
anchors = (
{
name = btm;
position = "{362, -83}";
},
{
name = top;
position = "{362, 830}";
}
);
components = (
{
name = N;
transform = "{1, 0, 0, 1, 36, 0}";
}
);
layerId = "B61D43DE-5272-4FF4-A680-608B6BF5ED9E";
paths = (
{
closed = 1;
nodes = (
"700 429 LINE",
"700 512 LINE",
"20 512 LINE",
"20 429 LINE"
);
},
{
closed = 1;
nodes = (
"700 170 LINE",
"700 253 LINE",
"20 253 LINE",
"20 170 LINE"
);
}
);
width = 720;
}
);
leftKerningGroup = naira;
rightKerningGroup = naira;
unicode = 20A6;
userData = {
com.typemytype.robofont.mark = (
0.6,
1,
0.628,
1
);
};
},
{
glyphname = peseta;
lastChange = "2018-05-28 03:16:46 +0000";
layers = (
{
layerId = "B61D43DE-5272-4FF4-A680-608B6BF5ED9E";
paths = (
{
closed = 1;
nodes = (
"206 0 LINE",
"206 157 LINE",
"190 106 LINE",
"267 106 LINE",
"444 106 OFFCURVE",
"517 258 OFFCURVE",
"517 398 CURVE SMOOTH",
"517 604 OFFCURVE",
"405 697 OFFCURVE",
"263 697 CURVE SMOOTH",
"76 697 LINE",
"76 0 LINE"
);
},
{
closed = 1;
nodes = (
"206 614 LINE",
"190 596 LINE",
"260 596 LINE SMOOTH",
"360 596 OFFCURVE",
"390 512 OFFCURVE",
"390 392 CURVE SMOOTH",
"390 284 OFFCURVE",
"352 208 OFFCURVE",
"263 208 CURVE SMOOTH",
"188 208 LINE",
"206 197 LINE"
);
},
{
closed = 1;
nodes = (
"581 361 LINE",
"581 439 LINE",
"17 439 LINE",
"17 361 LINE"
);
}
);
width = 591;
}
);
leftKerningGroup = peseta;
rightKerningGroup = peseta;
unicode = 20A7;
},
{
glyphname = peso;
lastChange = "2018-05-28 03:16:46 +0000";
layers = (
{
anchors = (
{
name = top;
position = "{294, 830}";
}
);
layerId = "B61D43DE-5272-4FF4-A680-608B6BF5ED9E";
paths = (
{
closed = 1;
nodes = (
"206 0 LINE",
"206 157 LINE",
"190 106 LINE",
"267 106 LINE",
"444 106 OFFCURVE",
"517 258 OFFCURVE",
"517 398 CURVE SMOOTH",
"517 604 OFFCURVE",
"405 697 OFFCURVE",
"263 697 CURVE SMOOTH",
"76 697 LINE",
"76 0 LINE"
);
},
{
closed = 1;
nodes = (
"581 279 LINE",
"581 357 LINE",
"17 357 LINE",
"17 279 LINE"
);
},
{
closed = 1;
nodes = (
"206 614 LINE",
"190 596 LINE",
"260 596 LINE SMOOTH",
"360 596 OFFCURVE",
"390 512 OFFCURVE",
"390 392 CURVE SMOOTH",
"390 284 OFFCURVE",
"352 208 OFFCURVE",
"263 208 CURVE SMOOTH",
"188 208 LINE",
"206 197 LINE"
);
},
{
closed = 1;
nodes = (
"581 433 LINE",
"581 511 LINE",
"17 511 LINE",
"17 433 LINE"
);
}
);
width = 591;
}
);
leftKerningGroup = peso;
rightKerningGroup = peso;
unicode = 20B1;
},
{
glyphname = ruble;
lastChange = "2018-05-28 03:16:46 +0000";
layers = (
{
anchors = (
{
name = top;
position = "{359, 830}";
}
);
layerId = "B61D43DE-5272-4FF4-A680-608B6BF5ED9E";
paths = (
{
closed = 1;
nodes = (
"270 0 LINE",
"270 126 LINE",
"421 126 LINE",
"421 209 LINE",
"270 209 LINE",
"270 286 LINE",
"332 286 LINE SMOOTH",
"509 286 OFFCURVE",
"584 357 OFFCURVE",
"584 494 CURVE SMOOTH",
"584 656 OFFCURVE",
"470 697 OFFCURVE",
"328 697 CURVE SMOOTH",
"141 697 LINE",
"141 370 LINE",
"44 370 LINE",
"44 287 LINE",
"141 287 LINE",
"141 209 LINE",
"40 209 LINE",
"40 126 LINE",
"141 126 LINE",
"141 0 LINE"
);
},
{
closed = 1;
nodes = (
"270 606 LINE",
"325 606 LINE SMOOTH",
"425 606 OFFCURVE",
"455 562 OFFCURVE",
"455 487 CURVE SMOOTH",
"455 387 OFFCURVE",
"416 370 OFFCURVE",
"328 370 CURVE SMOOTH",
"270 370 LINE"
);
}
);
width = 614;
}
);
leftKerningGroup = ruble;
rightKerningGroup = ruble;
unicode = 20BD;
userData = {
com.typemytype.robofont.mark = (
0.6,
1,
0.628,
1
);
};
},
{
glyphname = rupeeIndian;
lastChange = "2018-05-28 03:16:46 +0000";
layers = (
{
layerId = "B61D43DE-5272-4FF4-A680-608B6BF5ED9E";
paths = (
{
closed = 1;
nodes = (
"518 0 LINE",
"361 222 LINE",
"456 245 OFFCURVE",
"491 317 OFFCURVE",
"505 396 CURVE",
"584 396 LINE",
"584 494 LINE",
"508 494 LINE",
"503 535 OFFCURVE",
"487 579 OFFCURVE",
"459 597 CURVE",
"584 597 LINE",
"584 698 LINE",
"82 698 LINE",
"82 597 LINE",
"245 597 LINE SMOOTH",
"327 597 OFFCURVE",
"366 557 OFFCURVE",
"378 494 CURVE",
"82 494 LINE",
"82 396 LINE",
"376 396 LINE",
"362 343 OFFCURVE",
"325 307 OFFCURVE",
"267 301 CURVE",
"82 301 LINE",
"82 203 LINE",
"233 203 LINE",
"367 0 LINE"
);
}
);
width = 634;
}
);
leftKerningGroup = rupeeIndian;
rightKerningGroup = rupeeIndian;
unicode = 20B9;
userData = {
com.typemytype.robofont.mark = (
0.6,
1,
0.628,
1
);
};
},
{
glyphname = sheqel;
lastChange = "2018-05-28 03:16:46 +0000";
layers = (
{
layerId = "B61D43DE-5272-4FF4-A680-608B6BF5ED9E";
paths = (
{
closed = 1;
nodes = (
"778 0 LINE",
"778 697 LINE",
"659 697 LINE {name = hr00;}",
"659 105 LINE",
"484 105 LINE SMOOTH",
"399 105 OFFCURVE",
"382 124 OFFCURVE",
"382 193 CURVE SMOOTH",
"382 490 LINE",
"260 490 LINE",
"260 207 LINE SMOOTH",
"260 56 OFFCURVE",
"319 0 OFFCURVE",
"426 0 CURVE SMOOTH"
);
},
{
closed = 1;
nodes = (
"189 0 LINE",
"189 592 LINE",
"397 592 LINE",
"464 592 OFFCURVE",
"462 553 OFFCURVE",
"462 485 CURVE SMOOTH",
"462 193 LINE",
"582 193 LINE",
"582 491 LINE SMOOTH",
"582 644 OFFCURVE",
"540 697 OFFCURVE",
"441 697 CURVE",
"70 697 LINE",
"70 0 LINE"
);
}
);
width = 848;
}
);
leftKerningGroup = sheqel;
rightKerningGroup = sheqel;
unicode = 20AA;
userData = {
com.typemytype.robofont.mark = (
0.6,
1,
0.628,
1
);
};
},
{
glyphname = sterling;
lastChange = "2018-05-25 16:48:17 +0000";
layers = (
{
layerId = "B61D43DE-5272-4FF4-A680-608B6BF5ED9E";
paths = (
{
closed = 1;
nodes = (
"518 0 LINE",
"518 101 LINE",
"219 101 LINE",
"239 149 OFFCURVE",
"265 213 OFFCURVE",
"265 298 CURVE SMOOTH",
"265 376 OFFCURVE",
"232 425 OFFCURVE",
"232 496 CURVE SMOOTH",
"232 581 OFFCURVE",
"275 603 OFFCURVE",
"331 603 CURVE SMOOTH",
"386 603 OFFCURVE",
"445 572 OFFCURVE",
"467 535 CURVE",
"529 635 LINE",
"509 662 OFFCURVE",
"446 708 OFFCURVE",
"328 708 CURVE SMOOTH",
"186 708 OFFCURVE",
"94 630 OFFCURVE",
"94 518 CURVE SMOOTH",
"94 422 OFFCURVE",
"139 366 OFFCURVE",
"139 257 CURVE SMOOTH",
"139 144 OFFCURVE",
"87 40 OFFCURVE",
"70 0 CURVE"
);
},
{
closed = 1;
nodes = (
"432 288 LINE",
"432 371 LINE",
"47 371 LINE",
"47 288 LINE"
);
}
);
width = 592;
}
);
leftKerningGroup = sterling;
rightKerningGroup = sterling;
unicode = 00A3;
userData = {
com.typemytype.robofont.mark = (
0.6,
1,
0.628,
1
);
};
},
{
glyphname = tenge;
lastChange = "2018-05-24 19:23:14 +0000";
layers = (
{
anchors = (
{
name = btm;
position = "{244, 0}";
}
);
layerId = "B61D43DE-5272-4FF4-A680-608B6BF5ED9E";
paths = (
{
closed = 1;
nodes = (
"310 0 LINE",
"310 394 LINE",
"294 371 LINE",
"469 371 LINE",
"469 484 LINE",
"18 484 LINE",
"18 371 LINE",
"193 371 LINE",
"180 394 LINE",
"180 0 LINE"
);
},
{
closed = 1;
nodes = (
"475 583 LINE",
"475 696 LINE",
"24 696 LINE",
"24 583 LINE"
);
}
);
width = 487;
}
);
leftKerningGroup = tenge;
rightKerningGroup = tenge;
unicode = 20B8;
},
{
glyphname = tugrik;
lastChange = "2018-05-28 03:16:46 +0000";
layers = (
{
anchors = (
{
name = btm;
position = "{256, 0}";
},
{
name = top;
position = "{256, 830}";
}
);
layerId = "B61D43DE-5272-4FF4-A680-608B6BF5ED9E";
paths = (
{
closed = 1;
nodes = (
"320 0 LINE",
"320 164 LINE",
"422 211 LINE",
"422 302 LINE",
"320 254 LINE",
"320 359 LINE",
"432 413 LINE",
"432 502 LINE",
"320 449 LINE",
"320 584 LINE",
"481 584 LINE",
"481 697 LINE",
"30 697 LINE",
"30 584 LINE",
"194 584 LINE",
"194 389 LINE",
"86 338 LINE",
"86 248 LINE",
"194 299 LINE",
"194 192 LINE",
"91 143 LINE",
"91 53 LINE",
"194 102 LINE",
"194 0 LINE"
);
}
);
width = 523;
}
);
leftKerningGroup = tugrik;
rightKerningGroup = tugrik;
unicode = 20AE;
},
{
glyphname = won;
lastChange = "2018-05-28 03:57:27 +0000";
layers = (
{
layerId = "B61D43DE-5272-4FF4-A680-608B6BF5ED9E";
paths = (
{
closed = 1;
nodes = (
"520 500 LINE",
"487 500 LINE",
"676 -18 LINE",
"913 697 LINE",
"797 697 LINE",
"666 231 LINE",
"684 232 LINE",
"506 714 LINE",
"332 232 LINE",
"350 231 LINE",
"211 697 LINE",
"93 697 LINE",
"334 -18 LINE"
);
},
{
closed = 1;
nodes = (
"976 455 LINE",
"976 533 LINE",
"30 533 LINE",
"30 455 LINE"
);
}
);
width = 1006;
}
);
leftKerningGroup = won;
rightKerningGroup = won;
unicode = 20A9;
userData = {
com.typemytype.robofont.guides = (
{
angle = 0;
isGlobal = 0;
magnetic = 5;
x = 0;
y = 615;
}
);
com.typemytype.robofont.mark = (
0.6,
1,
0.628,
1
);
};
},
{
color = 9;
glyphname = yen;
lastChange = "2018-05-28 05:01:02 +0000";
layers = (
{
layerId = "B61D43DE-5272-4FF4-A680-608B6BF5ED9E";
paths = (
{
closed = 1;
nodes = (
"387 0 LINE",
"387 321 LINE",
"616 697 LINE",
"474 697 LINE",
"382 514 LINE",
"324 370 LINE",
"341 370 LINE",
"282 513 LINE",
"187 697 LINE",
"44 697 LINE",
"275 325 LINE",
"275 0 LINE"
);
},
{
closed = 1;
nodes = (
"581 128 LINE",
"581 206 LINE",
"75 206 LINE",
"75 128 LINE"
);
},
{
closed = 1;
nodes = (
"581 328 LINE",
"581 406 LINE",
"75 406 LINE",
"75 328 LINE"
);
}
);
width = 660;
}
);
leftKerningGroup = yen;
rightKerningGroup = yen;
unicode = 00A5;
userData = {
com.typemytype.robofont.mark = (
0.6,
1,
0.628,
1
);
};
},
{
glyphname = bulletoperator;
lastChange = "2018-05-24 19:23:14 +0000";
layers = (
{
layerId = "B61D43DE-5272-4FF4-A680-608B6BF5ED9E";
paths = (
{
closed = 1;
nodes = (
"220 280 OFFCURVE",
"261 305 OFFCURVE",
"261 377 CURVE SMOOTH",
"261 446 OFFCURVE",
"219 475 OFFCURVE",
"168 475 CURVE SMOOTH",
"119 475 OFFCURVE",
"77 446 OFFCURVE",
"77 377 CURVE SMOOTH",
"77 305 OFFCURVE",
"118 280 OFFCURVE",
"168 280 CURVE SMOOTH"
);
}
);
width = 338;
}
);
leftKerningGroup = bulletoperator;
rightKerningGroup = bulletoperator;
unicode = 2219;
},
{
glyphname = commercialMinusSign;
lastChange = "2018-05-24 19:23:14 +0000";
layers = (
{
layerId = "B61D43DE-5272-4FF4-A680-608B6BF5ED9E";
paths = (
{
closed = 1;
nodes = (
"399 0 LINE",
"601 697 LINE",
"503 697 LINE",
"301 0 LINE"
);
},
{
closed = 1;
nodes = (
"658 0 OFFCURVE",
"699 25 OFFCURVE",
"699 97 CURVE SMOOTH",
"699 166 OFFCURVE",
"657 195 OFFCURVE",
"606 195 CURVE SMOOTH",
"557 195 OFFCURVE",
"515 166 OFFCURVE",
"515 97 CURVE SMOOTH",
"515 25 OFFCURVE",
"556 0 OFFCURVE",
"606 0 CURVE SMOOTH"
);
},
{
closed = 1;
nodes = (
"342 502 OFFCURVE",
"383 527 OFFCURVE",
"383 599 CURVE SMOOTH",
"383 668 OFFCURVE",
"341 697 OFFCURVE",
"290 697 CURVE SMOOTH",
"241 697 OFFCURVE",
"199 668 OFFCURVE",
"199 599 CURVE SMOOTH",
"199 527 OFFCURVE",
"240 502 OFFCURVE",
"290 502 CURVE SMOOTH"
);
}
);
width = 833;
}
);
leftKerningGroup = commercialMinusSign;
rightKerningGroup = commercialMinusSign;
unicode = 2052;
},
{
glyphname = divisionslash;
lastChange = "2018-05-28 03:16:46 +0000";
layers = (
{
layerId = "B61D43DE-5272-4FF4-A680-608B6BF5ED9E";
paths = (
{
closed = 1;
nodes = (
"304 697 LINE",
"206 697 LINE",
"34 1 LINE",
"132 0 LINE"
);
}
);
width = 349;
}
);
leftKerningGroup = divisionslash;
rightKerningGroup = divisionslash;
unicode = 2215;
},
{
glyphname = plus;
lastChange = "2018-05-24 19:23:14 +0000";
layers = (
{
layerId = "B61D43DE-5272-4FF4-A680-608B6BF5ED9E";
paths = (
{
closed = 1;
nodes = (
"337 44 LINE",
"337 273 LINE",
"319 246 LINE",
"531 246 LINE",
"531 344 LINE",
"320 344 LINE",
"337 320 LINE",
"337 544 LINE",
"229 544 LINE",
"229 321 LINE",
"245 344 LINE",
"42 344 LINE",
"42 246 LINE",
"247 246 LINE",
"229 273 LINE",
"229 44 LINE"
);
}
);
width = 572;
}
);
leftKerningGroup = plus;
rightKerningGroup = plus;
unicode = 002B;
},
{
glyphname = minus;
lastChange = "2018-05-24 19:23:14 +0000";
layers = (
{
layerId = "B61D43DE-5272-4FF4-A680-608B6BF5ED9E";
paths = (
{
closed = 1;
nodes = (
"405 246 LINE",
"405 344 LINE",
"62 344 LINE",
"62 246 LINE"
);
}
);
width = 467;
}
);
leftKerningGroup = minus;
rightKerningGroup = minus;
unicode = 2212;
},
{
glyphname = multiply;
lastChange = "2018-05-28 03:16:46 +0000";
layers = (
{
layerId = "B61D43DE-5272-4FF4-A680-608B6BF5ED9E";
paths = (
{
closed = 1;
nodes = (
"497 147 LINE",
"343 304 LINE",
"338 274 LINE",
"487 433 LINE",
"411 509 LINE",
"262 351 LINE",
"290 355 LINE",
"139 509 LINE",
"69 440 LINE",
"220 285 LINE",
"228 317 LINE",
"76 155 LINE",
"153 79 LINE",
"305 241 LINE",
"273 236 LINE",
"427 78 LINE"
);
}
);
width = 585;
}
);
leftKerningGroup = multiply;
rightKerningGroup = multiply;
unicode = 00D7;
},
{
glyphname = divide;
lastChange = "2018-05-24 19:23:14 +0000";
layers = (
{
layerId = "B61D43DE-5272-4FF4-A680-608B6BF5ED9E";
paths = (
{
closed = 1;
nodes = (
"513 246 LINE",
"513 344 LINE",
"29 344 LINE",
"29 246 LINE"
);
},
{
closed = 1;
nodes = (
"337 0 LINE",
"337 129 LINE",
"204 129 LINE",
"204 0 LINE"
);
},
{
closed = 1;
nodes = (
"337 462 LINE",
"337 591 LINE",
"204 591 LINE",
"204 462 LINE"
);
}
);
width = 542;
}
);
leftKerningGroup = divide;
rightKerningGroup = divide;
unicode = 00F7;
},
{
glyphname = equal;
lastChange = "2018-05-24 19:23:14 +0000";
layers = (
{
layerId = "B61D43DE-5272-4FF4-A680-608B6BF5ED9E";
paths = (
{
closed = 1;
nodes = (
"483 378 LINE",
"483 476 LINE",
"59 476 LINE",
"59 378 LINE"
);
},
{
closed = 1;
nodes = (
"483 114 LINE",
"483 212 LINE",
"59 212 LINE",
"59 114 LINE"
);
}
);
width = 572;
}
);
leftKerningGroup = equal;
rightKerningGroup = equal;
unicode = 003D;
},
{
glyphname = notequal;
lastChange = "2018-05-25 16:48:28 +0000";
layers = (
{
components = (
{
name = equal;
}
);
layerId = "B61D43DE-5272-4FF4-A680-608B6BF5ED9E";
paths = (
{
closed = 1;
nodes = (
"217 0 LINE",
"412 599 LINE",
"320 599 LINE",
"124 0 LINE"
);
}
);
width = 572;
}
);
leftKerningGroup = notequal;
rightKerningGroup = notequal;
unicode = 2260;
userData = {
com.typemytype.robofont.mark = (
0.6,
1,
0.628,
1
);
};
},
{
glyphname = greater;
lastChange = "2018-05-28 04:11:07 +0000";
layers = (
{
layerId = "B61D43DE-5272-4FF4-A680-608B6BF5ED9E";
paths = (
{
closed = 1;
nodes = (
"452 250 LINE",
"452 341 LINE",
"80 568 LINE",
"80 457 LINE",
"370 280 LINE",
"370 311 LINE",
"80 134 LINE",
"80 22 LINE"
);
}
);
width = 532;
}
);
leftKerningGroup = greater;
rightKerningGroup = greater;
unicode = 003E;
},
{
glyphname = less;
lastChange = "2018-05-28 04:10:42 +0000";
layers = (
{
layerId = "B61D43DE-5272-4FF4-A680-608B6BF5ED9E";
paths = (
{
closed = 1;
nodes = (
"452 134 LINE",
"162 311 LINE",
"162 280 LINE",
"452 457 LINE",
"452 568 LINE",
"80 341 LINE",
"80 250 LINE",
"452 22 LINE"
);
}
);
width = 532;
}
);
leftKerningGroup = less;
rightKerningGroup = less;
unicode = 003C;
},
{
glyphname = greaterequal;
lastChange = "2018-05-28 04:07:06 +0000";
layers = (
{
layerId = "B61D43DE-5272-4FF4-A680-608B6BF5ED9E";
paths = (
{
closed = 1;
nodes = (
"474 366 LINE",
"474 457 LINE",
"103 685 LINE",
"103 573 LINE",
"392 396 LINE",
"392 427 LINE",
"103 250 LINE",
"103 139 LINE"
);
},
{
closed = 1;
nodes = (
"491 0 LINE",
"491 93 LINE",
"80 93 LINE",
"80 0 LINE"
);
}
);
width = 571;
}
);
leftKerningGroup = greaterequal;
rightKerningGroup = greaterequal;
unicode = 2265;
},
{
glyphname = lessequal;
lastChange = "2018-05-28 04:07:18 +0000";
layers = (
{
layerId = "B61D43DE-5272-4FF4-A680-608B6BF5ED9E";
paths = (
{
closed = 1;
nodes = (
"468 250 LINE",
"179 427 LINE",
"179 396 LINE",
"468 573 LINE",
"468 685 LINE",
"97 457 LINE",
"97 366 LINE",
"468 139 LINE"
);
},
{
closed = 1;
nodes = (
"491 0 LINE",
"491 93 LINE",
"80 93 LINE",
"80 0 LINE"
);
}
);
width = 571;
}
);
leftKerningGroup = lessequal;
rightKerningGroup = lessequal;
unicode = 2264;
},
{
glyphname = plusminus;
lastChange = "2018-05-28 04:06:44 +0000";
layers = (
{
layerId = "B61D43DE-5272-4FF4-A680-608B6BF5ED9E";
paths = (
{
closed = 1;
nodes = (
"337 665 LINE",
"229 665 LINE",
"229 464 LINE",
"42 464 LINE",
"42 366 LINE",
"229 366 LINE",
"229 165 LINE",
"337 165 LINE",
"337 366 LINE",
"531 366 LINE",
"531 464 LINE",
"337 464 LINE"
);
},
{
closed = 1;
nodes = (
"531 0 LINE",
"531 93 LINE",
"42 93 LINE",
"42 0 LINE"
);
}
);
width = 572;
}
);
leftKerningGroup = plusminus;
rightKerningGroup = plusminus;
unicode = 00B1;
},
{
glyphname = asciitilde;
lastChange = "2018-05-28 04:05:27 +0000";
layers = (
{
layerId = "B61D43DE-5272-4FF4-A680-608B6BF5ED9E";
paths = (
{
closed = 1;
nodes = (
"111 272 OFFCURVE",
"136 310 OFFCURVE",
"180 310 CURVE SMOOTH",
"255 310 OFFCURVE",
"287 225 OFFCURVE",
"385 225 CURVE SMOOTH",
"463 225 OFFCURVE",
"541 292 OFFCURVE",
"551 359 CURVE",
"479 407 LINE",
"464 365 OFFCURVE",
"439 327 OFFCURVE",
"394 328 CURVE",
"316 328 OFFCURVE",
"290 413 OFFCURVE",
"190 413 CURVE SMOOTH",
"113 413 OFFCURVE",
"35 346 OFFCURVE",
"24 279 CURVE",
"96 230 LINE"
);
}
);
width = 576;
}
);
leftKerningGroup = asciitilde;
rightKerningGroup = asciitilde;
unicode = 007E;
},
{
glyphname = logicalnot;
lastChange = "2018-05-28 03:16:46 +0000";
layers = (
{
layerId = "B61D43DE-5272-4FF4-A680-608B6BF5ED9E";
paths = (
{
closed = 1;
nodes = (
"491 246 LINE",
"491 344 LINE",
"80 344 LINE",
"80 246 LINE"
);
},
{
closed = 1;
nodes = (
"491 71 LINE",
"491 246 LINE",
"392 321 LINE",
"392 71 LINE"
);
}
);
width = 571;
}
);
leftKerningGroup = logicalnot;
rightKerningGroup = logicalnot;
unicode = 00AC;
},
{
glyphname = asciicircum;
lastChange = "2018-05-25 16:30:34 +0000";
layers = (
{
layerId = "B61D43DE-5272-4FF4-A680-608B6BF5ED9E";
paths = (
{
closed = 1;
nodes = (
"124 144 LINE",
"244 543 LINE",
"226 543 LINE",
"345 144 LINE",
"458 144 LINE",
"275 697 LINE",
"195 697 LINE",
"12 144 LINE"
);
}
);
width = 470;
}
);
leftKerningGroup = asciicircum;
rightKerningGroup = asciicircum;
unicode = 005E;
},
{
glyphname = infinity;
lastChange = "2018-05-28 03:16:46 +0000";
layers = (
{
layerId = "B61D43DE-5272-4FF4-A680-608B6BF5ED9E";
paths = (
{
closed = 1;
nodes = (
"353 96 OFFCURVE",
"405 158 OFFCURVE",
"441 224 CURVE",
"473 177 OFFCURVE",
"529 96 OFFCURVE",
"620 96 CURVE SMOOTH",
"748 96 OFFCURVE",
"831 187 OFFCURVE",
"831 325 CURVE SMOOTH",
"831 427 OFFCURVE",
"780 550 OFFCURVE",
"633 550 CURVE SMOOTH",
"539 550 OFFCURVE",
"482 488 OFFCURVE",
"444 420 CURVE",
"413 469 OFFCURVE",
"357 550 OFFCURVE",
"264 550 CURVE SMOOTH",
"138 550 OFFCURVE",
"54 459 OFFCURVE",
"54 322 CURVE SMOOTH",
"54 220 OFFCURVE",
"109 96 OFFCURVE",
"256 96 CURVE SMOOTH"
);
},
{
closed = 1;
nodes = (
"210 196 OFFCURVE",
"161 227 OFFCURVE",
"161 324 CURVE SMOOTH",
"161 417 OFFCURVE",
"209 450 OFFCURVE",
"261 450 CURVE SMOOTH",
"319 450 OFFCURVE",
"364 356 OFFCURVE",
"395 300 CURVE",
"359 240 OFFCURVE",
"311 196 OFFCURVE",
"261 196 CURVE SMOOTH"
);
},
{
closed = 1;
nodes = (
"570 196 OFFCURVE",
"521 290 OFFCURVE",
"490 346 CURVE",
"525 407 OFFCURVE",
"572 451 OFFCURVE",
"624 451 CURVE SMOOTH",
"675 451 OFFCURVE",
"723 419 OFFCURVE",
"723 322 CURVE SMOOTH",
"723 229 OFFCURVE",
"680 196 OFFCURVE",
"629 196 CURVE SMOOTH"
);
}
);
width = 884;
}
);
leftKerningGroup = infinity;
rightKerningGroup = infinity;
unicode = 221E;
},
{
glyphname = emptyset;
lastChange = "2018-05-28 03:16:46 +0000";
layers = (
{
layerId = "B61D43DE-5272-4FF4-A680-608B6BF5ED9E";
paths = (
{
closed = 1;
nodes = (
"723 697 LINE",
"623 697 LINE",
"75 1 LINE",
"175 0 LINE"
);
},
{
closed = 1;
nodes = (
"583 27 OFFCURVE",
"720 167 OFFCURVE",
"720 349 CURVE SMOOTH",
"720 531 OFFCURVE",
"583 671 OFFCURVE",
"405 671 CURVE SMOOTH",
"227 671 OFFCURVE",
"89 531 OFFCURVE",
"89 349 CURVE SMOOTH",
"89 167 OFFCURVE",
"230 27 OFFCURVE",
"405 27 CURVE SMOOTH"
);
},
{
closed = 1;
nodes = (
"284 132 OFFCURVE",
"201 232 OFFCURVE",
"201 349 CURVE SMOOTH",
"201 466 OFFCURVE",
"284 566 OFFCURVE",
"405 566 CURVE SMOOTH",
"526 566 OFFCURVE",
"609 466 OFFCURVE",
"609 349 CURVE SMOOTH",
"609 232 OFFCURVE",
"526 132 OFFCURVE",
"405 132 CURVE SMOOTH"
);
}
);
width = 810;
}
);
leftKerningGroup = emptyset;
rightKerningGroup = emptyset;
unicode = 2205;
},
{
glyphname = integral;
lastChange = "2018-05-28 03:43:16 +0000";
layers = (
{
layerId = "B61D43DE-5272-4FF4-A680-608B6BF5ED9E";
paths = (
{
closed = 1;
nodes = (
"289 -248 OFFCURVE",
"355 -152 OFFCURVE",
"355 7 CURVE SMOOTH",
"355 25 OFFCURVE",
"354 44 OFFCURVE",
"352 64 CURVE SMOOTH",
"337 229 OFFCURVE",
"275 396 OFFCURVE",
"253 565 CURVE SMOOTH",
"250 589 OFFCURVE",
"249 611 OFFCURVE",
"249 631 CURVE SMOOTH",
"249 721 OFFCURVE",
"275 770 OFFCURVE",
"326 770 CURVE SMOOTH",
"362 770 OFFCURVE",
"391 751 OFFCURVE",
"414 699 CURVE",
"485 755 LINE",
"441 844 OFFCURVE",
"365 867 OFFCURVE",
"318 867 CURVE SMOOTH",
"200 867 OFFCURVE",
"136 782 OFFCURVE",
"136 623 CURVE SMOOTH",
"136 604 OFFCURVE",
"137 584 OFFCURVE",
"139 563 CURVE SMOOTH",
"153 400 OFFCURVE",
"217 237 OFFCURVE",
"238 66 CURVE",
"240 42 OFFCURVE",
"242 20 OFFCURVE",
"242 0 CURVE SMOOTH",
"242 -96 OFFCURVE",
"215 -152 OFFCURVE",
"162 -152 CURVE SMOOTH",
"125 -152 OFFCURVE",
"97 -128 OFFCURVE",
"74 -83 CURVE",
"3 -136 LINE",
"48 -225 OFFCURVE",
"124 -248 OFFCURVE",
"170 -248 CURVE SMOOTH"
);
}
);
width = 487;
}
);
leftKerningGroup = integral;
rightKerningGroup = integral;
unicode = 222B;
},
{
glyphname = product;
lastChange = "2018-05-24 19:23:14 +0000";
layers = (
{
layerId = "B61D43DE-5272-4FF4-A680-608B6BF5ED9E";
paths = (
{
closed = 1;
nodes = (
"206 -123 LINE",
"205 625 LINE",
"188 611 LINE",
"454 611 LINE",
"437 625 LINE",
"437 -123 LINE",
"566 -123 LINE",
"566 697 LINE",
"77 697 LINE",
"77 -123 LINE"
);
}
);
width = 643;
}
);
leftKerningGroup = product;
rightKerningGroup = product;
unicode = 220F;
},
{
glyphname = summation;
lastChange = "2018-05-28 03:16:46 +0000";
layers = (
{
layerId = "B61D43DE-5272-4FF4-A680-608B6BF5ED9E";
paths = (
{
closed = 1;
nodes = (
"459 -124 LINE",
"459 -14 LINE",
"102 -14 LINE",
"190 -66 LINE",
"366 301 LINE",
"206 622 LINE",
"134 596 LINE",
"439 596 LINE",
"439 697 LINE",
"34 697 LINE",
"246 280 LINE",
"246 322 LINE",
"34 -124 LINE"
);
}
);
width = 499;
}
);
leftKerningGroup = summation;
rightKerningGroup = summation;
unicode = 2211;
},
{
glyphname = radical;
lastChange = "2018-05-28 03:16:46 +0000";
layers = (
{
layerId = "B61D43DE-5272-4FF4-A680-608B6BF5ED9E";
paths = (
{
closed = 1;
nodes = (
"381 -199 LINE",
"684 913 LINE",
"565 913 LINE",
"311 -72 LINE",
"363 -101 LINE",
"193 387 LINE",
"130 387 LINE",
"-8 339 LINE",
"33 236 LINE",
"135 269 LINE",
"101 294 LINE",
"302 -199 LINE"
);
}
);
width = 669;
}
);
leftKerningGroup = radical;
rightKerningGroup = radical;
unicode = 221A;
},
{
glyphname = partialdiff;
lastChange = "2018-05-28 03:16:46 +0000";
layers = (
{
layerId = "B61D43DE-5272-4FF4-A680-608B6BF5ED9E";
paths = (
{
closed = 1;
nodes = (
"424 -9 OFFCURVE",
"516 159 OFFCURVE",
"516 372 CURVE SMOOTH",
"516 551 OFFCURVE",
"450 789 OFFCURVE",
"251 789 CURVE SMOOTH",
"185 789 OFFCURVE",
"123 770 OFFCURVE",
"88 742 CURVE",
"125 639 LINE",
"155 669 OFFCURVE",
"206 683 OFFCURVE",
"244 683 CURVE SMOOTH",
"332 683 OFFCURVE",
"366 596 OFFCURVE",
"380 475 CURVE",
"356 491 OFFCURVE",
"325 507 OFFCURVE",
"280 507 CURVE SMOOTH",
"139 507 OFFCURVE",
"46 395 OFFCURVE",
"46 238 CURVE SMOOTH",
"46 80 OFFCURVE",
"146 -9 OFFCURVE",
"269 -9 CURVE SMOOTH"
);
},
{
closed = 1;
nodes = (
"203 105 OFFCURVE",
"172 171 OFFCURVE",
"172 252 CURVE SMOOTH",
"172 349 OFFCURVE",
"215 419 OFFCURVE",
"299 419 CURVE SMOOTH",
"339 419 OFFCURVE",
"374 398 OFFCURVE",
"390 381 CURVE",
"391 364 OFFCURVE",
"392 346 OFFCURVE",
"392 328 CURVE SMOOTH",
"392 237 OFFCURVE",
"359 105 OFFCURVE",
"271 105 CURVE SMOOTH"
);
}
);
width = 560;
}
);
leftKerningGroup = partialdiff;
rightKerningGroup = partialdiff;
unicode = 2202;
},
{
glyphname = percent;
lastChange = "2018-05-28 03:16:46 +0000";
layers = (
{
layerId = "B61D43DE-5272-4FF4-A680-608B6BF5ED9E";
paths = (
{
closed = 1;
nodes = (
"309 0 LINE",
"691 697 LINE",
"593 697 LINE",
"211 0 LINE"
);
},
{
closed = 1;
nodes = (
"334 323 OFFCURVE",
"377 400 OFFCURVE",
"377 511 CURVE SMOOTH",
"377 646 OFFCURVE",
"314 703 OFFCURVE",
"212 703 CURVE SMOOTH",
"109 703 OFFCURVE",
"44 646 OFFCURVE",
"44 512 CURVE SMOOTH",
"44 398 OFFCURVE",
"97 323 OFFCURVE",
"212 323 CURVE SMOOTH"
);
},
{
closed = 1;
nodes = (
"160 398 OFFCURVE",
"151 449 OFFCURVE",
"151 512 CURVE SMOOTH",
"151 588 OFFCURVE",
"165 627 OFFCURVE",
"209 627 CURVE SMOOTH",
"255 627 OFFCURVE",
"267 588 OFFCURVE",
"267 509 CURVE SMOOTH",
"267 450 OFFCURVE",
"261 398 OFFCURVE",
"211 398 CURVE SMOOTH"
);
},
{
closed = 1;
nodes = (
"816 -15 OFFCURVE",
"860 63 OFFCURVE",
"860 173 CURVE SMOOTH",
"860 308 OFFCURVE",
"796 366 OFFCURVE",
"694 366 CURVE SMOOTH",
"591 366 OFFCURVE",
"527 308 OFFCURVE",
"527 175 CURVE SMOOTH",
"527 61 OFFCURVE",
"579 -15 OFFCURVE",
"695 -15 CURVE SMOOTH"
);
},
{
closed = 1;
nodes = (
"642 62 OFFCURVE",
"634 112 OFFCURVE",
"634 174 CURVE SMOOTH",
"634 251 OFFCURVE",
"646 290 OFFCURVE",
"692 290 CURVE SMOOTH",
"737 290 OFFCURVE",
"749 251 OFFCURVE",
"749 172 CURVE SMOOTH",
"749 112 OFFCURVE",
"744 62 OFFCURVE",
"692 62 CURVE SMOOTH"
);
}
);
width = 904;
}
);
leftKerningGroup = percent;
rightKerningGroup = percent;
unicode = 0025;
},
